<svg width="843" height="60" viewBox="0 0 843 60" fill="none" xmlns="http://www.w3.org/2000/svg">
<g filter="url(#filter0_d_248_354)">
<mask id="path-2-inside-1_248_354" fill="white">
<path fill-rule="evenodd" clip-rule="evenodd" d="M2 5C2 2.79086 3.79086 1 6 1H403.679C405.114 1 406.44 1.76914 407.152 3.01544L420.866 27.0154C421.569 28.2452 421.569 29.7548 420.866 30.9846L407.152 54.9846C406.44 56.2309 405.114 57 403.679 57H6C3.79086 57 2 55.2091 2 53V5Z"/>
</mask>
<path fill-rule="evenodd" clip-rule="evenodd" d="M2 5C2 2.79086 3.79086 1 6 1H403.679C405.114 1 406.44 1.76914 407.152 3.01544L420.866 27.0154C421.569 28.2452 421.569 29.7548 420.866 30.9846L407.152 54.9846C406.44 56.2309 405.114 57 403.679 57H6C3.79086 57 2 55.2091 2 53V5Z" fill="#A5D696" fill-opacity="0.4"/>
<path d="M420.866 27.0154L421.734 26.5193V26.5193L420.866 27.0154ZM420.866 30.9846L421.734 31.4807V31.4807L420.866 30.9846ZM407.152 54.9846L408.02 55.4807L407.152 54.9846ZM407.152 3.01544L408.02 2.51931L407.152 3.01544ZM403.679 0H6V2H403.679V0ZM406.283 3.51158L419.998 27.5116L421.734 26.5193L408.02 2.51931L406.283 3.51158ZM419.998 27.5116C420.525 28.4339 420.525 29.5661 419.998 30.4884L421.734 31.4807C422.613 29.9435 422.613 28.0565 421.734 26.5193L419.998 27.5116ZM419.998 30.4884L406.283 54.4884L408.02 55.4807L421.734 31.4807L419.998 30.4884ZM6 58H403.679V56H6V58ZM1 5V53H3V5H1ZM406.283 54.4884C405.749 55.4231 404.755 56 403.679 56V58C405.473 58 407.13 57.0386 408.02 55.4807L406.283 54.4884ZM6 0C3.23857 0 1 2.23858 1 5H3C3 3.34315 4.34315 2 6 2V0ZM6 56C4.34315 56 3 54.6569 3 53H1C1 55.7614 3.23858 58 6 58V56ZM403.679 2C404.755 2 405.749 2.57686 406.283 3.51158L408.02 2.51931C407.13 0.96143 405.473 0 403.679 0V2Z" fill="#555555" mask="url(#path-2-inside-1_248_354)"/>
</g>
<path d="M30.326 26.112C29.5793 26.112 28.8653 26 28.184 25.776C27.5027 25.5427 26.966 25.244 26.574 24.88L27.092 23.788C27.4653 24.1147 27.9413 24.3853 28.52 24.6C29.0987 24.8147 29.7007 24.922 30.326 24.922C30.8953 24.922 31.3573 24.8567 31.712 24.726C32.0667 24.5953 32.328 24.418 32.496 24.194C32.664 23.9607 32.748 23.6993 32.748 23.41C32.748 23.074 32.636 22.8033 32.412 22.598C32.1973 22.3927 31.9127 22.2293 31.558 22.108C31.2127 21.9773 30.83 21.8653 30.41 21.772C29.99 21.6787 29.5653 21.5713 29.136 21.45C28.716 21.3193 28.3287 21.156 27.974 20.96C27.6287 20.764 27.3487 20.5027 27.134 20.176C26.9193 19.84 26.812 19.4107 26.812 18.888C26.812 18.384 26.9427 17.922 27.204 17.502C27.4747 17.0727 27.8853 16.732 28.436 16.48C28.996 16.2187 29.7053 16.088 30.564 16.088C31.1333 16.088 31.698 16.1627 32.258 16.312C32.818 16.4613 33.3033 16.676 33.714 16.956L33.252 18.076C32.832 17.796 32.3887 17.5953 31.922 17.474C31.4553 17.3433 31.0027 17.278 30.564 17.278C30.0133 17.278 29.5607 17.348 29.206 17.488C28.8513 17.628 28.59 17.8147 28.422 18.048C28.2633 18.2813 28.184 18.5427 28.184 18.832C28.184 19.1773 28.2913 19.4527 28.506 19.658C28.73 19.8633 29.0147 20.0267 29.36 20.148C29.7147 20.2693 30.102 20.3813 30.522 20.484C30.942 20.5773 31.362 20.6847 31.782 20.806C32.2113 20.9273 32.5987 21.086 32.944 21.282C33.2987 21.478 33.5833 21.7393 33.798 22.066C34.0127 22.3927 34.12 22.8127 34.12 23.326C34.12 23.8207 33.9847 24.2827 33.714 24.712C33.4433 25.132 33.0233 25.4727 32.454 25.734C31.894 25.986 31.1847 26.112 30.326 26.112ZM38.5173 26.084C37.7706 26.084 37.192 25.8833 36.7813 25.482C36.3706 25.0807 36.1653 24.5067 36.1653 23.76V16.956H37.5093V23.704C37.5093 24.1053 37.6073 24.4133 37.8033 24.628C38.0086 24.8427 38.298 24.95 38.6713 24.95C39.0913 24.95 39.4413 24.8333 39.7213 24.6L40.1413 25.566C39.936 25.7433 39.6886 25.874 39.3993 25.958C39.1193 26.042 38.8253 26.084 38.5173 26.084ZM34.9053 19.686V18.58H39.6373V19.686H34.9053ZM44.8241 26.084C44.0308 26.084 43.3308 25.9207 42.7241 25.594C42.1268 25.2673 41.6601 24.8193 41.3241 24.25C40.9974 23.6807 40.8341 23.0273 40.8341 22.29C40.8341 21.5527 40.9928 20.8993 41.3101 20.33C41.6368 19.7607 42.0801 19.3173 42.6401 19C43.2094 18.6733 43.8488 18.51 44.5581 18.51C45.2768 18.51 45.9114 18.6687 46.4621 18.986C47.0128 19.3033 47.4421 19.7513 47.7501 20.33C48.0674 20.8993 48.2261 21.5667 48.2261 22.332C48.2261 22.388 48.2214 22.4533 48.2121 22.528C48.2121 22.6027 48.2074 22.6727 48.1981 22.738H41.8841V21.772H47.4981L46.9521 22.108C46.9614 21.632 46.8634 21.2073 46.6581 20.834C46.4528 20.4607 46.1681 20.1713 45.8041 19.966C45.4494 19.7513 45.0341 19.644 44.5581 19.644C44.0914 19.644 43.6761 19.7513 43.3121 19.966C42.9481 20.1713 42.6634 20.4653 42.4581 20.848C42.2528 21.2213 42.1501 21.6507 42.1501 22.136V22.36C42.1501 22.8547 42.2621 23.298 42.4861 23.69C42.7194 24.0727 43.0414 24.3713 43.4521 24.586C43.8628 24.8007 44.3341 24.908 44.8661 24.908C45.3048 24.908 45.7014 24.8333 46.0561 24.684C46.4201 24.5347 46.7374 24.3107 47.0081 24.012L47.7501 24.88C47.4141 25.272 46.9941 25.5707 46.4901 25.776C45.9954 25.9813 45.4401 26.084 44.8241 26.084ZM54.0264 26.084C53.4104 26.084 52.8457 25.944 52.3324 25.664C51.8284 25.3747 51.4224 24.95 51.1144 24.39C50.8157 23.83 50.6664 23.13 50.6664 22.29C50.6664 21.45 50.811 20.75 51.1004 20.19C51.399 19.63 51.8004 19.21 52.3044 18.93C52.8177 18.65 53.3917 18.51 54.0264 18.51C54.7544 18.51 55.3984 18.6687 55.9584 18.986C56.5184 19.3033 56.9617 19.7467 57.2884 20.316C57.615 20.876 57.7784 21.534 57.7784 22.29C57.7784 23.046 57.615 23.7087 57.2884 24.278C56.9617 24.8473 56.5184 25.2907 55.9584 25.608C55.3984 25.9253 54.7544 26.084 54.0264 26.084ZM50.0924 28.716V18.58H51.3804V20.582L51.2964 22.304L51.4364 24.026V28.716H50.0924ZM53.9144 24.908C54.3904 24.908 54.815 24.8007 55.1884 24.586C55.571 24.3713 55.8697 24.068 56.0844 23.676C56.3084 23.2747 56.4204 22.8127 56.4204 22.29C56.4204 21.758 56.3084 21.3007 56.0844 20.918C55.8697 20.526 55.571 20.2227 55.1884 20.008C54.815 19.7933 54.3904 19.686 53.9144 19.686C53.4477 19.686 53.023 19.7933 52.6404 20.008C52.267 20.2227 51.9684 20.526 51.7444 20.918C51.5297 21.3007 51.4224 21.758 51.4224 22.29C51.4224 22.8127 51.5297 23.2747 51.7444 23.676C51.9684 24.068 52.267 24.3713 52.6404 24.586C53.023 24.8007 53.4477 24.908 53.9144 24.908ZM64.4451 26V16.76L65.0471 17.418H62.2331V16.2H65.8311V26H64.4451Z" fill="#084237"/>
<path d="M27.368 43V34.6H30.512C31.224 34.6 31.836 34.716 32.348 34.948C32.86 35.172 33.252 35.5 33.524 35.932C33.804 36.356 33.944 36.872 33.944 37.48C33.944 38.072 33.804 38.584 33.524 39.016C33.252 39.44 32.86 39.768 32.348 40C31.836 40.232 31.224 40.348 30.512 40.348H27.86L28.256 39.928V43H27.368ZM28.256 40L27.86 39.568H30.488C31.328 39.568 31.964 39.388 32.396 39.028C32.836 38.66 33.056 38.144 33.056 37.48C33.056 36.808 32.836 36.288 32.396 35.92C31.964 35.552 31.328 35.368 30.488 35.368H27.86L28.256 34.948V40ZM38.3249 43.06C37.6689 43.06 37.0929 42.924 36.5969 42.652C36.1009 42.372 35.7129 41.992 35.4329 41.512C35.1529 41.024 35.0129 40.468 35.0129 39.844C35.0129 39.22 35.1449 38.668 35.4089 38.188C35.6809 37.708 36.0489 37.332 36.5129 37.06C36.9849 36.78 37.5129 36.64 38.0969 36.64C38.6889 36.64 39.2129 36.776 39.6689 37.048C40.1329 37.312 40.4969 37.688 40.7609 38.176C41.0249 38.656 41.1569 39.212 41.1569 39.844C41.1569 39.884 41.1529 39.928 41.1449 39.976C41.1449 40.016 41.1449 40.06 41.1449 40.108H35.6609V39.472H40.6889L40.3529 39.724C40.3529 39.268 40.2529 38.864 40.0529 38.512C39.8609 38.152 39.5969 37.872 39.2609 37.672C38.9249 37.472 38.5369 37.372 38.0969 37.372C37.6649 37.372 37.2769 37.472 36.9329 37.672C36.5889 37.872 36.3209 38.152 36.1289 38.512C35.9369 38.872 35.8409 39.284 35.8409 39.748V39.88C35.8409 40.36 35.9449 40.784 36.1529 41.152C36.3689 41.512 36.6649 41.796 37.0409 42.004C37.4249 42.204 37.8609 42.304 38.3489 42.304C38.7329 42.304 39.0889 42.236 39.4169 42.1C39.7529 41.964 40.0409 41.756 40.2809 41.476L40.7609 42.028C40.4809 42.364 40.1289 42.62 39.7049 42.796C39.2889 42.972 38.8289 43.06 38.3249 43.06ZM42.8911 43V36.7H43.7071V38.416L43.6231 38.116C43.7991 37.636 44.0951 37.272 44.5111 37.024C44.9271 36.768 45.4431 36.64 46.0591 36.64V37.468C46.0271 37.468 45.9951 37.468 45.9631 37.468C45.9311 37.46 45.8991 37.456 45.8671 37.456C45.2031 37.456 44.6831 37.66 44.3071 38.068C43.9311 38.468 43.7431 39.04 43.7431 39.784V43H42.8911ZM49.3761 43.06C48.8561 43.06 48.3641 42.988 47.9001 42.844C47.4361 42.692 47.0721 42.504 46.8081 42.28L47.1921 41.608C47.4481 41.8 47.7761 41.968 48.1761 42.112C48.5761 42.248 48.9961 42.316 49.4361 42.316C50.0361 42.316 50.4681 42.224 50.7321 42.04C50.9961 41.848 51.1281 41.596 51.1281 41.284C51.1281 41.052 51.0521 40.872 50.9001 40.744C50.7561 40.608 50.5641 40.508 50.3241 40.444C50.0841 40.372 49.8161 40.312 49.5201 40.264C49.2241 40.216 48.9281 40.16 48.6321 40.096C48.3441 40.032 48.0801 39.94 47.8401 39.82C47.6001 39.692 47.4041 39.52 47.2521 39.304C47.1081 39.088 47.0361 38.8 47.0361 38.44C47.0361 38.096 47.1321 37.788 47.3241 37.516C47.5161 37.244 47.7961 37.032 48.1641 36.88C48.5401 36.72 48.9961 36.64 49.5321 36.64C49.9401 36.64 50.3481 36.696 50.7561 36.808C51.1641 36.912 51.5001 37.052 51.7641 37.228L51.3921 37.912C51.1121 37.72 50.8121 37.584 50.4921 37.504C50.1721 37.416 49.8521 37.372 49.5321 37.372C48.9641 37.372 48.5441 37.472 48.2721 37.672C48.0081 37.864 47.8761 38.112 47.8761 38.416C47.8761 38.656 47.9481 38.844 48.0921 38.98C48.2441 39.116 48.4401 39.224 48.6801 39.304C48.9281 39.376 49.1961 39.436 49.4841 39.484C49.7801 39.532 50.0721 39.592 50.3601 39.664C50.6561 39.728 50.9241 39.82 51.1641 39.94C51.4121 40.052 51.6081 40.216 51.7521 40.432C51.9041 40.64 51.9801 40.916 51.9801 41.26C51.9801 41.628 51.8761 41.948 51.6681 42.22C51.4681 42.484 51.1721 42.692 50.7801 42.844C50.3961 42.988 49.9281 43.06 49.3761 43.06ZM56.1115 43.06C55.5035 43.06 54.9555 42.924 54.4675 42.652C53.9875 42.372 53.6075 41.992 53.3275 41.512C53.0475 41.024 52.9075 40.468 52.9075 39.844C52.9075 39.212 53.0475 38.656 53.3275 38.176C53.6075 37.696 53.9875 37.32 54.4675 37.048C54.9475 36.776 55.4955 36.64 56.1115 36.64C56.7355 36.64 57.2875 36.776 57.7675 37.048C58.2555 37.32 58.6355 37.696 58.9075 38.176C59.1875 38.656 59.3275 39.212 59.3275 39.844C59.3275 40.468 59.1875 41.024 58.9075 41.512C58.6355 41.992 58.2555 42.372 57.7675 42.652C57.2795 42.924 56.7275 43.06 56.1115 43.06ZM56.1115 42.304C56.5675 42.304 56.9715 42.204 57.3235 42.004C57.6755 41.796 57.9515 41.508 58.1515 41.14C58.3595 40.764 58.4635 40.332 58.4635 39.844C58.4635 39.348 58.3595 38.916 58.1515 38.548C57.9515 38.18 57.6755 37.896 57.3235 37.696C56.9715 37.488 56.5715 37.384 56.1235 37.384C55.6755 37.384 55.2755 37.488 54.9235 37.696C54.5715 37.896 54.2915 38.18 54.0835 38.548C53.8755 38.916 53.7715 39.348 53.7715 39.844C53.7715 40.332 53.8755 40.764 54.0835 41.14C54.2915 41.508 54.5715 41.796 54.9235 42.004C55.2755 42.204 55.6715 42.304 56.1115 42.304ZM64.2829 36.64C64.7949 36.64 65.2429 36.74 65.6269 36.94C66.0189 37.132 66.3229 37.428 66.5389 37.828C66.7629 38.228 66.8749 38.732 66.8749 39.34V43H66.0229V39.424C66.0229 38.76 65.8549 38.26 65.5189 37.924C65.1909 37.58 64.7269 37.408 64.1269 37.408C63.6789 37.408 63.2869 37.5 62.9509 37.684C62.6229 37.86 62.3669 38.12 62.1829 38.464C62.0069 38.8 61.9189 39.208 61.9189 39.688V43H61.0669V36.7H61.8829V38.428L61.7509 38.104C61.9509 37.648 62.2709 37.292 62.7109 37.036C63.1509 36.772 63.6749 36.64 64.2829 36.64ZM73.1243 43V41.608L73.0883 41.38V39.052C73.0883 38.516 72.9363 38.104 72.6323 37.816C72.3363 37.528 71.8923 37.384 71.3003 37.384C70.8923 37.384 70.5043 37.452 70.1363 37.588C69.7683 37.724 69.4563 37.904 69.2003 38.128L68.8163 37.492C69.1363 37.22 69.5203 37.012 69.9683 36.868C70.4163 36.716 70.8883 36.64 71.3843 36.64C72.2003 36.64 72.8283 36.844 73.2683 37.252C73.7163 37.652 73.9403 38.264 73.9403 39.088V43H73.1243ZM70.9523 43.06C70.4803 43.06 70.0683 42.984 69.7163 42.832C69.3723 42.672 69.1083 42.456 68.9243 42.184C68.7403 41.904 68.6483 41.584 68.6483 41.224C68.6483 40.896 68.7243 40.6 68.8763 40.336C69.0363 40.064 69.2923 39.848 69.6443 39.688C70.0043 39.52 70.4843 39.436 71.0843 39.436H73.2563V40.072H71.1083C70.5003 40.072 70.0763 40.18 69.8363 40.396C69.6043 40.612 69.4883 40.88 69.4883 41.2C69.4883 41.56 69.6283 41.848 69.9083 42.064C70.1883 42.28 70.5803 42.388 71.0843 42.388C71.5643 42.388 71.9763 42.28 72.3203 42.064C72.6723 41.84 72.9283 41.52 73.0883 41.104L73.2803 41.692C73.1203 42.108 72.8403 42.44 72.4403 42.688C72.0483 42.936 71.5523 43.06 70.9523 43.06ZM76.2544 43V34.096H77.1064V43H76.2544ZM82.7977 43V34.6H83.6857V43H82.7977ZM89.4548 36.64C89.9668 36.64 90.4148 36.74 90.7988 36.94C91.1908 37.132 91.4948 37.428 91.7108 37.828C91.9348 38.228 92.0468 38.732 92.0468 39.34V43H91.1948V39.424C91.1948 38.76 91.0268 38.26 90.6908 37.924C90.3628 37.58 89.8988 37.408 89.2988 37.408C88.8508 37.408 88.4588 37.5 88.1228 37.684C87.7948 37.86 87.5388 38.12 87.3548 38.464C87.1788 38.8 87.0908 39.208 87.0908 39.688V43H86.2388V36.7H87.0548V38.428L86.9228 38.104C87.1228 37.648 87.4428 37.292 87.8828 37.036C88.3228 36.772 88.8468 36.64 89.4548 36.64ZM94.4922 43V35.908C94.4922 35.348 94.6562 34.896 94.9842 34.552C95.3122 34.208 95.7842 34.036 96.4002 34.036C96.6402 34.036 96.8722 34.068 97.0962 34.132C97.3202 34.196 97.5082 34.296 97.6602 34.432L97.3722 35.068C97.2522 34.964 97.1122 34.888 96.9522 34.84C96.7922 34.784 96.6202 34.756 96.4362 34.756C96.0762 34.756 95.8002 34.856 95.6082 35.056C95.4162 35.256 95.3202 35.552 95.3202 35.944V36.904L95.3442 37.3V43H94.4922ZM93.3642 37.408V36.7H97.2642V37.408H93.3642ZM100.877 43.06C100.269 43.06 99.7211 42.924 99.2331 42.652C98.7531 42.372 98.3731 41.992 98.0931 41.512C97.8131 41.024 97.6731 40.468 97.6731 39.844C97.6731 39.212 97.8131 38.656 98.0931 38.176C98.3731 37.696 98.7531 37.32 99.2331 37.048C99.7131 36.776 100.261 36.64 100.877 36.64C101.501 36.64 102.053 36.776 102.533 37.048C103.021 37.32 103.401 37.696 103.673 38.176C103.953 38.656 104.093 39.212 104.093 39.844C104.093 40.468 103.953 41.024 103.673 41.512C103.401 41.992 103.021 42.372 102.533 42.652C102.045 42.924 101.493 43.06 100.877 43.06ZM100.877 42.304C101.333 42.304 101.737 42.204 102.089 42.004C102.441 41.796 102.717 41.508 102.917 41.14C103.125 40.764 103.229 40.332 103.229 39.844C103.229 39.348 103.125 38.916 102.917 38.548C102.717 38.18 102.441 37.896 102.089 37.696C101.737 37.488 101.337 37.384 100.889 37.384C100.441 37.384 100.041 37.488 99.6891 37.696C99.3371 37.896 99.0571 38.18 98.8491 38.548C98.6411 38.916 98.5371 39.348 98.5371 39.844C98.5371 40.332 98.6411 40.764 98.8491 41.14C99.0571 41.508 99.3371 41.796 99.6891 42.004C100.041 42.204 100.437 42.304 100.877 42.304ZM105.833 43V36.7H106.649V38.416L106.565 38.116C106.741 37.636 107.037 37.272 107.453 37.024C107.869 36.768 108.385 36.64 109.001 36.64V37.468C108.969 37.468 108.937 37.468 108.905 37.468C108.873 37.46 108.841 37.456 108.809 37.456C108.145 37.456 107.625 37.66 107.249 38.068C106.873 38.468 106.685 39.04 106.685 39.784V43H105.833ZM118.427 36.64C118.939 36.64 119.383 36.74 119.759 36.94C120.143 37.132 120.439 37.428 120.647 37.828C120.863 38.228 120.971 38.732 120.971 39.34V43H120.119V39.424C120.119 38.76 119.959 38.26 119.639 37.924C119.327 37.58 118.883 37.408 118.307 37.408C117.875 37.408 117.499 37.5 117.179 37.684C116.867 37.86 116.623 38.12 116.447 38.464C116.279 38.8 116.195 39.208 116.195 39.688V43H115.343V39.424C115.343 38.76 115.183 38.26 114.863 37.924C114.543 37.58 114.095 37.408 113.519 37.408C113.095 37.408 112.723 37.5 112.403 37.684C112.083 37.86 111.835 38.12 111.659 38.464C111.491 38.8 111.407 39.208 111.407 39.688V43H110.555V36.7H111.371V38.404L111.239 38.104C111.431 37.648 111.739 37.292 112.163 37.036C112.595 36.772 113.103 36.64 113.687 36.64C114.303 36.64 114.827 36.796 115.259 37.108C115.691 37.412 115.971 37.872 116.099 38.488L115.763 38.356C115.947 37.844 116.271 37.432 116.735 37.12C117.207 36.8 117.771 36.64 118.427 36.64ZM127.23 43V41.608L127.194 41.38V39.052C127.194 38.516 127.042 38.104 126.738 37.816C126.442 37.528 125.998 37.384 125.406 37.384C124.998 37.384 124.61 37.452 124.242 37.588C123.874 37.724 123.562 37.904 123.306 38.128L122.922 37.492C123.242 37.22 123.626 37.012 124.074 36.868C124.522 36.716 124.994 36.64 125.49 36.64C126.306 36.64 126.934 36.844 127.374 37.252C127.822 37.652 128.046 38.264 128.046 39.088V43H127.23ZM125.058 43.06C124.586 43.06 124.174 42.984 123.822 42.832C123.478 42.672 123.214 42.456 123.03 42.184C122.846 41.904 122.754 41.584 122.754 41.224C122.754 40.896 122.83 40.6 122.982 40.336C123.142 40.064 123.398 39.848 123.75 39.688C124.11 39.52 124.59 39.436 125.19 39.436H127.362V40.072H125.214C124.606 40.072 124.182 40.18 123.942 40.396C123.71 40.612 123.594 40.88 123.594 41.2C123.594 41.56 123.734 41.848 124.014 42.064C124.294 42.28 124.686 42.388 125.19 42.388C125.67 42.388 126.082 42.28 126.426 42.064C126.778 41.84 127.034 41.52 127.194 41.104L127.386 41.692C127.226 42.108 126.946 42.44 126.546 42.688C126.154 42.936 125.658 43.06 125.058 43.06ZM132.352 43.06C131.76 43.06 131.304 42.9 130.984 42.58C130.664 42.26 130.504 41.808 130.504 41.224V35.308H131.356V41.176C131.356 41.544 131.448 41.828 131.632 42.028C131.824 42.228 132.096 42.328 132.448 42.328C132.824 42.328 133.136 42.22 133.384 42.004L133.684 42.616C133.516 42.768 133.312 42.88 133.072 42.952C132.84 43.024 132.6 43.06 132.352 43.06ZM129.376 37.408V36.7H133.276V37.408H129.376ZM135.235 43V36.7H136.087V43H135.235ZM135.667 35.308C135.491 35.308 135.343 35.248 135.223 35.128C135.103 35.008 135.043 34.864 135.043 34.696C135.043 34.528 135.103 34.388 135.223 34.276C135.343 34.156 135.491 34.096 135.667 34.096C135.843 34.096 135.991 34.152 136.111 34.264C136.231 34.376 136.291 34.516 136.291 34.684C136.291 34.86 136.231 35.008 136.111 35.128C135.999 35.248 135.851 35.308 135.667 35.308ZM141.026 43.06C140.418 43.06 139.87 42.924 139.382 42.652C138.902 42.372 138.522 41.992 138.242 41.512C137.962 41.024 137.822 40.468 137.822 39.844C137.822 39.212 137.962 38.656 138.242 38.176C138.522 37.696 138.902 37.32 139.382 37.048C139.862 36.776 140.41 36.64 141.026 36.64C141.65 36.64 142.202 36.776 142.682 37.048C143.17 37.32 143.55 37.696 143.822 38.176C144.102 38.656 144.242 39.212 144.242 39.844C144.242 40.468 144.102 41.024 143.822 41.512C143.55 41.992 143.17 42.372 142.682 42.652C142.194 42.924 141.642 43.06 141.026 43.06ZM141.026 42.304C141.482 42.304 141.886 42.204 142.238 42.004C142.59 41.796 142.866 41.508 143.066 41.14C143.274 40.764 143.378 40.332 143.378 39.844C143.378 39.348 143.274 38.916 143.066 38.548C142.866 38.18 142.59 37.896 142.238 37.696C141.886 37.488 141.486 37.384 141.038 37.384C140.59 37.384 140.19 37.488 139.838 37.696C139.486 37.896 139.206 38.18 138.998 38.548C138.79 38.916 138.686 39.348 138.686 39.844C138.686 40.332 138.79 40.764 138.998 41.14C139.206 41.508 139.486 41.796 139.838 42.004C140.19 42.204 140.586 42.304 141.026 42.304ZM149.197 36.64C149.709 36.64 150.157 36.74 150.541 36.94C150.933 37.132 151.237 37.428 151.453 37.828C151.677 38.228 151.789 38.732 151.789 39.34V43H150.937V39.424C150.937 38.76 150.769 38.26 150.433 37.924C150.105 37.58 149.641 37.408 149.041 37.408C148.593 37.408 148.201 37.5 147.865 37.684C147.537 37.86 147.281 38.12 147.097 38.464C146.921 38.8 146.833 39.208 146.833 39.688V43H145.981V36.7H146.797V38.428L146.665 38.104C146.865 37.648 147.185 37.292 147.625 37.036C148.065 36.772 148.589 36.64 149.197 36.64Z" fill="#084237"/>
<g filter="url(#filter1_d_248_354)">
<mask id="path-6-inside-2_248_354" fill="white">
<path fill-rule="evenodd" clip-rule="evenodd" d="M826.152 3.01544C825.439 1.76914 824.114 1 822.679 1H427.893C424.821 1 422.896 4.31793 424.42 6.98456L435.866 27.0154C436.569 28.2452 436.569 29.7548 435.866 30.9846L424.42 51.0154C422.896 53.6821 424.821 57 427.893 57H822.679C824.114 57 825.439 56.2309 826.152 54.9846L839.866 30.9846C840.569 29.7548 840.569 28.2452 839.866 27.0154L826.152 3.01544Z"/>
</mask>
<path fill-rule="evenodd" clip-rule="evenodd" d="M826.152 3.01544C825.439 1.76914 824.114 1 822.679 1H427.893C424.821 1 422.896 4.31793 424.42 6.98456L435.866 27.0154C436.569 28.2452 436.569 29.7548 435.866 30.9846L424.42 51.0154C422.896 53.6821 424.821 57 427.893 57H822.679C824.114 57 825.439 56.2309 826.152 54.9846L839.866 30.9846C840.569 29.7548 840.569 28.2452 839.866 27.0154L826.152 3.01544Z" fill="white"/>
<path d="M435.866 27.0154L434.998 27.5116L435.866 27.0154ZM435.866 30.9846L434.998 30.4884L435.866 30.9846ZM839.866 30.9846L840.734 31.4807V31.4807L839.866 30.9846ZM839.866 27.0154L840.734 26.5193V26.5193L839.866 27.0154ZM826.152 3.01544L827.02 2.51931L826.152 3.01544ZM826.152 54.9846L827.02 55.4807L826.152 54.9846ZM427.893 2H822.679V0H427.893V2ZM436.734 26.5193L425.288 6.48842L423.551 7.4807L434.998 27.5116L436.734 26.5193ZM436.734 31.4807C437.613 29.9435 437.613 28.0565 436.734 26.5193L434.998 27.5116C435.525 28.4339 435.525 29.5661 434.998 30.4884L436.734 31.4807ZM425.288 51.5116L436.734 31.4807L434.998 30.4884L423.551 50.5193L425.288 51.5116ZM822.679 56H427.893V58H822.679V56ZM838.998 30.4884L825.283 54.4884L827.02 55.4807L840.734 31.4807L838.998 30.4884ZM838.998 27.5116C839.525 28.4339 839.525 29.5661 838.998 30.4884L840.734 31.4807C841.612 29.9435 841.612 28.0565 840.734 26.5193L838.998 27.5116ZM825.283 3.51158L838.998 27.5116L840.734 26.5193L827.02 2.51931L825.283 3.51158ZM423.551 50.5193C421.647 53.8526 424.054 58 427.893 58V56C425.589 56 424.145 53.5115 425.288 51.5116L423.551 50.5193ZM822.679 2C823.755 2 824.749 2.57686 825.283 3.51158L827.02 2.51931C826.13 0.96143 824.473 0 822.679 0V2ZM822.679 58C824.473 58 826.13 57.0386 827.02 55.4807L825.283 54.4884C824.749 55.4231 823.755 56 822.679 56V58ZM427.893 0C424.054 0 421.647 4.14741 423.551 7.4807L425.288 6.48842C424.145 4.48845 425.589 2 427.893 2V0Z" fill="#555555" mask="url(#path-6-inside-2_248_354)"/>
</g>
<path d="M457.326 26.112C456.579 26.112 455.865 26 455.184 25.776C454.503 25.5427 453.966 25.244 453.574 24.88L454.092 23.788C454.465 24.1147 454.941 24.3853 455.52 24.6C456.099 24.8147 456.701 24.922 457.326 24.922C457.895 24.922 458.357 24.8567 458.712 24.726C459.067 24.5953 459.328 24.418 459.496 24.194C459.664 23.9607 459.748 23.6993 459.748 23.41C459.748 23.074 459.636 22.8033 459.412 22.598C459.197 22.3927 458.913 22.2293 458.558 22.108C458.213 21.9773 457.83 21.8653 457.41 21.772C456.99 21.6787 456.565 21.5713 456.136 21.45C455.716 21.3193 455.329 21.156 454.974 20.96C454.629 20.764 454.349 20.5027 454.134 20.176C453.919 19.84 453.812 19.4107 453.812 18.888C453.812 18.384 453.943 17.922 454.204 17.502C454.475 17.0727 454.885 16.732 455.436 16.48C455.996 16.2187 456.705 16.088 457.564 16.088C458.133 16.088 458.698 16.1627 459.258 16.312C459.818 16.4613 460.303 16.676 460.714 16.956L460.252 18.076C459.832 17.796 459.389 17.5953 458.922 17.474C458.455 17.3433 458.003 17.278 457.564 17.278C457.013 17.278 456.561 17.348 456.206 17.488C455.851 17.628 455.59 17.8147 455.422 18.048C455.263 18.2813 455.184 18.5427 455.184 18.832C455.184 19.1773 455.291 19.4527 455.506 19.658C455.73 19.8633 456.015 20.0267 456.36 20.148C456.715 20.2693 457.102 20.3813 457.522 20.484C457.942 20.5773 458.362 20.6847 458.782 20.806C459.211 20.9273 459.599 21.086 459.944 21.282C460.299 21.478 460.583 21.7393 460.798 22.066C461.013 22.3927 461.12 22.8127 461.12 23.326C461.12 23.8207 460.985 24.2827 460.714 24.712C460.443 25.132 460.023 25.4727 459.454 25.734C458.894 25.986 458.185 26.112 457.326 26.112ZM465.517 26.084C464.771 26.084 464.192 25.8833 463.781 25.482C463.371 25.0807 463.165 24.5067 463.165 23.76V16.956H464.509V23.704C464.509 24.1053 464.607 24.4133 464.803 24.628C465.009 24.8427 465.298 24.95 465.671 24.95C466.091 24.95 466.441 24.8333 466.721 24.6L467.141 25.566C466.936 25.7433 466.689 25.874 466.399 25.958C466.119 26.042 465.825 26.084 465.517 26.084ZM461.905 19.686V18.58H466.637V19.686H461.905ZM471.824 26.084C471.031 26.084 470.331 25.9207 469.724 25.594C469.127 25.2673 468.66 24.8193 468.324 24.25C467.997 23.6807 467.834 23.0273 467.834 22.29C467.834 21.5527 467.993 20.8993 468.31 20.33C468.637 19.7607 469.08 19.3173 469.64 19C470.209 18.6733 470.849 18.51 471.558 18.51C472.277 18.51 472.911 18.6687 473.462 18.986C474.013 19.3033 474.442 19.7513 474.75 20.33C475.067 20.8993 475.226 21.5667 475.226 22.332C475.226 22.388 475.221 22.4533 475.212 22.528C475.212 22.6027 475.207 22.6727 475.198 22.738H468.884V21.772H474.498L473.952 22.108C473.961 21.632 473.863 21.2073 473.658 20.834C473.453 20.4607 473.168 20.1713 472.804 19.966C472.449 19.7513 472.034 19.644 471.558 19.644C471.091 19.644 470.676 19.7513 470.312 19.966C469.948 20.1713 469.663 20.4653 469.458 20.848C469.253 21.2213 469.15 21.6507 469.15 22.136V22.36C469.15 22.8547 469.262 23.298 469.486 23.69C469.719 24.0727 470.041 24.3713 470.452 24.586C470.863 24.8007 471.334 24.908 471.866 24.908C472.305 24.908 472.701 24.8333 473.056 24.684C473.42 24.5347 473.737 24.3107 474.008 24.012L474.75 24.88C474.414 25.272 473.994 25.5707 473.49 25.776C472.995 25.9813 472.44 26.084 471.824 26.084ZM481.026 26.084C480.41 26.084 479.846 25.944 479.332 25.664C478.828 25.3747 478.422 24.95 478.114 24.39C477.816 23.83 477.666 23.13 477.666 22.29C477.666 21.45 477.811 20.75 478.1 20.19C478.399 19.63 478.8 19.21 479.304 18.93C479.818 18.65 480.392 18.51 481.026 18.51C481.754 18.51 482.398 18.6687 482.958 18.986C483.518 19.3033 483.962 19.7467 484.288 20.316C484.615 20.876 484.778 21.534 484.778 22.29C484.778 23.046 484.615 23.7087 484.288 24.278C483.962 24.8473 483.518 25.2907 482.958 25.608C482.398 25.9253 481.754 26.084 481.026 26.084ZM477.092 28.716V18.58H478.38V20.582L478.296 22.304L478.436 24.026V28.716H477.092ZM480.914 24.908C481.39 24.908 481.815 24.8007 482.188 24.586C482.571 24.3713 482.87 24.068 483.084 23.676C483.308 23.2747 483.42 22.8127 483.42 22.29C483.42 21.758 483.308 21.3007 483.084 20.918C482.87 20.526 482.571 20.2227 482.188 20.008C481.815 19.7933 481.39 19.686 480.914 19.686C480.448 19.686 480.023 19.7933 479.64 20.008C479.267 20.2227 478.968 20.526 478.744 20.918C478.53 21.3007 478.422 21.758 478.422 22.29C478.422 22.8127 478.53 23.2747 478.744 23.676C478.968 24.068 479.267 24.3713 479.64 24.586C480.023 24.8007 480.448 24.908 480.914 24.908ZM489.639 26V25.048L493.629 21.198C493.984 20.862 494.245 20.568 494.413 20.316C494.59 20.0547 494.707 19.8167 494.763 19.602C494.828 19.378 494.861 19.1633 494.861 18.958C494.861 18.454 494.684 18.0573 494.329 17.768C493.974 17.4787 493.456 17.334 492.775 17.334C492.252 17.334 491.781 17.4227 491.361 17.6C490.941 17.768 490.577 18.034 490.269 18.398L489.317 17.572C489.69 17.096 490.19 16.732 490.815 16.48C491.45 16.2187 492.145 16.088 492.901 16.088C493.582 16.088 494.175 16.2 494.679 16.424C495.183 16.6387 495.57 16.9513 495.841 17.362C496.121 17.7727 496.261 18.258 496.261 18.818C496.261 19.1353 496.219 19.448 496.135 19.756C496.051 20.064 495.892 20.3907 495.659 20.736C495.426 21.0813 495.09 21.4687 494.651 21.898L491.095 25.328L490.759 24.782H496.681V26H489.639Z" fill="black"/>
<path d="M456.684 43.072C456.06 43.072 455.46 42.972 454.884 42.772C454.316 42.564 453.876 42.3 453.564 41.98L453.912 41.296C454.208 41.584 454.604 41.828 455.1 42.028C455.604 42.22 456.132 42.316 456.684 42.316C457.212 42.316 457.64 42.252 457.968 42.124C458.304 41.988 458.548 41.808 458.7 41.584C458.86 41.36 458.94 41.112 458.94 40.84C458.94 40.512 458.844 40.248 458.652 40.048C458.468 39.848 458.224 39.692 457.92 39.58C457.616 39.46 457.28 39.356 456.912 39.268C456.544 39.18 456.176 39.088 455.808 38.992C455.44 38.888 455.1 38.752 454.788 38.584C454.484 38.416 454.236 38.196 454.044 37.924C453.86 37.644 453.768 37.28 453.768 36.832C453.768 36.416 453.876 36.036 454.092 35.692C454.316 35.34 454.656 35.06 455.112 34.852C455.568 34.636 456.152 34.528 456.864 34.528C457.336 34.528 457.804 34.596 458.268 34.732C458.732 34.86 459.132 35.04 459.468 35.272L459.168 35.98C458.808 35.74 458.424 35.564 458.016 35.452C457.616 35.34 457.228 35.284 456.852 35.284C456.348 35.284 455.932 35.352 455.604 35.488C455.276 35.624 455.032 35.808 454.872 36.04C454.72 36.264 454.644 36.52 454.644 36.808C454.644 37.136 454.736 37.4 454.92 37.6C455.112 37.8 455.36 37.956 455.664 38.068C455.976 38.18 456.316 38.28 456.684 38.368C457.052 38.456 457.416 38.552 457.776 38.656C458.144 38.76 458.48 38.896 458.784 39.064C459.096 39.224 459.344 39.44 459.528 39.712C459.72 39.984 459.816 40.34 459.816 40.78C459.816 41.188 459.704 41.568 459.48 41.92C459.256 42.264 458.912 42.544 458.448 42.76C457.992 42.968 457.404 43.072 456.684 43.072ZM464.187 43.06C463.563 43.06 463.003 42.924 462.507 42.652C462.019 42.372 461.635 41.992 461.355 41.512C461.075 41.024 460.935 40.468 460.935 39.844C460.935 39.212 461.075 38.656 461.355 38.176C461.635 37.696 462.019 37.32 462.507 37.048C463.003 36.776 463.563 36.64 464.187 36.64C464.723 36.64 465.207 36.744 465.639 36.952C466.071 37.16 466.411 37.472 466.659 37.888L466.023 38.32C465.807 38 465.539 37.764 465.219 37.612C464.899 37.46 464.551 37.384 464.175 37.384C463.727 37.384 463.323 37.488 462.963 37.696C462.603 37.896 462.319 38.18 462.111 38.548C461.903 38.916 461.799 39.348 461.799 39.844C461.799 40.34 461.903 40.772 462.111 41.14C462.319 41.508 462.603 41.796 462.963 42.004C463.323 42.204 463.727 42.304 464.175 42.304C464.551 42.304 464.899 42.228 465.219 42.076C465.539 41.924 465.807 41.692 466.023 41.38L466.659 41.812C466.411 42.22 466.071 42.532 465.639 42.748C465.207 42.956 464.723 43.06 464.187 43.06ZM471.455 36.64C471.967 36.64 472.415 36.74 472.799 36.94C473.191 37.132 473.495 37.428 473.711 37.828C473.935 38.228 474.047 38.732 474.047 39.34V43H473.195V39.424C473.195 38.76 473.027 38.26 472.691 37.924C472.363 37.58 471.899 37.408 471.299 37.408C470.851 37.408 470.459 37.5 470.123 37.684C469.795 37.86 469.539 38.12 469.355 38.464C469.179 38.8 469.091 39.208 469.091 39.688V43H468.239V34.096H469.091V38.428L468.923 38.104C469.123 37.648 469.443 37.292 469.883 37.036C470.323 36.772 470.847 36.64 471.455 36.64ZM479.024 43.06C478.368 43.06 477.792 42.924 477.296 42.652C476.8 42.372 476.412 41.992 476.132 41.512C475.852 41.024 475.712 40.468 475.712 39.844C475.712 39.22 475.844 38.668 476.108 38.188C476.38 37.708 476.748 37.332 477.212 37.06C477.684 36.78 478.212 36.64 478.796 36.64C479.388 36.64 479.912 36.776 480.368 37.048C480.832 37.312 481.196 37.688 481.46 38.176C481.724 38.656 481.856 39.212 481.856 39.844C481.856 39.884 481.852 39.928 481.844 39.976C481.844 40.016 481.844 40.06 481.844 40.108H476.36V39.472H481.388L481.052 39.724C481.052 39.268 480.952 38.864 480.752 38.512C480.56 38.152 480.296 37.872 479.96 37.672C479.624 37.472 479.236 37.372 478.796 37.372C478.364 37.372 477.976 37.472 477.632 37.672C477.288 37.872 477.02 38.152 476.828 38.512C476.636 38.872 476.54 39.284 476.54 39.748V39.88C476.54 40.36 476.644 40.784 476.852 41.152C477.068 41.512 477.364 41.796 477.74 42.004C478.124 42.204 478.56 42.304 479.048 42.304C479.432 42.304 479.788 42.236 480.116 42.1C480.452 41.964 480.74 41.756 480.98 41.476L481.46 42.028C481.18 42.364 480.828 42.62 480.404 42.796C479.988 42.972 479.528 43.06 479.024 43.06ZM486.098 43.06C485.498 43.06 484.958 42.924 484.478 42.652C484.006 42.38 483.634 42.004 483.362 41.524C483.09 41.036 482.954 40.476 482.954 39.844C482.954 39.204 483.09 38.644 483.362 38.164C483.634 37.684 484.006 37.312 484.478 37.048C484.958 36.776 485.498 36.64 486.098 36.64C486.65 36.64 487.142 36.764 487.574 37.012C488.014 37.26 488.362 37.624 488.618 38.104C488.882 38.576 489.014 39.156 489.014 39.844C489.014 40.524 488.886 41.104 488.63 41.584C488.374 42.064 488.026 42.432 487.586 42.688C487.154 42.936 486.658 43.06 486.098 43.06ZM486.158 42.304C486.606 42.304 487.006 42.204 487.358 42.004C487.718 41.796 487.998 41.508 488.198 41.14C488.406 40.764 488.51 40.332 488.51 39.844C488.51 39.348 488.406 38.916 488.198 38.548C487.998 38.18 487.718 37.896 487.358 37.696C487.006 37.488 486.606 37.384 486.158 37.384C485.718 37.384 485.322 37.488 484.97 37.696C484.618 37.896 484.338 38.18 484.13 38.548C483.922 38.916 483.818 39.348 483.818 39.844C483.818 40.332 483.922 40.764 484.13 41.14C484.338 41.508 484.618 41.796 484.97 42.004C485.322 42.204 485.718 42.304 486.158 42.304ZM488.534 43V41.104L488.618 39.832L488.498 38.56V34.096H489.35V43H488.534ZM494.327 43.06C493.791 43.06 493.323 42.96 492.923 42.76C492.523 42.56 492.211 42.26 491.987 41.86C491.771 41.46 491.663 40.96 491.663 40.36V36.7H492.515V40.264C492.515 40.936 492.679 41.444 493.007 41.788C493.343 42.124 493.811 42.292 494.411 42.292C494.851 42.292 495.231 42.204 495.551 42.028C495.879 41.844 496.127 41.58 496.295 41.236C496.471 40.892 496.559 40.48 496.559 40V36.7H497.411V43H496.595V41.272L496.727 41.584C496.527 42.048 496.215 42.412 495.791 42.676C495.375 42.932 494.887 43.06 494.327 43.06ZM499.786 43V34.096H500.638V43H499.786ZM505.684 43.06C505.028 43.06 504.452 42.924 503.956 42.652C503.46 42.372 503.072 41.992 502.792 41.512C502.512 41.024 502.372 40.468 502.372 39.844C502.372 39.22 502.504 38.668 502.768 38.188C503.04 37.708 503.408 37.332 503.872 37.06C504.344 36.78 504.872 36.64 505.456 36.64C506.048 36.64 506.572 36.776 507.028 37.048C507.492 37.312 507.856 37.688 508.12 38.176C508.384 38.656 508.516 39.212 508.516 39.844C508.516 39.884 508.512 39.928 508.504 39.976C508.504 40.016 508.504 40.06 508.504 40.108H503.02V39.472H508.048L507.712 39.724C507.712 39.268 507.612 38.864 507.412 38.512C507.22 38.152 506.956 37.872 506.62 37.672C506.284 37.472 505.896 37.372 505.456 37.372C505.024 37.372 504.636 37.472 504.292 37.672C503.948 37.872 503.68 38.152 503.488 38.512C503.296 38.872 503.2 39.284 503.2 39.748V39.88C503.2 40.36 503.304 40.784 503.512 41.152C503.728 41.512 504.024 41.796 504.4 42.004C504.784 42.204 505.22 42.304 505.708 42.304C506.092 42.304 506.448 42.236 506.776 42.1C507.112 41.964 507.4 41.756 507.64 41.476L508.12 42.028C507.84 42.364 507.488 42.62 507.064 42.796C506.648 42.972 506.188 43.06 505.684 43.06ZM513.439 45.388C513.143 45.388 512.859 45.34 512.587 45.244C512.323 45.148 512.095 45.004 511.903 44.812L512.299 44.176C512.459 44.328 512.631 44.444 512.815 44.524C513.007 44.612 513.219 44.656 513.451 44.656C513.731 44.656 513.971 44.576 514.171 44.416C514.379 44.264 514.575 43.992 514.759 43.6L515.167 42.676L515.263 42.544L517.855 36.7H518.695L515.539 43.756C515.363 44.164 515.167 44.488 514.951 44.728C514.743 44.968 514.515 45.136 514.267 45.232C514.019 45.336 513.743 45.388 513.439 45.388ZM515.119 43.18L512.215 36.7H513.103L515.671 42.484L515.119 43.18ZM522.287 43.06C521.679 43.06 521.131 42.924 520.643 42.652C520.163 42.372 519.783 41.992 519.503 41.512C519.223 41.024 519.083 40.468 519.083 39.844C519.083 39.212 519.223 38.656 519.503 38.176C519.783 37.696 520.163 37.32 520.643 37.048C521.123 36.776 521.671 36.64 522.287 36.64C522.911 36.64 523.463 36.776 523.943 37.048C524.431 37.32 524.811 37.696 525.083 38.176C525.363 38.656 525.503 39.212 525.503 39.844C525.503 40.468 525.363 41.024 525.083 41.512C524.811 41.992 524.431 42.372 523.943 42.652C523.455 42.924 522.903 43.06 522.287 43.06ZM522.287 42.304C522.743 42.304 523.147 42.204 523.499 42.004C523.851 41.796 524.127 41.508 524.327 41.14C524.535 40.764 524.639 40.332 524.639 39.844C524.639 39.348 524.535 38.916 524.327 38.548C524.127 38.18 523.851 37.896 523.499 37.696C523.147 37.488 522.747 37.384 522.299 37.384C521.851 37.384 521.451 37.488 521.099 37.696C520.747 37.896 520.467 38.18 520.259 38.548C520.051 38.916 519.947 39.348 519.947 39.844C519.947 40.332 520.051 40.764 520.259 41.14C520.467 41.508 520.747 41.796 521.099 42.004C521.451 42.204 521.847 42.304 522.287 42.304ZM529.847 43.06C529.311 43.06 528.843 42.96 528.443 42.76C528.043 42.56 527.731 42.26 527.507 41.86C527.291 41.46 527.183 40.96 527.183 40.36V36.7H528.035V40.264C528.035 40.936 528.199 41.444 528.527 41.788C528.863 42.124 529.331 42.292 529.931 42.292C530.371 42.292 530.751 42.204 531.071 42.028C531.399 41.844 531.647 41.58 531.815 41.236C531.991 40.892 532.079 40.48 532.079 40V36.7H532.931V43H532.115V41.272L532.247 41.584C532.047 42.048 531.735 42.412 531.311 42.676C530.895 42.932 530.407 43.06 529.847 43.06ZM535.305 43V36.7H536.121V38.416L536.037 38.116C536.213 37.636 536.509 37.272 536.925 37.024C537.341 36.768 537.857 36.64 538.473 36.64V37.468C538.441 37.468 538.409 37.468 538.377 37.468C538.345 37.46 538.313 37.456 538.281 37.456C537.617 37.456 537.097 37.66 536.721 38.068C536.345 38.468 536.157 39.04 536.157 39.784V43H535.305ZM544.882 43L542.086 36.7H542.974L545.542 42.544H545.122L547.726 36.7H548.566L545.758 43H544.882ZM549.766 43V36.7H550.618V43H549.766ZM550.198 35.308C550.022 35.308 549.874 35.248 549.754 35.128C549.634 35.008 549.574 34.864 549.574 34.696C549.574 34.528 549.634 34.388 549.754 34.276C549.874 34.156 550.022 34.096 550.198 34.096C550.374 34.096 550.522 34.152 550.642 34.264C550.762 34.376 550.822 34.516 550.822 34.684C550.822 34.86 550.762 35.008 550.642 35.128C550.53 35.248 550.382 35.308 550.198 35.308ZM554.681 43.06C554.161 43.06 553.669 42.988 553.205 42.844C552.741 42.692 552.377 42.504 552.113 42.28L552.497 41.608C552.753 41.8 553.081 41.968 553.481 42.112C553.881 42.248 554.301 42.316 554.741 42.316C555.341 42.316 555.773 42.224 556.037 42.04C556.301 41.848 556.433 41.596 556.433 41.284C556.433 41.052 556.357 40.872 556.205 40.744C556.061 40.608 555.869 40.508 555.629 40.444C555.389 40.372 555.121 40.312 554.825 40.264C554.529 40.216 554.233 40.16 553.937 40.096C553.649 40.032 553.385 39.94 553.145 39.82C552.905 39.692 552.709 39.52 552.557 39.304C552.413 39.088 552.341 38.8 552.341 38.44C552.341 38.096 552.437 37.788 552.629 37.516C552.821 37.244 553.101 37.032 553.469 36.88C553.845 36.72 554.301 36.64 554.837 36.64C555.245 36.64 555.653 36.696 556.061 36.808C556.469 36.912 556.805 37.052 557.069 37.228L556.697 37.912C556.417 37.72 556.117 37.584 555.797 37.504C555.477 37.416 555.157 37.372 554.837 37.372C554.269 37.372 553.849 37.472 553.577 37.672C553.313 37.864 553.181 38.112 553.181 38.416C553.181 38.656 553.253 38.844 553.397 38.98C553.549 39.116 553.745 39.224 553.985 39.304C554.233 39.376 554.501 39.436 554.789 39.484C555.085 39.532 555.377 39.592 555.665 39.664C555.961 39.728 556.229 39.82 556.469 39.94C556.717 40.052 556.913 40.216 557.057 40.432C557.209 40.64 557.285 40.916 557.285 41.26C557.285 41.628 557.181 41.948 556.973 42.22C556.773 42.484 556.477 42.692 556.085 42.844C555.701 42.988 555.233 43.06 554.681 43.06ZM558.848 43V36.7H559.7V43H558.848ZM559.28 35.308C559.104 35.308 558.956 35.248 558.836 35.128C558.716 35.008 558.656 34.864 558.656 34.696C558.656 34.528 558.716 34.388 558.836 34.276C558.956 34.156 559.104 34.096 559.28 34.096C559.456 34.096 559.604 34.152 559.724 34.264C559.844 34.376 559.904 34.516 559.904 34.684C559.904 34.86 559.844 35.008 559.724 35.128C559.612 35.248 559.464 35.308 559.28 35.308ZM564.063 43.06C563.471 43.06 563.015 42.9 562.695 42.58C562.375 42.26 562.215 41.808 562.215 41.224V35.308H563.067V41.176C563.067 41.544 563.159 41.828 563.343 42.028C563.535 42.228 563.807 42.328 564.159 42.328C564.535 42.328 564.847 42.22 565.095 42.004L565.395 42.616C565.227 42.768 565.023 42.88 564.783 42.952C564.551 43.024 564.311 43.06 564.063 43.06ZM561.087 37.408V36.7H564.987V37.408H561.087Z" fill="black"/>
<defs>
<filter id="filter0_d_248_354" x="0" y="0" width="423.393" height="60" filterUnits="userSpaceOnUse" color-interpolation-filters="sRGB">
<feFlood flood-opacity="0" result="BackgroundImageFix"/>
<feColorMatrix in="SourceAlpha" type="matrix" values="0 0 0 0 0 0 0 0 0 0 0 0 0 0 0 0 0 0 127 0" result="hardAlpha"/>
<feOffset dy="1"/>
<feGaussianBlur stdDeviation="1"/>
<feColorMatrix type="matrix" values="0 0 0 0 0.215686 0 0 0 0 0.254902 0 0 0 0 0.317647 0 0 0 0.08 0"/>
<feBlend mode="normal" in2="BackgroundImageFix" result="effect1_dropShadow_248_354"/>
<feBlend mode="normal" in="SourceGraphic" in2="effect1_dropShadow_248_354" result="shape"/>
</filter>
<filter id="filter1_d_248_354" x="421.887" y="0" width="420.506" height="60" filterUnits="userSpaceOnUse" color-interpolation-filters="sRGB">
<feFlood flood-opacity="0" result="BackgroundImageFix"/>
<feColorMatrix in="SourceAlpha" type="matrix" values="0 0 0 0 0 0 0 0 0 0 0 0 0 0 0 0 0 0 127 0" result="hardAlpha"/>
<feOffset dy="1"/>
<feGaussianBlur stdDeviation="1"/>
<feColorMatrix type="matrix" values="0 0 0 0 0.215686 0 0 0 0 0.254902 0 0 0 0 0.317647 0 0 0 0.08 0"/>
<feBlend mode="normal" in2="BackgroundImageFix" result="effect1_dropShadow_248_354"/>
<feBlend mode="normal" in="SourceGraphic" in2="effect1_dropShadow_248_354" result="shape"/>
</filter>
</defs>
</svg>
