<svg width="318" height="55" viewBox="0 0 318 55" fill="none" xmlns="http://www.w3.org/2000/svg">
<g filter="url(#filter0_d_300_155)">
<mask id="path-2-inside-1_300_155" fill="white">
<path fill-rule="evenodd" clip-rule="evenodd" d="M2 3.12459C2 1.95121 2.95121 1 4.12459 1H141.296C142.175 1 142.963 1.54065 143.279 2.36031L150.958 22.2783C151.147 22.7702 151.147 23.315 150.958 23.8069L143.279 43.7249C142.963 44.5446 142.175 45.0852 141.296 45.0852H4.12459C2.95121 45.0852 2 44.134 2 42.9607V3.12459Z"/>
</mask>
<path fill-rule="evenodd" clip-rule="evenodd" d="M2 3.12459C2 1.95121 2.95121 1 4.12459 1H141.296C142.175 1 142.963 1.54065 143.279 2.36031L150.958 22.2783C151.147 22.7702 151.147 23.315 150.958 23.8069L143.279 43.7249C142.963 44.5446 142.175 45.0852 141.296 45.0852H4.12459C2.95121 45.0852 2 44.134 2 42.9607V3.12459Z" fill="#A5D696" fill-opacity="0.4"/>
<path d="M150.958 22.2783L151.453 22.0873V22.0873L150.958 22.2783ZM150.958 23.8069L150.462 23.6158V23.6158L150.958 23.8069ZM143.279 43.7249L142.783 43.5339L143.279 43.7249ZM143.279 2.36031L142.783 2.55138L143.279 2.36031ZM141.296 0.468852H4.12459V1.53115H141.296V0.468852ZM142.783 2.55138L150.462 22.4694L151.453 22.0873L143.774 2.16923L142.783 2.55138ZM150.462 22.4694C150.604 22.8383 150.604 23.2469 150.462 23.6158L151.453 23.998C151.69 23.3831 151.69 22.7021 151.453 22.0873L150.462 22.4694ZM150.462 23.6158L142.783 43.5339L143.774 43.916L151.453 23.998L150.462 23.6158ZM4.12459 45.6164H141.296V44.5541H4.12459V45.6164ZM1.46885 3.12459V42.9607H2.53115V3.12459H1.46885ZM142.783 43.5339C142.546 44.1486 141.955 44.5541 141.296 44.5541V45.6164C142.394 45.6164 143.379 44.9406 143.774 43.916L142.783 43.5339ZM4.12459 0.468852C2.65787 0.468852 1.46885 1.65787 1.46885 3.12459H2.53115C2.53115 2.24456 3.24456 1.53115 4.12459 1.53115V0.468852ZM4.12459 44.5541C3.24456 44.5541 2.53115 43.8407 2.53115 42.9607H1.46885C1.46885 44.4274 2.65787 45.6164 4.12459 45.6164V44.5541ZM141.296 1.53115C141.955 1.53115 142.546 1.93663 142.783 2.55138L143.774 2.16923C143.379 1.14466 142.394 0.468852 141.296 0.468852V1.53115Z" fill="#555555" mask="url(#path-2-inside-1_300_155)"/>
</g>
<path d="M17.8371 19.357C17.3037 19.357 16.7937 19.277 16.3071 19.117C15.8204 18.9504 15.4371 18.737 15.1571 18.477L15.5271 17.697C15.7937 17.9304 16.1337 18.1237 16.5471 18.277C16.9604 18.4304 17.3904 18.507 17.8371 18.507C18.2437 18.507 18.5737 18.4604 18.8271 18.367C19.0804 18.2737 19.2671 18.147 19.3871 17.987C19.5071 17.8204 19.5671 17.6337 19.5671 17.427C19.5671 17.187 19.4871 16.9937 19.3271 16.847C19.1737 16.7004 18.9704 16.5837 18.7171 16.497C18.4704 16.4037 18.1971 16.3237 17.8971 16.257C17.5971 16.1904 17.2937 16.1137 16.9871 16.027C16.6871 15.9337 16.4104 15.817 16.1571 15.677C15.9104 15.537 15.7104 15.3504 15.5571 15.117C15.4037 14.877 15.3271 14.5704 15.3271 14.197C15.3271 13.837 15.4204 13.507 15.6071 13.207C15.8004 12.9004 16.0937 12.657 16.4871 12.477C16.8871 12.2904 17.3937 12.197 18.0071 12.197C18.4137 12.197 18.8171 12.2504 19.2171 12.357C19.6171 12.4637 19.9637 12.617 20.2571 12.817L19.9271 13.617C19.6271 13.417 19.3104 13.2737 18.9771 13.187C18.6437 13.0937 18.3204 13.047 18.0071 13.047C17.6137 13.047 17.2904 13.097 17.0371 13.197C16.7837 13.297 16.5971 13.4304 16.4771 13.597C16.3637 13.7637 16.3071 13.9504 16.3071 14.157C16.3071 14.4037 16.3837 14.6004 16.5371 14.747C16.6971 14.8937 16.9004 15.0104 17.1471 15.097C17.4004 15.1837 17.6771 15.2637 17.9771 15.337C18.2771 15.4037 18.5771 15.4804 18.8771 15.567C19.1837 15.6537 19.4604 15.767 19.7071 15.907C19.9604 16.047 20.1637 16.2337 20.3171 16.467C20.4704 16.7004 20.5471 17.0004 20.5471 17.367C20.5471 17.7204 20.4504 18.0504 20.2571 18.357C20.0637 18.657 19.7637 18.9004 19.3571 19.087C18.9571 19.267 18.4504 19.357 17.8371 19.357ZM23.688 19.337C23.1547 19.337 22.7413 19.1937 22.448 18.907C22.1547 18.6204 22.008 18.2104 22.008 17.677V12.817H22.968V17.637C22.968 17.9237 23.038 18.1437 23.178 18.297C23.3247 18.4504 23.5313 18.527 23.798 18.527C24.098 18.527 24.348 18.4437 24.548 18.277L24.848 18.967C24.7013 19.0937 24.5247 19.187 24.318 19.247C24.118 19.307 23.908 19.337 23.688 19.337ZM21.108 14.767V13.977H24.488V14.767H21.108ZM28.1929 19.337C27.6262 19.337 27.1262 19.2204 26.6929 18.987C26.2662 18.7537 25.9329 18.4337 25.6929 18.027C25.4595 17.6204 25.3429 17.1537 25.3429 16.627C25.3429 16.1004 25.4562 15.6337 25.6829 15.227C25.9162 14.8204 26.2329 14.5037 26.6329 14.277C27.0395 14.0437 27.4962 13.927 28.0029 13.927C28.5162 13.927 28.9695 14.0404 29.3629 14.267C29.7562 14.4937 30.0629 14.8137 30.2829 15.227C30.5095 15.6337 30.6229 16.1104 30.6229 16.657C30.6229 16.697 30.6195 16.7437 30.6129 16.797C30.6129 16.8504 30.6095 16.9004 30.6029 16.947H26.0929V16.257H30.1029L29.7129 16.497C29.7195 16.157 29.6495 15.8537 29.5029 15.587C29.3562 15.3204 29.1529 15.1137 28.8929 14.967C28.6395 14.8137 28.3429 14.737 28.0029 14.737C27.6695 14.737 27.3729 14.8137 27.1129 14.967C26.8529 15.1137 26.6495 15.3237 26.5029 15.597C26.3562 15.8637 26.2829 16.1704 26.2829 16.517V16.677C26.2829 17.0304 26.3629 17.347 26.5229 17.627C26.6895 17.9004 26.9195 18.1137 27.2129 18.267C27.5062 18.4204 27.8429 18.497 28.2229 18.497C28.5362 18.497 28.8195 18.4437 29.0729 18.337C29.3329 18.2304 29.5595 18.0704 29.7529 17.857L30.2829 18.477C30.0429 18.757 29.7429 18.9704 29.3829 19.117C29.0295 19.2637 28.6329 19.337 28.1929 19.337ZM34.7659 19.337C34.3259 19.337 33.9226 19.237 33.5559 19.037C33.1959 18.8304 32.9059 18.527 32.6859 18.127C32.4726 17.727 32.3659 17.227 32.3659 16.627C32.3659 16.027 32.4692 15.527 32.6759 15.127C32.8892 14.727 33.1759 14.427 33.5359 14.227C33.9026 14.027 34.3126 13.927 34.7659 13.927C35.2859 13.927 35.7459 14.0404 36.1459 14.267C36.5459 14.4937 36.8626 14.8104 37.0959 15.217C37.3292 15.617 37.4459 16.087 37.4459 16.627C37.4459 17.167 37.3292 17.6404 37.0959 18.047C36.8626 18.4537 36.5459 18.7704 36.1459 18.997C35.7459 19.2237 35.2859 19.337 34.7659 19.337ZM31.9559 21.217V13.977H32.8759V15.407L32.8159 16.637L32.9159 17.867V21.217H31.9559ZM34.6859 18.497C35.0259 18.497 35.3292 18.4204 35.5959 18.267C35.8692 18.1137 36.0826 17.897 36.2359 17.617C36.3959 17.3304 36.4759 17.0004 36.4759 16.627C36.4759 16.247 36.3959 15.9204 36.2359 15.647C36.0826 15.367 35.8692 15.1504 35.5959 14.997C35.3292 14.8437 35.0259 14.767 34.6859 14.767C34.3526 14.767 34.0492 14.8437 33.7759 14.997C33.5092 15.1504 33.2959 15.367 33.1359 15.647C32.9826 15.9204 32.9059 16.247 32.9059 16.627C32.9059 17.0004 32.9826 17.3304 33.1359 17.617C33.2959 17.897 33.5092 18.1137 33.7759 18.267C34.0492 18.4204 34.3526 18.497 34.6859 18.497ZM42.2079 19.277V12.677L42.6379 13.147H40.6279V12.277H43.1979V19.277H42.2079Z" fill="#084237"/>
<path d="M15.8871 34.277V27.277H18.5071C19.1004 27.277 19.6104 27.3737 20.0371 27.567C20.4637 27.7537 20.7904 28.027 21.0171 28.387C21.2504 28.7404 21.3671 29.1704 21.3671 29.677C21.3671 30.1704 21.2504 30.597 21.0171 30.957C20.7904 31.3104 20.4637 31.5837 20.0371 31.777C19.6104 31.9704 19.1004 32.067 18.5071 32.067H16.2971L16.6271 31.717V34.277H15.8871ZM16.6271 31.777L16.2971 31.417H18.4871C19.1871 31.417 19.7171 31.267 20.0771 30.967C20.4437 30.6604 20.6271 30.2304 20.6271 29.677C20.6271 29.117 20.4437 28.6837 20.0771 28.377C19.7171 28.0704 19.1871 27.917 18.4871 27.917H16.2971L16.6271 27.567V31.777ZM25.0179 34.327C24.4712 34.327 23.9912 34.2137 23.5779 33.987C23.1645 33.7537 22.8412 33.437 22.6079 33.037C22.3745 32.6304 22.2579 32.167 22.2579 31.647C22.2579 31.127 22.3679 30.667 22.5879 30.267C22.8145 29.867 23.1212 29.5537 23.5079 29.327C23.9012 29.0937 24.3412 28.977 24.8279 28.977C25.3212 28.977 25.7579 29.0904 26.1379 29.317C26.5245 29.537 26.8279 29.8504 27.0479 30.257C27.2679 30.657 27.3779 31.1204 27.3779 31.647C27.3779 31.6804 27.3745 31.717 27.3679 31.757C27.3679 31.7904 27.3679 31.827 27.3679 31.867H22.7979V31.337H26.9879L26.7079 31.547C26.7079 31.167 26.6245 30.8304 26.4579 30.537C26.2979 30.237 26.0779 30.0037 25.7979 29.837C25.5179 29.6704 25.1945 29.587 24.8279 29.587C24.4679 29.587 24.1445 29.6704 23.8579 29.837C23.5712 30.0037 23.3479 30.237 23.1879 30.537C23.0279 30.837 22.9479 31.1804 22.9479 31.567V31.677C22.9479 32.077 23.0345 32.4304 23.2079 32.737C23.3879 33.037 23.6345 33.2737 23.9479 33.447C24.2679 33.6137 24.6312 33.697 25.0379 33.697C25.3579 33.697 25.6545 33.6404 25.9279 33.527C26.2079 33.4137 26.4479 33.2404 26.6479 33.007L27.0479 33.467C26.8145 33.747 26.5212 33.9604 26.1679 34.107C25.8212 34.2537 25.4379 34.327 25.0179 34.327ZM28.823 34.277V29.027H29.503V30.457L29.433 30.207C29.5797 29.807 29.8263 29.5037 30.173 29.297C30.5197 29.0837 30.9497 28.977 31.463 28.977V29.667C31.4363 29.667 31.4097 29.667 31.383 29.667C31.3563 29.6604 31.3297 29.657 31.303 29.657C30.7497 29.657 30.3163 29.827 30.003 30.167C29.6897 30.5004 29.533 30.977 29.533 31.597V34.277H28.823ZM34.2271 34.327C33.7938 34.327 33.3838 34.267 32.9971 34.147C32.6105 34.0204 32.3071 33.8637 32.0871 33.677L32.4071 33.117C32.6205 33.277 32.8938 33.417 33.2271 33.537C33.5605 33.6504 33.9105 33.707 34.2771 33.707C34.7771 33.707 35.1371 33.6304 35.3571 33.477C35.5771 33.317 35.6871 33.107 35.6871 32.847C35.6871 32.6537 35.6238 32.5037 35.4971 32.397C35.3771 32.2837 35.2171 32.2004 35.0171 32.147C34.8171 32.087 34.5938 32.037 34.3471 31.997C34.1005 31.957 33.8538 31.9104 33.6071 31.857C33.3671 31.8037 33.1471 31.727 32.9471 31.627C32.7471 31.5204 32.5838 31.377 32.4571 31.197C32.3371 31.017 32.2771 30.777 32.2771 30.477C32.2771 30.1904 32.3571 29.9337 32.5171 29.707C32.6771 29.4804 32.9105 29.3037 33.2171 29.177C33.5305 29.0437 33.9105 28.977 34.3571 28.977C34.6971 28.977 35.0371 29.0237 35.3771 29.117C35.7171 29.2037 35.9971 29.3204 36.2171 29.467L35.9071 30.037C35.6738 29.877 35.4238 29.7637 35.1571 29.697C34.8905 29.6237 34.6238 29.587 34.3571 29.587C33.8838 29.587 33.5338 29.6704 33.3071 29.837C33.0871 29.997 32.9771 30.2037 32.9771 30.457C32.9771 30.657 33.0371 30.8137 33.1571 30.927C33.2838 31.0404 33.4471 31.1304 33.6471 31.197C33.8538 31.257 34.0771 31.307 34.3171 31.347C34.5638 31.387 34.8071 31.437 35.0471 31.497C35.2938 31.5504 35.5171 31.627 35.7171 31.727C35.9238 31.8204 36.0871 31.957 36.2071 32.137C36.3338 32.3104 36.3971 32.5404 36.3971 32.827C36.3971 33.1337 36.3105 33.4004 36.1371 33.627C35.9705 33.847 35.7238 34.0204 35.3971 34.147C35.0771 34.267 34.6871 34.327 34.2271 34.327ZM39.84 34.327C39.3333 34.327 38.8766 34.2137 38.47 33.987C38.07 33.7537 37.7533 33.437 37.52 33.037C37.2866 32.6304 37.17 32.167 37.17 31.647C37.17 31.1204 37.2866 30.657 37.52 30.257C37.7533 29.857 38.07 29.5437 38.47 29.317C38.87 29.0904 39.3266 28.977 39.84 28.977C40.36 28.977 40.82 29.0904 41.22 29.317C41.6266 29.5437 41.9433 29.857 42.17 30.257C42.4033 30.657 42.52 31.1204 42.52 31.647C42.52 32.167 42.4033 32.6304 42.17 33.037C41.9433 33.437 41.6266 33.7537 41.22 33.987C40.8133 34.2137 40.3533 34.327 39.84 34.327ZM39.84 33.697C40.22 33.697 40.5566 33.6137 40.85 33.447C41.1433 33.2737 41.3733 33.0337 41.54 32.727C41.7133 32.4137 41.8 32.0537 41.8 31.647C41.8 31.2337 41.7133 30.8737 41.54 30.567C41.3733 30.2604 41.1433 30.0237 40.85 29.857C40.5566 29.6837 40.2233 29.597 39.85 29.597C39.4766 29.597 39.1433 29.6837 38.85 29.857C38.5566 30.0237 38.3233 30.2604 38.15 30.567C37.9766 30.8737 37.89 31.2337 37.89 31.647C37.89 32.0537 37.9766 32.4137 38.15 32.727C38.3233 33.0337 38.5566 33.2737 38.85 33.447C39.1433 33.6137 39.4733 33.697 39.84 33.697ZM46.6495 28.977C47.0762 28.977 47.4495 29.0604 47.7695 29.227C48.0962 29.387 48.3495 29.6337 48.5295 29.967C48.7162 30.3004 48.8095 30.7204 48.8095 31.227V34.277H48.0995V31.297C48.0995 30.7437 47.9595 30.327 47.6795 30.047C47.4062 29.7604 47.0195 29.617 46.5195 29.617C46.1462 29.617 45.8195 29.6937 45.5395 29.847C45.2662 29.9937 45.0528 30.2104 44.8995 30.497C44.7528 30.777 44.6795 31.117 44.6795 31.517V34.277H43.9695V29.027H44.6495V30.467L44.5395 30.197C44.7062 29.817 44.9728 29.5204 45.3395 29.307C45.7062 29.087 46.1428 28.977 46.6495 28.977ZM54.0173 34.277V33.117L53.9873 32.927V30.987C53.9873 30.5404 53.8606 30.197 53.6073 29.957C53.3606 29.717 52.9906 29.597 52.4973 29.597C52.1573 29.597 51.834 29.6537 51.5273 29.767C51.2206 29.8804 50.9606 30.0304 50.7473 30.217L50.4273 29.687C50.694 29.4604 51.014 29.287 51.3873 29.167C51.7606 29.0404 52.154 28.977 52.5673 28.977C53.2473 28.977 53.7706 29.147 54.1373 29.487C54.5106 29.8204 54.6973 30.3304 54.6973 31.017V34.277H54.0173ZM52.2073 34.327C51.814 34.327 51.4706 34.2637 51.1773 34.137C50.8906 34.0037 50.6706 33.8237 50.5173 33.597C50.364 33.3637 50.2873 33.097 50.2873 32.797C50.2873 32.5237 50.3506 32.277 50.4773 32.057C50.6106 31.8304 50.824 31.6504 51.1173 31.517C51.4173 31.377 51.8173 31.307 52.3173 31.307H54.1273V31.837H52.3373C51.8306 31.837 51.4773 31.927 51.2773 32.107C51.084 32.287 50.9873 32.5104 50.9873 32.777C50.9873 33.077 51.104 33.317 51.3373 33.497C51.5706 33.677 51.8973 33.767 52.3173 33.767C52.7173 33.767 53.0606 33.677 53.3473 33.497C53.6406 33.3104 53.854 33.0437 53.9873 32.697L54.1473 33.187C54.014 33.5337 53.7806 33.8104 53.4473 34.017C53.1206 34.2237 52.7073 34.327 52.2073 34.327ZM56.6257 34.277V26.857H57.3357V34.277H56.6257ZM62.0785 34.277V27.277H62.8185V34.277H62.0785ZM67.6261 28.977C68.0527 28.977 68.4261 29.0604 68.7461 29.227C69.0727 29.387 69.3261 29.6337 69.5061 29.967C69.6927 30.3004 69.7861 30.7204 69.7861 31.227V34.277H69.0761V31.297C69.0761 30.7437 68.9361 30.327 68.6561 30.047C68.3827 29.7604 67.9961 29.617 67.4961 29.617C67.1227 29.617 66.7961 29.6937 66.5161 29.847C66.2427 29.9937 66.0294 30.2104 65.8761 30.497C65.7294 30.777 65.6561 31.117 65.6561 31.517V34.277H64.9461V29.027H65.6261V30.467L65.5161 30.197C65.6827 29.817 65.9494 29.5204 66.3161 29.307C66.6827 29.087 67.1194 28.977 67.6261 28.977ZM71.8239 34.277V28.367C71.8239 27.9004 71.9605 27.5237 72.2339 27.237C72.5072 26.9504 72.9005 26.807 73.4139 26.807C73.6139 26.807 73.8072 26.8337 73.9939 26.887C74.1805 26.9404 74.3372 27.0237 74.4639 27.137L74.2239 27.667C74.1239 27.5804 74.0072 27.517 73.8739 27.477C73.7405 27.4304 73.5972 27.407 73.4439 27.407C73.1439 27.407 72.9139 27.4904 72.7539 27.657C72.5939 27.8237 72.5139 28.0704 72.5139 28.397V29.197L72.5339 29.527V34.277H71.8239ZM70.8839 29.617V29.027H74.1339V29.617H70.8839ZM77.1446 34.327C76.638 34.327 76.1813 34.2137 75.7746 33.987C75.3746 33.7537 75.058 33.437 74.8246 33.037C74.5913 32.6304 74.4746 32.167 74.4746 31.647C74.4746 31.1204 74.5913 30.657 74.8246 30.257C75.058 29.857 75.3746 29.5437 75.7746 29.317C76.1746 29.0904 76.6313 28.977 77.1446 28.977C77.6646 28.977 78.1246 29.0904 78.5246 29.317C78.9313 29.5437 79.248 29.857 79.4746 30.257C79.708 30.657 79.8246 31.1204 79.8246 31.647C79.8246 32.167 79.708 32.6304 79.4746 33.037C79.248 33.437 78.9313 33.7537 78.5246 33.987C78.118 34.2137 77.658 34.327 77.1446 34.327ZM77.1446 33.697C77.5246 33.697 77.8613 33.6137 78.1546 33.447C78.448 33.2737 78.678 33.0337 78.8446 32.727C79.018 32.4137 79.1046 32.0537 79.1046 31.647C79.1046 31.2337 79.018 30.8737 78.8446 30.567C78.678 30.2604 78.448 30.0237 78.1546 29.857C77.8613 29.6837 77.528 29.597 77.1546 29.597C76.7813 29.597 76.448 29.6837 76.1546 29.857C75.8613 30.0237 75.628 30.2604 75.4546 30.567C75.2813 30.8737 75.1946 31.2337 75.1946 31.647C75.1946 32.0537 75.2813 32.4137 75.4546 32.727C75.628 33.0337 75.8613 33.2737 76.1546 33.447C76.448 33.6137 76.778 33.697 77.1446 33.697ZM81.2742 34.277V29.027H81.9542V30.457L81.8842 30.207C82.0308 29.807 82.2775 29.5037 82.6242 29.297C82.9708 29.0837 83.4008 28.977 83.9142 28.977V29.667C83.8875 29.667 83.8608 29.667 83.8342 29.667C83.8075 29.6604 83.7808 29.657 83.7542 29.657C83.2008 29.657 82.7675 29.827 82.4542 30.167C82.1408 30.5004 81.9842 30.977 81.9842 31.597V34.277H81.2742ZM91.7697 28.977C92.1964 28.977 92.5664 29.0604 92.8797 29.227C93.1997 29.387 93.4464 29.6337 93.6197 29.967C93.7997 30.3004 93.8897 30.7204 93.8897 31.227V34.277H93.1797V31.297C93.1797 30.7437 93.0464 30.327 92.7797 30.047C92.5197 29.7604 92.1497 29.617 91.6697 29.617C91.3097 29.617 90.9964 29.6937 90.7297 29.847C90.4697 29.9937 90.2664 30.2104 90.1197 30.497C89.9797 30.777 89.9097 31.117 89.9097 31.517V34.277H89.1997V31.297C89.1997 30.7437 89.0664 30.327 88.7997 30.047C88.5331 29.7604 88.1597 29.617 87.6797 29.617C87.3264 29.617 87.0164 29.6937 86.7497 29.847C86.4831 29.9937 86.2764 30.2104 86.1297 30.497C85.9897 30.777 85.9197 31.117 85.9197 31.517V34.277H85.2097V29.027H85.8897V30.447L85.7797 30.197C85.9397 29.817 86.1964 29.5204 86.5497 29.307C86.9097 29.087 87.3331 28.977 87.8197 28.977C88.3331 28.977 88.7697 29.107 89.1297 29.367C89.4897 29.6204 89.7231 30.0037 89.8297 30.517L89.5497 30.407C89.7031 29.9804 89.9731 29.637 90.3597 29.377C90.7531 29.1104 91.2231 28.977 91.7697 28.977ZM99.1052 34.277V33.117L99.0752 32.927V30.987C99.0752 30.5404 98.9485 30.197 98.6952 29.957C98.4485 29.717 98.0785 29.597 97.5852 29.597C97.2452 29.597 96.9219 29.6537 96.6152 29.767C96.3085 29.8804 96.0485 30.0304 95.8352 30.217L95.5152 29.687C95.7819 29.4604 96.1019 29.287 96.4752 29.167C96.8485 29.0404 97.2419 28.977 97.6552 28.977C98.3352 28.977 98.8585 29.147 99.2252 29.487C99.5985 29.8204 99.7852 30.3304 99.7852 31.017V34.277H99.1052ZM97.2952 34.327C96.9019 34.327 96.5585 34.2637 96.2652 34.137C95.9785 34.0037 95.7585 33.8237 95.6052 33.597C95.4519 33.3637 95.3752 33.097 95.3752 32.797C95.3752 32.5237 95.4385 32.277 95.5652 32.057C95.6985 31.8304 95.9119 31.6504 96.2052 31.517C96.5052 31.377 96.9052 31.307 97.4052 31.307H99.2152V31.837H97.4252C96.9185 31.837 96.5652 31.927 96.3652 32.107C96.1719 32.287 96.0752 32.5104 96.0752 32.777C96.0752 33.077 96.1919 33.317 96.4252 33.497C96.6585 33.677 96.9852 33.767 97.4052 33.767C97.8052 33.767 98.1485 33.677 98.4352 33.497C98.7285 33.3104 98.9419 33.0437 99.0752 32.697L99.2352 33.187C99.1019 33.5337 98.8685 33.8104 98.5352 34.017C98.2085 34.2237 97.7952 34.327 97.2952 34.327ZM103.374 34.327C102.88 34.327 102.5 34.1937 102.234 33.927C101.967 33.6604 101.834 33.2837 101.834 32.797V27.867H102.544V32.757C102.544 33.0637 102.62 33.3004 102.774 33.467C102.934 33.6337 103.16 33.717 103.454 33.717C103.767 33.717 104.027 33.627 104.234 33.447L104.484 33.957C104.344 34.0837 104.174 34.177 103.974 34.237C103.78 34.297 103.58 34.327 103.374 34.327ZM100.894 29.617V29.027H104.144V29.617H100.894ZM105.776 34.277V29.027H106.486V34.277H105.776ZM106.136 27.867C105.989 27.867 105.866 27.817 105.766 27.717C105.666 27.617 105.616 27.497 105.616 27.357C105.616 27.217 105.666 27.1004 105.766 27.007C105.866 26.907 105.989 26.857 106.136 26.857C106.283 26.857 106.406 26.9037 106.506 26.997C106.606 27.0904 106.656 27.207 106.656 27.347C106.656 27.4937 106.606 27.617 106.506 27.717C106.413 27.817 106.289 27.867 106.136 27.867ZM110.602 34.327C110.095 34.327 109.638 34.2137 109.232 33.987C108.832 33.7537 108.515 33.437 108.282 33.037C108.048 32.6304 107.932 32.167 107.932 31.647C107.932 31.1204 108.048 30.657 108.282 30.257C108.515 29.857 108.832 29.5437 109.232 29.317C109.632 29.0904 110.088 28.977 110.602 28.977C111.122 28.977 111.582 29.0904 111.982 29.317C112.388 29.5437 112.705 29.857 112.932 30.257C113.165 30.657 113.282 31.1204 113.282 31.647C113.282 32.167 113.165 32.6304 112.932 33.037C112.705 33.437 112.388 33.7537 111.982 33.987C111.575 34.2137 111.115 34.327 110.602 34.327ZM110.602 33.697C110.982 33.697 111.318 33.6137 111.612 33.447C111.905 33.2737 112.135 33.0337 112.302 32.727C112.475 32.4137 112.562 32.0537 112.562 31.647C112.562 31.2337 112.475 30.8737 112.302 30.567C112.135 30.2604 111.905 30.0237 111.612 29.857C111.318 29.6837 110.985 29.597 110.612 29.597C110.238 29.597 109.905 29.6837 109.612 29.857C109.318 30.0237 109.085 30.2604 108.912 30.567C108.738 30.8737 108.652 31.2337 108.652 31.647C108.652 32.0537 108.738 32.4137 108.912 32.727C109.085 33.0337 109.318 33.2737 109.612 33.447C109.905 33.6137 110.235 33.697 110.602 33.697ZM117.411 28.977C117.838 28.977 118.211 29.0604 118.531 29.227C118.858 29.387 119.111 29.6337 119.291 29.967C119.478 30.3004 119.571 30.7204 119.571 31.227V34.277H118.861V31.297C118.861 30.7437 118.721 30.327 118.441 30.047C118.168 29.7604 117.781 29.617 117.281 29.617C116.908 29.617 116.581 29.6937 116.301 29.847C116.028 29.9937 115.815 30.2104 115.661 30.497C115.515 30.777 115.441 31.117 115.441 31.517V34.277H114.731V29.027H115.411V30.467L115.301 30.197C115.468 29.817 115.735 29.5204 116.101 29.307C116.468 29.087 116.905 28.977 117.411 28.977Z" fill="#084237"/>
<g filter="url(#filter1_d_300_155)">
<mask id="path-6-inside-2_300_155" fill="white">
<path fill-rule="evenodd" clip-rule="evenodd" d="M308.525 3.35902C308.209 2.54004 307.421 2 306.543 2H170.098C168.606 2 167.579 3.4981 168.116 4.89016L175.203 23.2344C175.393 23.7271 175.393 24.2729 175.203 24.7656L168.116 43.1098C167.579 44.5019 168.606 46 170.098 46H306.543C307.421 46 308.209 45.46 308.525 44.641L316.203 24.7656C316.393 24.2729 316.393 23.7271 316.203 23.2344L308.525 3.35902Z"/>
</mask>
<path fill-rule="evenodd" clip-rule="evenodd" d="M308.525 3.35902C308.209 2.54004 307.421 2 306.543 2H170.098C168.606 2 167.579 3.4981 168.116 4.89016L175.203 23.2344C175.393 23.7271 175.393 24.2729 175.203 24.7656L168.116 43.1098C167.579 44.5019 168.606 46 170.098 46H306.543C307.421 46 308.209 45.46 308.525 44.641L316.203 24.7656C316.393 24.2729 316.393 23.7271 316.203 23.2344L308.525 3.35902Z" fill="white"/>
<path d="M175.203 23.2344L174.707 23.4258L175.203 23.2344ZM175.203 24.7656L174.707 24.5742L175.203 24.7656ZM316.203 24.7656L315.707 24.5742V24.5742L316.203 24.7656ZM316.203 23.2344L315.707 23.4258V23.4258L316.203 23.2344ZM308.525 3.35902L308.029 3.55041L308.525 3.35902ZM308.525 44.641L309.02 44.8324L308.525 44.641ZM170.098 2.53115H306.543V1.46885H170.098V2.53115ZM175.698 23.043L168.612 4.69877L167.621 5.08155L174.707 23.4258L175.698 23.043ZM175.698 24.957C175.936 24.3412 175.936 23.6588 175.698 23.043L174.707 23.4258C174.85 23.7953 174.85 24.2047 174.707 24.5742L175.698 24.957ZM168.612 43.3012L175.698 24.957L174.707 24.5742L167.621 42.9184L168.612 43.3012ZM306.543 45.4689H170.098V46.5311H306.543V45.4689ZM315.707 24.5742L308.029 44.4496L309.02 44.8324L316.698 24.957L315.707 24.5742ZM315.707 23.4258C315.85 23.7953 315.85 24.2047 315.707 24.5742L316.698 24.957C316.936 24.3412 316.936 23.6588 316.698 23.043L315.707 23.4258ZM308.029 3.55041L315.707 23.4258L316.698 23.043L309.02 3.16763L308.029 3.55041ZM167.621 42.9184C166.949 44.6585 168.233 46.5311 170.098 46.5311V45.4689C168.979 45.4689 168.209 44.3453 168.612 43.3012L167.621 42.9184ZM306.543 2.53115C307.202 2.53115 307.792 2.93617 308.029 3.55041L309.02 3.16763C308.625 2.1439 307.641 1.46885 306.543 1.46885V2.53115ZM306.543 46.5311C307.641 46.5311 308.625 45.8561 309.02 44.8324L308.029 44.4496C307.792 45.0638 307.202 45.4689 306.543 45.4689V46.5311ZM170.098 1.46885C168.233 1.46885 166.949 3.34148 167.621 5.08155L168.612 4.69877C168.209 3.65472 168.979 2.53115 170.098 2.53115V1.46885Z" fill="#555555" mask="url(#path-6-inside-2_300_155)"/>
</g>
<path d="M187.087 20.58C186.554 20.58 186.044 20.5 185.557 20.34C185.07 20.1733 184.687 19.96 184.407 19.7L184.777 18.92C185.044 19.1533 185.384 19.3467 185.797 19.5C186.21 19.6533 186.64 19.73 187.087 19.73C187.494 19.73 187.824 19.6833 188.077 19.59C188.33 19.4967 188.517 19.37 188.637 19.21C188.757 19.0433 188.817 18.8567 188.817 18.65C188.817 18.41 188.737 18.2167 188.577 18.07C188.424 17.9233 188.22 17.8067 187.967 17.72C187.72 17.6267 187.447 17.5467 187.147 17.48C186.847 17.4133 186.544 17.3367 186.237 17.25C185.937 17.1567 185.66 17.04 185.407 16.9C185.16 16.76 184.96 16.5733 184.807 16.34C184.654 16.1 184.577 15.7933 184.577 15.42C184.577 15.06 184.67 14.73 184.857 14.43C185.05 14.1233 185.344 13.88 185.737 13.7C186.137 13.5133 186.644 13.42 187.257 13.42C187.664 13.42 188.067 13.4733 188.467 13.58C188.867 13.6867 189.214 13.84 189.507 14.04L189.177 14.84C188.877 14.64 188.56 14.4967 188.227 14.41C187.894 14.3167 187.57 14.27 187.257 14.27C186.864 14.27 186.54 14.32 186.287 14.42C186.034 14.52 185.847 14.6533 185.727 14.82C185.614 14.9867 185.557 15.1733 185.557 15.38C185.557 15.6267 185.634 15.8233 185.787 15.97C185.947 16.1167 186.15 16.2333 186.397 16.32C186.65 16.4067 186.927 16.4867 187.227 16.56C187.527 16.6267 187.827 16.7033 188.127 16.79C188.434 16.8767 188.71 16.99 188.957 17.13C189.21 17.27 189.414 17.4567 189.567 17.69C189.72 17.9233 189.797 18.2233 189.797 18.59C189.797 18.9433 189.7 19.2733 189.507 19.58C189.314 19.88 189.014 20.1233 188.607 20.31C188.207 20.49 187.7 20.58 187.087 20.58ZM192.938 20.56C192.405 20.56 191.991 20.4167 191.698 20.13C191.405 19.8433 191.258 19.4333 191.258 18.9V14.04H192.218V18.86C192.218 19.1467 192.288 19.3667 192.428 19.52C192.575 19.6733 192.781 19.75 193.048 19.75C193.348 19.75 193.598 19.6667 193.798 19.5L194.098 20.19C193.951 20.3167 193.775 20.41 193.568 20.47C193.368 20.53 193.158 20.56 192.938 20.56ZM190.358 15.99V15.2H193.738V15.99H190.358ZM197.443 20.56C196.876 20.56 196.376 20.4433 195.943 20.21C195.516 19.9767 195.183 19.6567 194.943 19.25C194.71 18.8433 194.593 18.3767 194.593 17.85C194.593 17.3233 194.706 16.8567 194.933 16.45C195.166 16.0433 195.483 15.7267 195.883 15.5C196.29 15.2667 196.746 15.15 197.253 15.15C197.766 15.15 198.22 15.2633 198.613 15.49C199.006 15.7167 199.313 16.0367 199.533 16.45C199.76 16.8567 199.873 17.3333 199.873 17.88C199.873 17.92 199.87 17.9667 199.863 18.02C199.863 18.0733 199.86 18.1233 199.853 18.17H195.343V17.48H199.353L198.963 17.72C198.97 17.38 198.9 17.0767 198.753 16.81C198.606 16.5433 198.403 16.3367 198.143 16.19C197.89 16.0367 197.593 15.96 197.253 15.96C196.92 15.96 196.623 16.0367 196.363 16.19C196.103 16.3367 195.9 16.5467 195.753 16.82C195.606 17.0867 195.533 17.3933 195.533 17.74V17.9C195.533 18.2533 195.613 18.57 195.773 18.85C195.94 19.1233 196.17 19.3367 196.463 19.49C196.756 19.6433 197.093 19.72 197.473 19.72C197.786 19.72 198.07 19.6667 198.323 19.56C198.583 19.4533 198.81 19.2933 199.003 19.08L199.533 19.7C199.293 19.98 198.993 20.1933 198.633 20.34C198.28 20.4867 197.883 20.56 197.443 20.56ZM204.016 20.56C203.576 20.56 203.173 20.46 202.806 20.26C202.446 20.0533 202.156 19.75 201.936 19.35C201.723 18.95 201.616 18.45 201.616 17.85C201.616 17.25 201.719 16.75 201.926 16.35C202.139 15.95 202.426 15.65 202.786 15.45C203.153 15.25 203.563 15.15 204.016 15.15C204.536 15.15 204.996 15.2633 205.396 15.49C205.796 15.7167 206.113 16.0333 206.346 16.44C206.579 16.84 206.696 17.31 206.696 17.85C206.696 18.39 206.579 18.8633 206.346 19.27C206.113 19.6767 205.796 19.9933 205.396 20.22C204.996 20.4467 204.536 20.56 204.016 20.56ZM201.206 22.44V15.2H202.126V16.63L202.066 17.86L202.166 19.09V22.44H201.206ZM203.936 19.72C204.276 19.72 204.579 19.6433 204.846 19.49C205.119 19.3367 205.333 19.12 205.486 18.84C205.646 18.5533 205.726 18.2233 205.726 17.85C205.726 17.47 205.646 17.1433 205.486 16.87C205.333 16.59 205.119 16.3733 204.846 16.22C204.579 16.0667 204.276 15.99 203.936 15.99C203.603 15.99 203.299 16.0667 203.026 16.22C202.759 16.3733 202.546 16.59 202.386 16.87C202.233 17.1433 202.156 17.47 202.156 17.85C202.156 18.2233 202.233 18.5533 202.386 18.84C202.546 19.12 202.759 19.3367 203.026 19.49C203.299 19.6433 203.603 19.72 203.936 19.72ZM210.168 20.5V19.82L213.018 17.07C213.271 16.83 213.458 16.62 213.578 16.44C213.705 16.2533 213.788 16.0833 213.828 15.93C213.875 15.77 213.898 15.6167 213.898 15.47C213.898 15.11 213.771 14.8267 213.518 14.62C213.265 14.4133 212.895 14.31 212.408 14.31C212.035 14.31 211.698 14.3733 211.398 14.5C211.098 14.62 210.838 14.81 210.618 15.07L209.938 14.48C210.205 14.14 210.561 13.88 211.008 13.7C211.461 13.5133 211.958 13.42 212.498 13.42C212.985 13.42 213.408 13.5 213.768 13.66C214.128 13.8133 214.405 14.0367 214.598 14.33C214.798 14.6233 214.898 14.97 214.898 15.37C214.898 15.5967 214.868 15.82 214.808 16.04C214.748 16.26 214.635 16.4933 214.468 16.74C214.301 16.9867 214.061 17.2633 213.748 17.57L211.208 20.02L210.968 19.63H215.198V20.5H210.168Z" fill="black"/>
<path d="M187.067 35.56C186.547 35.56 186.047 35.4767 185.567 35.31C185.094 35.1367 184.727 34.9167 184.467 34.65L184.757 34.08C185.004 34.32 185.334 34.5233 185.747 34.69C186.167 34.85 186.607 34.93 187.067 34.93C187.507 34.93 187.864 34.8767 188.137 34.77C188.417 34.6567 188.62 34.5067 188.747 34.32C188.88 34.1333 188.947 33.9267 188.947 33.7C188.947 33.4267 188.867 33.2067 188.707 33.04C188.554 32.8733 188.35 32.7433 188.097 32.65C187.844 32.55 187.564 32.4633 187.257 32.39C186.95 32.3167 186.644 32.24 186.337 32.16C186.03 32.0733 185.747 31.96 185.487 31.82C185.234 31.68 185.027 31.4967 184.867 31.27C184.714 31.0367 184.637 30.7333 184.637 30.36C184.637 30.0133 184.727 29.6967 184.907 29.41C185.094 29.1167 185.377 28.8833 185.757 28.71C186.137 28.53 186.624 28.44 187.217 28.44C187.61 28.44 188 28.4967 188.387 28.61C188.774 28.7167 189.107 28.8667 189.387 29.06L189.137 29.65C188.837 29.45 188.517 29.3033 188.177 29.21C187.844 29.1167 187.52 29.07 187.207 29.07C186.787 29.07 186.44 29.1267 186.167 29.24C185.894 29.3533 185.69 29.5067 185.557 29.7C185.43 29.8867 185.367 30.1 185.367 30.34C185.367 30.6133 185.444 30.8333 185.597 31C185.757 31.1667 185.964 31.2967 186.217 31.39C186.477 31.4833 186.76 31.5667 187.067 31.64C187.374 31.7133 187.677 31.7933 187.977 31.88C188.284 31.9667 188.564 32.08 188.817 32.22C189.077 32.3533 189.284 32.5333 189.437 32.76C189.597 32.9867 189.677 33.2833 189.677 33.65C189.677 33.99 189.584 34.3067 189.397 34.6C189.21 34.8867 188.924 35.12 188.537 35.3C188.157 35.4733 187.667 35.56 187.067 35.56ZM193.319 35.55C192.799 35.55 192.333 35.4367 191.919 35.21C191.513 34.9767 191.193 34.66 190.959 34.26C190.726 33.8533 190.609 33.39 190.609 32.87C190.609 32.3433 190.726 31.88 190.959 31.48C191.193 31.08 191.513 30.7667 191.919 30.54C192.333 30.3133 192.799 30.2 193.319 30.2C193.766 30.2 194.169 30.2867 194.529 30.46C194.889 30.6333 195.173 30.8933 195.379 31.24L194.849 31.6C194.669 31.3333 194.446 31.1367 194.179 31.01C193.913 30.8833 193.623 30.82 193.309 30.82C192.936 30.82 192.599 30.9067 192.299 31.08C191.999 31.2467 191.763 31.4833 191.589 31.79C191.416 32.0967 191.329 32.4567 191.329 32.87C191.329 33.2833 191.416 33.6433 191.589 33.95C191.763 34.2567 191.999 34.4967 192.299 34.67C192.599 34.8367 192.936 34.92 193.309 34.92C193.623 34.92 193.913 34.8567 194.179 34.73C194.446 34.6033 194.669 34.41 194.849 34.15L195.379 34.51C195.173 34.85 194.889 35.11 194.529 35.29C194.169 35.4633 193.766 35.55 193.319 35.55ZM199.376 30.2C199.803 30.2 200.176 30.2833 200.496 30.45C200.823 30.61 201.076 30.8567 201.256 31.19C201.443 31.5233 201.536 31.9433 201.536 32.45V35.5H200.826V32.52C200.826 31.9667 200.686 31.55 200.406 31.27C200.133 30.9833 199.746 30.84 199.246 30.84C198.873 30.84 198.546 30.9167 198.266 31.07C197.993 31.2167 197.779 31.4333 197.626 31.72C197.479 32 197.406 32.34 197.406 32.74V35.5H196.696V28.08H197.406V31.69L197.266 31.42C197.433 31.04 197.699 30.7433 198.066 30.53C198.433 30.31 198.869 30.2 199.376 30.2ZM205.684 35.55C205.137 35.55 204.657 35.4367 204.244 35.21C203.831 34.9767 203.507 34.66 203.274 34.26C203.041 33.8533 202.924 33.39 202.924 32.87C202.924 32.35 203.034 31.89 203.254 31.49C203.481 31.09 203.787 30.7767 204.174 30.55C204.567 30.3167 205.007 30.2 205.494 30.2C205.987 30.2 206.424 30.3133 206.804 30.54C207.191 30.76 207.494 31.0733 207.714 31.48C207.934 31.88 208.044 32.3433 208.044 32.87C208.044 32.9033 208.041 32.94 208.034 32.98C208.034 33.0133 208.034 33.05 208.034 33.09H203.464V32.56H207.654L207.374 32.77C207.374 32.39 207.291 32.0533 207.124 31.76C206.964 31.46 206.744 31.2267 206.464 31.06C206.184 30.8933 205.861 30.81 205.494 30.81C205.134 30.81 204.811 30.8933 204.524 31.06C204.237 31.2267 204.014 31.46 203.854 31.76C203.694 32.06 203.614 32.4033 203.614 32.79V32.9C203.614 33.3 203.701 33.6533 203.874 33.96C204.054 34.26 204.301 34.4967 204.614 34.67C204.934 34.8367 205.297 34.92 205.704 34.92C206.024 34.92 206.321 34.8633 206.594 34.75C206.874 34.6367 207.114 34.4633 207.314 34.23L207.714 34.69C207.481 34.97 207.187 35.1833 206.834 35.33C206.487 35.4767 206.104 35.55 205.684 35.55ZM211.579 35.55C211.079 35.55 210.629 35.4367 210.229 35.21C209.836 34.9833 209.526 34.67 209.299 34.27C209.072 33.8633 208.959 33.3967 208.959 32.87C208.959 32.3367 209.072 31.87 209.299 31.47C209.526 31.07 209.836 30.76 210.229 30.54C210.629 30.3133 211.079 30.2 211.579 30.2C212.039 30.2 212.449 30.3033 212.809 30.51C213.176 30.7167 213.466 31.02 213.679 31.42C213.899 31.8133 214.009 32.2967 214.009 32.87C214.009 33.4367 213.902 33.92 213.689 34.32C213.476 34.72 213.186 35.0267 212.819 35.24C212.459 35.4467 212.046 35.55 211.579 35.55ZM211.629 34.92C212.002 34.92 212.336 34.8367 212.629 34.67C212.929 34.4967 213.162 34.2567 213.329 33.95C213.502 33.6367 213.589 33.2767 213.589 32.87C213.589 32.4567 213.502 32.0967 213.329 31.79C213.162 31.4833 212.929 31.2467 212.629 31.08C212.336 30.9067 212.002 30.82 211.629 30.82C211.262 30.82 210.932 30.9067 210.639 31.08C210.346 31.2467 210.112 31.4833 209.939 31.79C209.766 32.0967 209.679 32.4567 209.679 32.87C209.679 33.2767 209.766 33.6367 209.939 33.95C210.112 34.2567 210.346 34.4967 210.639 34.67C210.932 34.8367 211.262 34.92 211.629 34.92ZM213.609 35.5V33.92L213.679 32.86L213.579 31.8V28.08H214.289V35.5H213.609ZM218.436 35.55C217.99 35.55 217.6 35.4667 217.266 35.3C216.933 35.1333 216.673 34.8833 216.486 34.55C216.306 34.2167 216.216 33.8 216.216 33.3V30.25H216.926V33.22C216.926 33.78 217.063 34.2033 217.336 34.49C217.616 34.77 218.006 34.91 218.506 34.91C218.873 34.91 219.19 34.8367 219.456 34.69C219.73 34.5367 219.936 34.3167 220.076 34.03C220.223 33.7433 220.296 33.4 220.296 33V30.25H221.006V35.5H220.326V34.06L220.436 34.32C220.27 34.7067 220.01 35.01 219.656 35.23C219.31 35.4433 218.903 35.55 218.436 35.55ZM222.985 35.5V28.08H223.695V35.5H222.985ZM227.901 35.55C227.354 35.55 226.874 35.4367 226.461 35.21C226.047 34.9767 225.724 34.66 225.491 34.26C225.257 33.8533 225.141 33.39 225.141 32.87C225.141 32.35 225.251 31.89 225.471 31.49C225.697 31.09 226.004 30.7767 226.391 30.55C226.784 30.3167 227.224 30.2 227.711 30.2C228.204 30.2 228.641 30.3133 229.021 30.54C229.407 30.76 229.711 31.0733 229.931 31.48C230.151 31.88 230.261 32.3433 230.261 32.87C230.261 32.9033 230.257 32.94 230.251 32.98C230.251 33.0133 230.251 33.05 230.251 33.09H225.681V32.56H229.871L229.591 32.77C229.591 32.39 229.507 32.0533 229.341 31.76C229.181 31.46 228.961 31.2267 228.681 31.06C228.401 30.8933 228.077 30.81 227.711 30.81C227.351 30.81 227.027 30.8933 226.741 31.06C226.454 31.2267 226.231 31.46 226.071 31.76C225.911 32.06 225.831 32.4033 225.831 32.79V32.9C225.831 33.3 225.917 33.6533 226.091 33.96C226.271 34.26 226.517 34.4967 226.831 34.67C227.151 34.8367 227.514 34.92 227.921 34.92C228.241 34.92 228.537 34.8633 228.811 34.75C229.091 34.6367 229.331 34.4633 229.531 34.23L229.931 34.69C229.697 34.97 229.404 35.1833 229.051 35.33C228.704 35.4767 228.321 35.55 227.901 35.55ZM234.363 37.49C234.116 37.49 233.88 37.45 233.653 37.37C233.433 37.29 233.243 37.17 233.083 37.01L233.413 36.48C233.546 36.6067 233.69 36.7033 233.843 36.77C234.003 36.8433 234.18 36.88 234.373 36.88C234.606 36.88 234.806 36.8133 234.973 36.68C235.146 36.5533 235.31 36.3267 235.463 36L235.803 35.23L235.883 35.12L238.043 30.25H238.743L236.113 36.13C235.966 36.47 235.803 36.74 235.623 36.94C235.45 37.14 235.26 37.28 235.053 37.36C234.846 37.4467 234.616 37.49 234.363 37.49ZM235.763 35.65L233.343 30.25H234.083L236.223 35.07L235.763 35.65ZM241.736 35.55C241.23 35.55 240.773 35.4367 240.366 35.21C239.966 34.9767 239.65 34.66 239.416 34.26C239.183 33.8533 239.066 33.39 239.066 32.87C239.066 32.3433 239.183 31.88 239.416 31.48C239.65 31.08 239.966 30.7667 240.366 30.54C240.766 30.3133 241.223 30.2 241.736 30.2C242.256 30.2 242.716 30.3133 243.116 30.54C243.523 30.7667 243.84 31.08 244.066 31.48C244.3 31.88 244.416 32.3433 244.416 32.87C244.416 33.39 244.3 33.8533 244.066 34.26C243.84 34.66 243.523 34.9767 243.116 35.21C242.71 35.4367 242.25 35.55 241.736 35.55ZM241.736 34.92C242.116 34.92 242.453 34.8367 242.746 34.67C243.04 34.4967 243.27 34.2567 243.436 33.95C243.61 33.6367 243.696 33.2767 243.696 32.87C243.696 32.4567 243.61 32.0967 243.436 31.79C243.27 31.4833 243.04 31.2467 242.746 31.08C242.453 30.9067 242.12 30.82 241.746 30.82C241.373 30.82 241.04 30.9067 240.746 31.08C240.453 31.2467 240.22 31.4833 240.046 31.79C239.873 32.0967 239.786 32.4567 239.786 32.87C239.786 33.2767 239.873 33.6367 240.046 33.95C240.22 34.2567 240.453 34.4967 240.746 34.67C241.04 34.8367 241.37 34.92 241.736 34.92ZM248.036 35.55C247.589 35.55 247.199 35.4667 246.866 35.3C246.533 35.1333 246.273 34.8833 246.086 34.55C245.906 34.2167 245.816 33.8 245.816 33.3V30.25H246.526V33.22C246.526 33.78 246.663 34.2033 246.936 34.49C247.216 34.77 247.606 34.91 248.106 34.91C248.473 34.91 248.789 34.8367 249.056 34.69C249.329 34.5367 249.536 34.3167 249.676 34.03C249.823 33.7433 249.896 33.4 249.896 33V30.25H250.606V35.5H249.926V34.06L250.036 34.32C249.869 34.7067 249.609 35.01 249.256 35.23C248.909 35.4433 248.503 35.55 248.036 35.55ZM252.585 35.5V30.25H253.265V31.68L253.195 31.43C253.341 31.03 253.588 30.7267 253.935 30.52C254.281 30.3067 254.711 30.2 255.225 30.2V30.89C255.198 30.89 255.171 30.89 255.145 30.89C255.118 30.8833 255.091 30.88 255.065 30.88C254.511 30.88 254.078 31.05 253.765 31.39C253.451 31.7233 253.295 32.2 253.295 32.82V35.5H252.585ZM260.566 35.5L258.236 30.25H258.976L261.116 35.12H260.766L262.936 30.25H263.636L261.296 35.5H260.566ZM264.636 35.5V30.25H265.346V35.5H264.636ZM264.996 29.09C264.849 29.09 264.726 29.04 264.626 28.94C264.526 28.84 264.476 28.72 264.476 28.58C264.476 28.44 264.526 28.3233 264.626 28.23C264.726 28.13 264.849 28.08 264.996 28.08C265.142 28.08 265.266 28.1267 265.366 28.22C265.466 28.3133 265.516 28.43 265.516 28.57C265.516 28.7167 265.466 28.84 265.366 28.94C265.272 29.04 265.149 29.09 264.996 29.09ZM268.731 35.55C268.298 35.55 267.888 35.49 267.501 35.37C267.114 35.2433 266.811 35.0867 266.591 34.9L266.911 34.34C267.124 34.5 267.398 34.64 267.731 34.76C268.064 34.8733 268.414 34.93 268.781 34.93C269.281 34.93 269.641 34.8533 269.861 34.7C270.081 34.54 270.191 34.33 270.191 34.07C270.191 33.8767 270.128 33.7267 270.001 33.62C269.881 33.5067 269.721 33.4233 269.521 33.37C269.321 33.31 269.098 33.26 268.851 33.22C268.604 33.18 268.358 33.1333 268.111 33.08C267.871 33.0267 267.651 32.95 267.451 32.85C267.251 32.7433 267.088 32.6 266.961 32.42C266.841 32.24 266.781 32 266.781 31.7C266.781 31.4133 266.861 31.1567 267.021 30.93C267.181 30.7033 267.414 30.5267 267.721 30.4C268.034 30.2667 268.414 30.2 268.861 30.2C269.201 30.2 269.541 30.2467 269.881 30.34C270.221 30.4267 270.501 30.5433 270.721 30.69L270.411 31.26C270.178 31.1 269.928 30.9867 269.661 30.92C269.394 30.8467 269.128 30.81 268.861 30.81C268.388 30.81 268.038 30.8933 267.811 31.06C267.591 31.22 267.481 31.4267 267.481 31.68C267.481 31.88 267.541 32.0367 267.661 32.15C267.788 32.2633 267.951 32.3533 268.151 32.42C268.358 32.48 268.581 32.53 268.821 32.57C269.068 32.61 269.311 32.66 269.551 32.72C269.798 32.7733 270.021 32.85 270.221 32.95C270.428 33.0433 270.591 33.18 270.711 33.36C270.838 33.5333 270.901 33.7633 270.901 34.05C270.901 34.3567 270.814 34.6233 270.641 34.85C270.474 35.07 270.228 35.2433 269.901 35.37C269.581 35.49 269.191 35.55 268.731 35.55ZM272.204 35.5V30.25H272.914V35.5H272.204ZM272.564 29.09C272.417 29.09 272.294 29.04 272.194 28.94C272.094 28.84 272.044 28.72 272.044 28.58C272.044 28.44 272.094 28.3233 272.194 28.23C272.294 28.13 272.417 28.08 272.564 28.08C272.711 28.08 272.834 28.1267 272.934 28.22C273.034 28.3133 273.084 28.43 273.084 28.57C273.084 28.7167 273.034 28.84 272.934 28.94C272.841 29.04 272.717 29.09 272.564 29.09ZM276.549 35.55C276.056 35.55 275.676 35.4167 275.409 35.15C275.143 34.8833 275.009 34.5067 275.009 34.02V29.09H275.719V33.98C275.719 34.2867 275.796 34.5233 275.949 34.69C276.109 34.8567 276.336 34.94 276.629 34.94C276.943 34.94 277.203 34.85 277.409 34.67L277.659 35.18C277.519 35.3067 277.349 35.4 277.149 35.46C276.956 35.52 276.756 35.55 276.549 35.55ZM274.069 30.84V30.25H277.319V30.84H274.069Z" fill="black"/>
<defs>
<filter id="filter0_d_300_155" x="0.937705" y="0.468852" width="151.224" height="46.2098" filterUnits="userSpaceOnUse" color-interpolation-filters="sRGB">
<feFlood flood-opacity="0" result="BackgroundImageFix"/>
<feColorMatrix in="SourceAlpha" type="matrix" values="0 0 0 0 0 0 0 0 0 0 0 0 0 0 0 0 0 0 127 0" result="hardAlpha"/>
<feOffset dy="0.531148"/>
<feGaussianBlur stdDeviation="0.531148"/>
<feColorMatrix type="matrix" values="0 0 0 0 0.215686 0 0 0 0 0.254902 0 0 0 0 0.317647 0 0 0 0.08 0"/>
<feBlend mode="normal" in2="BackgroundImageFix" result="effect1_dropShadow_300_155"/>
<feBlend mode="normal" in="SourceGraphic" in2="effect1_dropShadow_300_155" result="shape"/>
</filter>
<filter id="filter1_d_300_155" x="166.909" y="1.46885" width="150.499" height="46.1246" filterUnits="userSpaceOnUse" color-interpolation-filters="sRGB">
<feFlood flood-opacity="0" result="BackgroundImageFix"/>
<feColorMatrix in="SourceAlpha" type="matrix" values="0 0 0 0 0 0 0 0 0 0 0 0 0 0 0 0 0 0 127 0" result="hardAlpha"/>
<feOffset dy="0.531148"/>
<feGaussianBlur stdDeviation="0.531148"/>
<feColorMatrix type="matrix" values="0 0 0 0 0.215686 0 0 0 0 0.254902 0 0 0 0 0.317647 0 0 0 0.08 0"/>
<feBlend mode="normal" in2="BackgroundImageFix" result="effect1_dropShadow_300_155"/>
<feBlend mode="normal" in="SourceGraphic" in2="effect1_dropShadow_300_155" result="shape"/>
</filter>
</defs>
</svg>
