<svg width="318" height="55" viewBox="0 0 318 55" fill="none" xmlns="http://www.w3.org/2000/svg">
<g filter="url(#filter0_d_300_206)">
<mask id="path-2-inside-1_300_206" fill="white">
<path fill-rule="evenodd" clip-rule="evenodd" d="M2 3.12459C2 1.95121 2.95121 1 4.12459 1H141.296C142.175 1 142.963 1.54065 143.279 2.36031L150.958 22.2783C151.147 22.7702 151.147 23.315 150.958 23.8069L143.279 43.7249C142.963 44.5446 142.175 45.0852 141.296 45.0852H4.12459C2.95121 45.0852 2 44.134 2 42.9607V3.12459Z"/>
</mask>
<path fill-rule="evenodd" clip-rule="evenodd" d="M2 3.12459C2 1.95121 2.95121 1 4.12459 1H141.296C142.175 1 142.963 1.54065 143.279 2.36031L150.958 22.2783C151.147 22.7702 151.147 23.315 150.958 23.8069L143.279 43.7249C142.963 44.5446 142.175 45.0852 141.296 45.0852H4.12459C2.95121 45.0852 2 44.134 2 42.9607V3.12459Z" fill="#A5D696" fill-opacity="0.4"/>
<path d="M150.958 22.2783L151.453 22.0873V22.0873L150.958 22.2783ZM150.958 23.8069L150.462 23.6158V23.6158L150.958 23.8069ZM143.279 43.7249L142.783 43.5339L143.279 43.7249ZM143.279 2.36031L142.783 2.55138L143.279 2.36031ZM141.296 0.468852H4.12459V1.53115H141.296V0.468852ZM142.783 2.55138L150.462 22.4694L151.453 22.0873L143.774 2.16923L142.783 2.55138ZM150.462 22.4694C150.604 22.8383 150.604 23.2469 150.462 23.6158L151.453 23.998C151.69 23.3831 151.69 22.7021 151.453 22.0873L150.462 22.4694ZM150.462 23.6158L142.783 43.5339L143.774 43.916L151.453 23.998L150.462 23.6158ZM4.12459 45.6164H141.296V44.5541H4.12459V45.6164ZM1.46885 3.12459V42.9607H2.53115V3.12459H1.46885ZM142.783 43.5339C142.546 44.1486 141.955 44.5541 141.296 44.5541V45.6164C142.394 45.6164 143.379 44.9406 143.774 43.916L142.783 43.5339ZM4.12459 0.468852C2.65787 0.468852 1.46885 1.65787 1.46885 3.12459H2.53115C2.53115 2.24456 3.24456 1.53115 4.12459 1.53115V0.468852ZM4.12459 44.5541C3.24456 44.5541 2.53115 43.8407 2.53115 42.9607H1.46885C1.46885 44.4274 2.65787 45.6164 4.12459 45.6164V44.5541ZM141.296 1.53115C141.955 1.53115 142.546 1.93663 142.783 2.55138L143.774 2.16923C143.379 1.14466 142.394 0.468852 141.296 0.468852V1.53115Z" fill="#555555" mask="url(#path-2-inside-1_300_206)"/>
</g>
<path d="M17.838 19.357C17.3047 19.357 16.7947 19.277 16.308 19.117C15.8214 18.9504 15.438 18.737 15.158 18.477L15.528 17.697C15.7947 17.9304 16.1347 18.1237 16.548 18.277C16.9614 18.4304 17.3914 18.507 17.838 18.507C18.2447 18.507 18.5747 18.4604 18.828 18.367C19.0814 18.2737 19.268 18.147 19.388 17.987C19.508 17.8204 19.568 17.6337 19.568 17.427C19.568 17.187 19.488 16.9937 19.328 16.847C19.1747 16.7004 18.9714 16.5837 18.718 16.497C18.4714 16.4037 18.198 16.3237 17.898 16.257C17.598 16.1904 17.2947 16.1137 16.988 16.027C16.688 15.9337 16.4114 15.817 16.158 15.677C15.9114 15.537 15.7114 15.3504 15.558 15.117C15.4047 14.877 15.328 14.5704 15.328 14.197C15.328 13.837 15.4214 13.507 15.608 13.207C15.8014 12.9004 16.0947 12.657 16.488 12.477C16.888 12.2904 17.3947 12.197 18.008 12.197C18.4147 12.197 18.818 12.2504 19.218 12.357C19.618 12.4637 19.9647 12.617 20.258 12.817L19.928 13.617C19.628 13.417 19.3114 13.2737 18.978 13.187C18.6447 13.0937 18.3214 13.047 18.008 13.047C17.6147 13.047 17.2914 13.097 17.038 13.197C16.7847 13.297 16.598 13.4304 16.478 13.597C16.3647 13.7637 16.308 13.9504 16.308 14.157C16.308 14.4037 16.3847 14.6004 16.538 14.747C16.698 14.8937 16.9014 15.0104 17.148 15.097C17.4014 15.1837 17.678 15.2637 17.978 15.337C18.278 15.4037 18.578 15.4804 18.878 15.567C19.1847 15.6537 19.4614 15.767 19.708 15.907C19.9614 16.047 20.1647 16.2337 20.318 16.467C20.4714 16.7004 20.548 17.0004 20.548 17.367C20.548 17.7204 20.4514 18.0504 20.258 18.357C20.0647 18.657 19.7647 18.9004 19.358 19.087C18.958 19.267 18.4514 19.357 17.838 19.357ZM23.689 19.337C23.1557 19.337 22.7423 19.1937 22.449 18.907C22.1557 18.6204 22.009 18.2104 22.009 17.677V12.817H22.969V17.637C22.969 17.9237 23.039 18.1437 23.179 18.297C23.3257 18.4504 23.5323 18.527 23.799 18.527C24.099 18.527 24.349 18.4437 24.549 18.277L24.849 18.967C24.7023 19.0937 24.5257 19.187 24.319 19.247C24.119 19.307 23.909 19.337 23.689 19.337ZM21.109 14.767V13.977H24.489V14.767H21.109ZM28.1938 19.337C27.6272 19.337 27.1272 19.2204 26.6938 18.987C26.2672 18.7537 25.9338 18.4337 25.6938 18.027C25.4605 17.6204 25.3438 17.1537 25.3438 16.627C25.3438 16.1004 25.4572 15.6337 25.6838 15.227C25.9172 14.8204 26.2338 14.5037 26.6338 14.277C27.0405 14.0437 27.4972 13.927 28.0038 13.927C28.5172 13.927 28.9705 14.0404 29.3638 14.267C29.7572 14.4937 30.0638 14.8137 30.2838 15.227C30.5105 15.6337 30.6238 16.1104 30.6238 16.657C30.6238 16.697 30.6205 16.7437 30.6138 16.797C30.6138 16.8504 30.6105 16.9004 30.6038 16.947H26.0938V16.257H30.1038L29.7138 16.497C29.7205 16.157 29.6505 15.8537 29.5038 15.587C29.3572 15.3204 29.1538 15.1137 28.8938 14.967C28.6405 14.8137 28.3438 14.737 28.0038 14.737C27.6705 14.737 27.3738 14.8137 27.1138 14.967C26.8538 15.1137 26.6505 15.3237 26.5038 15.597C26.3572 15.8637 26.2838 16.1704 26.2838 16.517V16.677C26.2838 17.0304 26.3638 17.347 26.5238 17.627C26.6905 17.9004 26.9205 18.1137 27.2138 18.267C27.5072 18.4204 27.8438 18.497 28.2238 18.497C28.5372 18.497 28.8205 18.4437 29.0738 18.337C29.3338 18.2304 29.5605 18.0704 29.7538 17.857L30.2838 18.477C30.0438 18.757 29.7438 18.9704 29.3838 19.117C29.0305 19.2637 28.6338 19.337 28.1938 19.337ZM34.7669 19.337C34.3269 19.337 33.9235 19.237 33.5569 19.037C33.1969 18.8304 32.9069 18.527 32.6869 18.127C32.4735 17.727 32.3669 17.227 32.3669 16.627C32.3669 16.027 32.4702 15.527 32.6769 15.127C32.8902 14.727 33.1769 14.427 33.5369 14.227C33.9035 14.027 34.3135 13.927 34.7669 13.927C35.2869 13.927 35.7469 14.0404 36.1469 14.267C36.5469 14.4937 36.8635 14.8104 37.0969 15.217C37.3302 15.617 37.4469 16.087 37.4469 16.627C37.4469 17.167 37.3302 17.6404 37.0969 18.047C36.8635 18.4537 36.5469 18.7704 36.1469 18.997C35.7469 19.2237 35.2869 19.337 34.7669 19.337ZM31.9569 21.217V13.977H32.8769V15.407L32.8169 16.637L32.9169 17.867V21.217H31.9569ZM34.6869 18.497C35.0269 18.497 35.3302 18.4204 35.5969 18.267C35.8702 18.1137 36.0835 17.897 36.2369 17.617C36.3969 17.3304 36.4769 17.0004 36.4769 16.627C36.4769 16.247 36.3969 15.9204 36.2369 15.647C36.0835 15.367 35.8702 15.1504 35.5969 14.997C35.3302 14.8437 35.0269 14.767 34.6869 14.767C34.3535 14.767 34.0502 14.8437 33.7769 14.997C33.5102 15.1504 33.2969 15.367 33.1369 15.647C32.9835 15.9204 32.9069 16.247 32.9069 16.627C32.9069 17.0004 32.9835 17.3304 33.1369 17.617C33.2969 17.897 33.5102 18.1137 33.7769 18.267C34.0502 18.4204 34.3535 18.497 34.6869 18.497ZM42.2088 19.277V12.677L42.6388 13.147H40.6288V12.277H43.1988V19.277H42.2088Z" fill="#084237"/>
<path d="M15.888 34.277V27.277H18.508C19.1014 27.277 19.6114 27.3737 20.038 27.567C20.4647 27.7537 20.7914 28.027 21.018 28.387C21.2514 28.7404 21.368 29.1704 21.368 29.677C21.368 30.1704 21.2514 30.597 21.018 30.957C20.7914 31.3104 20.4647 31.5837 20.038 31.777C19.6114 31.9704 19.1014 32.067 18.508 32.067H16.298L16.628 31.717V34.277H15.888ZM16.628 31.777L16.298 31.417H18.488C19.188 31.417 19.718 31.267 20.078 30.967C20.4447 30.6604 20.628 30.2304 20.628 29.677C20.628 29.117 20.4447 28.6837 20.078 28.377C19.718 28.0704 19.188 27.917 18.488 27.917H16.298L16.628 27.567V31.777ZM25.0188 34.327C24.4722 34.327 23.9922 34.2137 23.5788 33.987C23.1655 33.7537 22.8422 33.437 22.6088 33.037C22.3755 32.6304 22.2588 32.167 22.2588 31.647C22.2588 31.127 22.3688 30.667 22.5888 30.267C22.8155 29.867 23.1222 29.5537 23.5088 29.327C23.9022 29.0937 24.3422 28.977 24.8288 28.977C25.3222 28.977 25.7588 29.0904 26.1388 29.317C26.5255 29.537 26.8288 29.8504 27.0488 30.257C27.2688 30.657 27.3788 31.1204 27.3788 31.647C27.3788 31.6804 27.3755 31.717 27.3688 31.757C27.3688 31.7904 27.3688 31.827 27.3688 31.867H22.7988V31.337H26.9888L26.7088 31.547C26.7088 31.167 26.6255 30.8304 26.4588 30.537C26.2988 30.237 26.0788 30.0037 25.7988 29.837C25.5188 29.6704 25.1955 29.587 24.8288 29.587C24.4688 29.587 24.1455 29.6704 23.8588 29.837C23.5722 30.0037 23.3488 30.237 23.1888 30.537C23.0288 30.837 22.9488 31.1804 22.9488 31.567V31.677C22.9488 32.077 23.0355 32.4304 23.2088 32.737C23.3888 33.037 23.6355 33.2737 23.9488 33.447C24.2688 33.6137 24.6322 33.697 25.0388 33.697C25.3588 33.697 25.6555 33.6404 25.9288 33.527C26.2088 33.4137 26.4488 33.2404 26.6488 33.007L27.0488 33.467C26.8155 33.747 26.5222 33.9604 26.1688 34.107C25.8222 34.2537 25.4388 34.327 25.0188 34.327ZM28.824 34.277V29.027H29.504V30.457L29.434 30.207C29.5807 29.807 29.8273 29.5037 30.174 29.297C30.5207 29.0837 30.9507 28.977 31.464 28.977V29.667C31.4373 29.667 31.4107 29.667 31.384 29.667C31.3573 29.6604 31.3307 29.657 31.304 29.657C30.7507 29.657 30.3173 29.827 30.004 30.167C29.6907 30.5004 29.534 30.977 29.534 31.597V34.277H28.824ZM34.2281 34.327C33.7948 34.327 33.3848 34.267 32.9981 34.147C32.6115 34.0204 32.3081 33.8637 32.0881 33.677L32.4081 33.117C32.6215 33.277 32.8948 33.417 33.2281 33.537C33.5615 33.6504 33.9115 33.707 34.2781 33.707C34.7781 33.707 35.1381 33.6304 35.3581 33.477C35.5781 33.317 35.6881 33.107 35.6881 32.847C35.6881 32.6537 35.6248 32.5037 35.4981 32.397C35.3781 32.2837 35.2181 32.2004 35.0181 32.147C34.8181 32.087 34.5948 32.037 34.3481 31.997C34.1015 31.957 33.8548 31.9104 33.6081 31.857C33.3681 31.8037 33.1481 31.727 32.9481 31.627C32.7481 31.5204 32.5848 31.377 32.4581 31.197C32.3381 31.017 32.2781 30.777 32.2781 30.477C32.2781 30.1904 32.3581 29.9337 32.5181 29.707C32.6781 29.4804 32.9115 29.3037 33.2181 29.177C33.5315 29.0437 33.9115 28.977 34.3581 28.977C34.6981 28.977 35.0381 29.0237 35.3781 29.117C35.7181 29.2037 35.9981 29.3204 36.2181 29.467L35.9081 30.037C35.6748 29.877 35.4248 29.7637 35.1581 29.697C34.8915 29.6237 34.6248 29.587 34.3581 29.587C33.8848 29.587 33.5348 29.6704 33.3081 29.837C33.0881 29.997 32.9781 30.2037 32.9781 30.457C32.9781 30.657 33.0381 30.8137 33.1581 30.927C33.2848 31.0404 33.4481 31.1304 33.6481 31.197C33.8548 31.257 34.0781 31.307 34.3181 31.347C34.5648 31.387 34.8081 31.437 35.0481 31.497C35.2948 31.5504 35.5181 31.627 35.7181 31.727C35.9248 31.8204 36.0881 31.957 36.2081 32.137C36.3348 32.3104 36.3981 32.5404 36.3981 32.827C36.3981 33.1337 36.3115 33.4004 36.1381 33.627C35.9715 33.847 35.7248 34.0204 35.3981 34.147C35.0781 34.267 34.6881 34.327 34.2281 34.327ZM39.8409 34.327C39.3343 34.327 38.8776 34.2137 38.4709 33.987C38.0709 33.7537 37.7543 33.437 37.5209 33.037C37.2876 32.6304 37.1709 32.167 37.1709 31.647C37.1709 31.1204 37.2876 30.657 37.5209 30.257C37.7543 29.857 38.0709 29.5437 38.4709 29.317C38.8709 29.0904 39.3276 28.977 39.8409 28.977C40.3609 28.977 40.8209 29.0904 41.2209 29.317C41.6276 29.5437 41.9443 29.857 42.1709 30.257C42.4043 30.657 42.5209 31.1204 42.5209 31.647C42.5209 32.167 42.4043 32.6304 42.1709 33.037C41.9443 33.437 41.6276 33.7537 41.2209 33.987C40.8143 34.2137 40.3543 34.327 39.8409 34.327ZM39.8409 33.697C40.2209 33.697 40.5576 33.6137 40.8509 33.447C41.1443 33.2737 41.3743 33.0337 41.5409 32.727C41.7143 32.4137 41.8009 32.0537 41.8009 31.647C41.8009 31.2337 41.7143 30.8737 41.5409 30.567C41.3743 30.2604 41.1443 30.0237 40.8509 29.857C40.5576 29.6837 40.2243 29.597 39.8509 29.597C39.4776 29.597 39.1443 29.6837 38.8509 29.857C38.5576 30.0237 38.3243 30.2604 38.1509 30.567C37.9776 30.8737 37.8909 31.2337 37.8909 31.647C37.8909 32.0537 37.9776 32.4137 38.1509 32.727C38.3243 33.0337 38.5576 33.2737 38.8509 33.447C39.1443 33.6137 39.4743 33.697 39.8409 33.697ZM46.6505 28.977C47.0771 28.977 47.4505 29.0604 47.7705 29.227C48.0971 29.387 48.3505 29.6337 48.5305 29.967C48.7171 30.3004 48.8105 30.7204 48.8105 31.227V34.277H48.1005V31.297C48.1005 30.7437 47.9605 30.327 47.6805 30.047C47.4071 29.7604 47.0205 29.617 46.5205 29.617C46.1471 29.617 45.8205 29.6937 45.5405 29.847C45.2671 29.9937 45.0538 30.2104 44.9005 30.497C44.7538 30.777 44.6805 31.117 44.6805 31.517V34.277H43.9705V29.027H44.6505V30.467L44.5405 30.197C44.7071 29.817 44.9738 29.5204 45.3405 29.307C45.7071 29.087 46.1438 28.977 46.6505 28.977ZM54.0183 34.277V33.117L53.9883 32.927V30.987C53.9883 30.5404 53.8616 30.197 53.6083 29.957C53.3616 29.717 52.9916 29.597 52.4983 29.597C52.1583 29.597 51.8349 29.6537 51.5283 29.767C51.2216 29.8804 50.9616 30.0304 50.7483 30.217L50.4283 29.687C50.6949 29.4604 51.0149 29.287 51.3883 29.167C51.7616 29.0404 52.1549 28.977 52.5683 28.977C53.2483 28.977 53.7716 29.147 54.1383 29.487C54.5116 29.8204 54.6983 30.3304 54.6983 31.017V34.277H54.0183ZM52.2083 34.327C51.8149 34.327 51.4716 34.2637 51.1783 34.137C50.8916 34.0037 50.6716 33.8237 50.5183 33.597C50.3649 33.3637 50.2883 33.097 50.2883 32.797C50.2883 32.5237 50.3516 32.277 50.4783 32.057C50.6116 31.8304 50.8249 31.6504 51.1183 31.517C51.4183 31.377 51.8183 31.307 52.3183 31.307H54.1283V31.837H52.3383C51.8316 31.837 51.4783 31.927 51.2783 32.107C51.0849 32.287 50.9883 32.5104 50.9883 32.777C50.9883 33.077 51.1049 33.317 51.3383 33.497C51.5716 33.677 51.8983 33.767 52.3183 33.767C52.7183 33.767 53.0616 33.677 53.3483 33.497C53.6416 33.3104 53.8549 33.0437 53.9883 32.697L54.1483 33.187C54.0149 33.5337 53.7816 33.8104 53.4483 34.017C53.1216 34.2237 52.7083 34.327 52.2083 34.327ZM56.6267 34.277V26.857H57.3367V34.277H56.6267ZM62.0795 34.277V27.277H62.8195V34.277H62.0795ZM67.627 28.977C68.0537 28.977 68.427 29.0604 68.747 29.227C69.0737 29.387 69.327 29.6337 69.507 29.967C69.6937 30.3004 69.787 30.7204 69.787 31.227V34.277H69.077V31.297C69.077 30.7437 68.937 30.327 68.657 30.047C68.3837 29.7604 67.997 29.617 67.497 29.617C67.1237 29.617 66.797 29.6937 66.517 29.847C66.2437 29.9937 66.0304 30.2104 65.877 30.497C65.7304 30.777 65.657 31.117 65.657 31.517V34.277H64.947V29.027H65.627V30.467L65.517 30.197C65.6837 29.817 65.9504 29.5204 66.317 29.307C66.6837 29.087 67.1204 28.977 67.627 28.977ZM71.8248 34.277V28.367C71.8248 27.9004 71.9615 27.5237 72.2348 27.237C72.5082 26.9504 72.9015 26.807 73.4148 26.807C73.6148 26.807 73.8082 26.8337 73.9948 26.887C74.1815 26.9404 74.3382 27.0237 74.4648 27.137L74.2248 27.667C74.1248 27.5804 74.0082 27.517 73.8748 27.477C73.7415 27.4304 73.5982 27.407 73.4448 27.407C73.1448 27.407 72.9148 27.4904 72.7548 27.657C72.5948 27.8237 72.5148 28.0704 72.5148 28.397V29.197L72.5348 29.527V34.277H71.8248ZM70.8848 29.617V29.027H74.1348V29.617H70.8848ZM77.1456 34.327C76.639 34.327 76.1823 34.2137 75.7756 33.987C75.3756 33.7537 75.059 33.437 74.8256 33.037C74.5923 32.6304 74.4756 32.167 74.4756 31.647C74.4756 31.1204 74.5923 30.657 74.8256 30.257C75.059 29.857 75.3756 29.5437 75.7756 29.317C76.1756 29.0904 76.6323 28.977 77.1456 28.977C77.6656 28.977 78.1256 29.0904 78.5256 29.317C78.9323 29.5437 79.249 29.857 79.4756 30.257C79.709 30.657 79.8256 31.1204 79.8256 31.647C79.8256 32.167 79.709 32.6304 79.4756 33.037C79.249 33.437 78.9323 33.7537 78.5256 33.987C78.119 34.2137 77.659 34.327 77.1456 34.327ZM77.1456 33.697C77.5256 33.697 77.8623 33.6137 78.1556 33.447C78.449 33.2737 78.679 33.0337 78.8456 32.727C79.019 32.4137 79.1056 32.0537 79.1056 31.647C79.1056 31.2337 79.019 30.8737 78.8456 30.567C78.679 30.2604 78.449 30.0237 78.1556 29.857C77.8623 29.6837 77.529 29.597 77.1556 29.597C76.7823 29.597 76.449 29.6837 76.1556 29.857C75.8623 30.0237 75.629 30.2604 75.4556 30.567C75.2823 30.8737 75.1956 31.2337 75.1956 31.647C75.1956 32.0537 75.2823 32.4137 75.4556 32.727C75.629 33.0337 75.8623 33.2737 76.1556 33.447C76.449 33.6137 76.779 33.697 77.1456 33.697ZM81.2752 34.277V29.027H81.9552V30.457L81.8852 30.207C82.0318 29.807 82.2785 29.5037 82.6252 29.297C82.9718 29.0837 83.4018 28.977 83.9152 28.977V29.667C83.8885 29.667 83.8618 29.667 83.8352 29.667C83.8085 29.6604 83.7818 29.657 83.7552 29.657C83.2018 29.657 82.7685 29.827 82.4552 30.167C82.1418 30.5004 81.9852 30.977 81.9852 31.597V34.277H81.2752ZM91.7707 28.977C92.1974 28.977 92.5674 29.0604 92.8807 29.227C93.2007 29.387 93.4474 29.6337 93.6207 29.967C93.8007 30.3004 93.8907 30.7204 93.8907 31.227V34.277H93.1807V31.297C93.1807 30.7437 93.0474 30.327 92.7807 30.047C92.5207 29.7604 92.1507 29.617 91.6707 29.617C91.3107 29.617 90.9974 29.6937 90.7307 29.847C90.4707 29.9937 90.2674 30.2104 90.1207 30.497C89.9807 30.777 89.9107 31.117 89.9107 31.517V34.277H89.2007V31.297C89.2007 30.7437 89.0674 30.327 88.8007 30.047C88.534 29.7604 88.1607 29.617 87.6807 29.617C87.3274 29.617 87.0174 29.6937 86.7507 29.847C86.484 29.9937 86.2774 30.2104 86.1307 30.497C85.9907 30.777 85.9207 31.117 85.9207 31.517V34.277H85.2107V29.027H85.8907V30.447L85.7807 30.197C85.9407 29.817 86.1974 29.5204 86.5507 29.307C86.9107 29.087 87.334 28.977 87.8207 28.977C88.334 28.977 88.7707 29.107 89.1307 29.367C89.4907 29.6204 89.724 30.0037 89.8307 30.517L89.5507 30.407C89.704 29.9804 89.974 29.637 90.3607 29.377C90.754 29.1104 91.224 28.977 91.7707 28.977ZM99.1062 34.277V33.117L99.0762 32.927V30.987C99.0762 30.5404 98.9495 30.197 98.6962 29.957C98.4495 29.717 98.0795 29.597 97.5862 29.597C97.2462 29.597 96.9228 29.6537 96.6162 29.767C96.3095 29.8804 96.0495 30.0304 95.8362 30.217L95.5162 29.687C95.7828 29.4604 96.1028 29.287 96.4762 29.167C96.8495 29.0404 97.2428 28.977 97.6562 28.977C98.3362 28.977 98.8595 29.147 99.2262 29.487C99.5995 29.8204 99.7862 30.3304 99.7862 31.017V34.277H99.1062ZM97.2962 34.327C96.9028 34.327 96.5595 34.2637 96.2662 34.137C95.9795 34.0037 95.7595 33.8237 95.6062 33.597C95.4528 33.3637 95.3762 33.097 95.3762 32.797C95.3762 32.5237 95.4395 32.277 95.5662 32.057C95.6995 31.8304 95.9128 31.6504 96.2062 31.517C96.5062 31.377 96.9062 31.307 97.4062 31.307H99.2162V31.837H97.4262C96.9195 31.837 96.5662 31.927 96.3662 32.107C96.1728 32.287 96.0762 32.5104 96.0762 32.777C96.0762 33.077 96.1928 33.317 96.4262 33.497C96.6595 33.677 96.9862 33.767 97.4062 33.767C97.8062 33.767 98.1495 33.677 98.4362 33.497C98.7295 33.3104 98.9428 33.0437 99.0762 32.697L99.2362 33.187C99.1028 33.5337 98.8695 33.8104 98.5362 34.017C98.2095 34.2237 97.7962 34.327 97.2962 34.327ZM103.375 34.327C102.881 34.327 102.501 34.1937 102.235 33.927C101.968 33.6604 101.835 33.2837 101.835 32.797V27.867H102.545V32.757C102.545 33.0637 102.621 33.3004 102.775 33.467C102.935 33.6337 103.161 33.717 103.455 33.717C103.768 33.717 104.028 33.627 104.235 33.447L104.485 33.957C104.345 34.0837 104.175 34.177 103.975 34.237C103.781 34.297 103.581 34.327 103.375 34.327ZM100.895 29.617V29.027H104.145V29.617H100.895ZM105.777 34.277V29.027H106.487V34.277H105.777ZM106.137 27.867C105.99 27.867 105.867 27.817 105.767 27.717C105.667 27.617 105.617 27.497 105.617 27.357C105.617 27.217 105.667 27.1004 105.767 27.007C105.867 26.907 105.99 26.857 106.137 26.857C106.284 26.857 106.407 26.9037 106.507 26.997C106.607 27.0904 106.657 27.207 106.657 27.347C106.657 27.4937 106.607 27.617 106.507 27.717C106.414 27.817 106.29 27.867 106.137 27.867ZM110.603 34.327C110.096 34.327 109.639 34.2137 109.233 33.987C108.833 33.7537 108.516 33.437 108.283 33.037C108.049 32.6304 107.933 32.167 107.933 31.647C107.933 31.1204 108.049 30.657 108.283 30.257C108.516 29.857 108.833 29.5437 109.233 29.317C109.633 29.0904 110.089 28.977 110.603 28.977C111.123 28.977 111.583 29.0904 111.983 29.317C112.389 29.5437 112.706 29.857 112.933 30.257C113.166 30.657 113.283 31.1204 113.283 31.647C113.283 32.167 113.166 32.6304 112.933 33.037C112.706 33.437 112.389 33.7537 111.983 33.987C111.576 34.2137 111.116 34.327 110.603 34.327ZM110.603 33.697C110.983 33.697 111.319 33.6137 111.613 33.447C111.906 33.2737 112.136 33.0337 112.303 32.727C112.476 32.4137 112.563 32.0537 112.563 31.647C112.563 31.2337 112.476 30.8737 112.303 30.567C112.136 30.2604 111.906 30.0237 111.613 29.857C111.319 29.6837 110.986 29.597 110.613 29.597C110.239 29.597 109.906 29.6837 109.613 29.857C109.319 30.0237 109.086 30.2604 108.913 30.567C108.739 30.8737 108.653 31.2337 108.653 31.647C108.653 32.0537 108.739 32.4137 108.913 32.727C109.086 33.0337 109.319 33.2737 109.613 33.447C109.906 33.6137 110.236 33.697 110.603 33.697ZM117.412 28.977C117.839 28.977 118.212 29.0604 118.532 29.227C118.859 29.387 119.112 29.6337 119.292 29.967C119.479 30.3004 119.572 30.7204 119.572 31.227V34.277H118.862V31.297C118.862 30.7437 118.722 30.327 118.442 30.047C118.169 29.7604 117.782 29.617 117.282 29.617C116.909 29.617 116.582 29.6937 116.302 29.847C116.029 29.9937 115.816 30.2104 115.662 30.497C115.516 30.777 115.442 31.117 115.442 31.517V34.277H114.732V29.027H115.412V30.467L115.302 30.197C115.469 29.817 115.736 29.5204 116.102 29.307C116.469 29.087 116.906 28.977 117.412 28.977Z" fill="#084237"/>
<g filter="url(#filter1_d_300_206)">
<mask id="path-6-inside-2_300_206" fill="white">
<path fill-rule="evenodd" clip-rule="evenodd" d="M308.526 3.35902C308.21 2.54004 307.422 2 306.544 2H170.099C168.607 2 167.58 3.4981 168.117 4.89016L175.204 23.2344C175.394 23.7271 175.394 24.2729 175.204 24.7656L168.117 43.1098C167.58 44.5019 168.607 46 170.099 46H306.544C307.422 46 308.21 45.46 308.526 44.641L316.204 24.7656C316.394 24.2729 316.394 23.7271 316.204 23.2344L308.526 3.35902Z"/>
</mask>
<path fill-rule="evenodd" clip-rule="evenodd" d="M308.526 3.35902C308.21 2.54004 307.422 2 306.544 2H170.099C168.607 2 167.58 3.4981 168.117 4.89016L175.204 23.2344C175.394 23.7271 175.394 24.2729 175.204 24.7656L168.117 43.1098C167.58 44.5019 168.607 46 170.099 46H306.544C307.422 46 308.21 45.46 308.526 44.641L316.204 24.7656C316.394 24.2729 316.394 23.7271 316.204 23.2344L308.526 3.35902Z" fill="#A5D696" fill-opacity="0.4"/>
<path d="M175.204 23.2344L174.708 23.4258L174.708 23.4258L175.204 23.2344ZM175.204 24.7656L174.708 24.5742L174.708 24.5742L175.204 24.7656ZM316.204 24.7656L315.708 24.5742L315.708 24.5742L316.204 24.7656ZM316.204 23.2344L315.708 23.4258L315.708 23.4258L316.204 23.2344ZM308.526 3.35902L308.03 3.55041L308.526 3.35902ZM308.526 44.641L309.021 44.8324L308.526 44.641ZM170.099 2.53115H306.544V1.46885H170.099V2.53115ZM175.699 23.043L168.613 4.69877L167.622 5.08155L174.708 23.4258L175.699 23.043ZM175.699 24.957C175.937 24.3412 175.937 23.6588 175.699 23.043L174.708 23.4258C174.851 23.7953 174.851 24.2047 174.708 24.5742L175.699 24.957ZM168.613 43.3012L175.699 24.957L174.708 24.5742L167.622 42.9184L168.613 43.3012ZM306.544 45.4689H170.099V46.5311H306.544V45.4689ZM315.708 24.5742L308.03 44.4496L309.021 44.8324L316.699 24.957L315.708 24.5742ZM315.708 23.4258C315.851 23.7953 315.851 24.2047 315.708 24.5742L316.699 24.957C316.937 24.3412 316.937 23.6588 316.699 23.043L315.708 23.4258ZM308.03 3.55041L315.708 23.4258L316.699 23.043L309.021 3.16763L308.03 3.55041ZM167.622 42.9184C166.95 44.6585 168.234 46.5311 170.099 46.5311V45.4689C168.98 45.4689 168.21 44.3453 168.613 43.3012L167.622 42.9184ZM306.544 2.53115C307.203 2.53115 307.793 2.93617 308.03 3.55041L309.021 3.16763C308.626 2.1439 307.642 1.46885 306.544 1.46885V2.53115ZM306.544 46.5311C307.642 46.5311 308.626 45.8561 309.021 44.8324L308.03 44.4496C307.793 45.0638 307.203 45.4689 306.544 45.4689V46.5311ZM170.099 1.46885C168.234 1.46885 166.95 3.34148 167.622 5.08155L168.613 4.69877C168.21 3.65472 168.98 2.53115 170.099 2.53115V1.46885Z" fill="#555555" mask="url(#path-6-inside-2_300_206)"/>
</g>
<path d="M187.086 20.58C186.553 20.58 186.043 20.5 185.556 20.34C185.069 20.1733 184.686 19.96 184.406 19.7L184.776 18.92C185.043 19.1533 185.383 19.3467 185.796 19.5C186.209 19.6533 186.639 19.73 187.086 19.73C187.493 19.73 187.823 19.6833 188.076 19.59C188.329 19.4967 188.516 19.37 188.636 19.21C188.756 19.0433 188.816 18.8567 188.816 18.65C188.816 18.41 188.736 18.2167 188.576 18.07C188.423 17.9233 188.219 17.8067 187.966 17.72C187.719 17.6267 187.446 17.5467 187.146 17.48C186.846 17.4133 186.543 17.3367 186.236 17.25C185.936 17.1567 185.659 17.04 185.406 16.9C185.159 16.76 184.959 16.5733 184.806 16.34C184.653 16.1 184.576 15.7933 184.576 15.42C184.576 15.06 184.669 14.73 184.856 14.43C185.049 14.1233 185.343 13.88 185.736 13.7C186.136 13.5133 186.643 13.42 187.256 13.42C187.663 13.42 188.066 13.4733 188.466 13.58C188.866 13.6867 189.213 13.84 189.506 14.04L189.176 14.84C188.876 14.64 188.559 14.4967 188.226 14.41C187.893 14.3167 187.569 14.27 187.256 14.27C186.863 14.27 186.539 14.32 186.286 14.42C186.033 14.52 185.846 14.6533 185.726 14.82C185.613 14.9867 185.556 15.1733 185.556 15.38C185.556 15.6267 185.633 15.8233 185.786 15.97C185.946 16.1167 186.149 16.2333 186.396 16.32C186.649 16.4067 186.926 16.4867 187.226 16.56C187.526 16.6267 187.826 16.7033 188.126 16.79C188.433 16.8767 188.709 16.99 188.956 17.13C189.209 17.27 189.413 17.4567 189.566 17.69C189.719 17.9233 189.796 18.2233 189.796 18.59C189.796 18.9433 189.699 19.2733 189.506 19.58C189.313 19.88 189.013 20.1233 188.606 20.31C188.206 20.49 187.699 20.58 187.086 20.58ZM192.937 20.56C192.404 20.56 191.99 20.4167 191.697 20.13C191.404 19.8433 191.257 19.4333 191.257 18.9V14.04H192.217V18.86C192.217 19.1467 192.287 19.3667 192.427 19.52C192.574 19.6733 192.78 19.75 193.047 19.75C193.347 19.75 193.597 19.6667 193.797 19.5L194.097 20.19C193.95 20.3167 193.774 20.41 193.567 20.47C193.367 20.53 193.157 20.56 192.937 20.56ZM190.357 15.99V15.2H193.737V15.99H190.357ZM197.442 20.56C196.875 20.56 196.375 20.4433 195.942 20.21C195.515 19.9767 195.182 19.6567 194.942 19.25C194.709 18.8433 194.592 18.3767 194.592 17.85C194.592 17.3233 194.705 16.8567 194.932 16.45C195.165 16.0433 195.482 15.7267 195.882 15.5C196.289 15.2667 196.745 15.15 197.252 15.15C197.765 15.15 198.219 15.2633 198.612 15.49C199.005 15.7167 199.312 16.0367 199.532 16.45C199.759 16.8567 199.872 17.3333 199.872 17.88C199.872 17.92 199.869 17.9667 199.862 18.02C199.862 18.0733 199.859 18.1233 199.852 18.17H195.342V17.48H199.352L198.962 17.72C198.969 17.38 198.899 17.0767 198.752 16.81C198.605 16.5433 198.402 16.3367 198.142 16.19C197.889 16.0367 197.592 15.96 197.252 15.96C196.919 15.96 196.622 16.0367 196.362 16.19C196.102 16.3367 195.899 16.5467 195.752 16.82C195.605 17.0867 195.532 17.3933 195.532 17.74V17.9C195.532 18.2533 195.612 18.57 195.772 18.85C195.939 19.1233 196.169 19.3367 196.462 19.49C196.755 19.6433 197.092 19.72 197.472 19.72C197.785 19.72 198.069 19.6667 198.322 19.56C198.582 19.4533 198.809 19.2933 199.002 19.08L199.532 19.7C199.292 19.98 198.992 20.1933 198.632 20.34C198.279 20.4867 197.882 20.56 197.442 20.56ZM204.015 20.56C203.575 20.56 203.172 20.46 202.805 20.26C202.445 20.0533 202.155 19.75 201.935 19.35C201.722 18.95 201.615 18.45 201.615 17.85C201.615 17.25 201.718 16.75 201.925 16.35C202.138 15.95 202.425 15.65 202.785 15.45C203.152 15.25 203.562 15.15 204.015 15.15C204.535 15.15 204.995 15.2633 205.395 15.49C205.795 15.7167 206.112 16.0333 206.345 16.44C206.578 16.84 206.695 17.31 206.695 17.85C206.695 18.39 206.578 18.8633 206.345 19.27C206.112 19.6767 205.795 19.9933 205.395 20.22C204.995 20.4467 204.535 20.56 204.015 20.56ZM201.205 22.44V15.2H202.125V16.63L202.065 17.86L202.165 19.09V22.44H201.205ZM203.935 19.72C204.275 19.72 204.578 19.6433 204.845 19.49C205.118 19.3367 205.332 19.12 205.485 18.84C205.645 18.5533 205.725 18.2233 205.725 17.85C205.725 17.47 205.645 17.1433 205.485 16.87C205.332 16.59 205.118 16.3733 204.845 16.22C204.578 16.0667 204.275 15.99 203.935 15.99C203.602 15.99 203.298 16.0667 203.025 16.22C202.758 16.3733 202.545 16.59 202.385 16.87C202.232 17.1433 202.155 17.47 202.155 17.85C202.155 18.2233 202.232 18.5533 202.385 18.84C202.545 19.12 202.758 19.3367 203.025 19.49C203.298 19.6433 203.602 19.72 203.935 19.72ZM210.167 20.5V19.82L213.017 17.07C213.27 16.83 213.457 16.62 213.577 16.44C213.704 16.2533 213.787 16.0833 213.827 15.93C213.874 15.77 213.897 15.6167 213.897 15.47C213.897 15.11 213.77 14.8267 213.517 14.62C213.264 14.4133 212.894 14.31 212.407 14.31C212.034 14.31 211.697 14.3733 211.397 14.5C211.097 14.62 210.837 14.81 210.617 15.07L209.937 14.48C210.204 14.14 210.56 13.88 211.007 13.7C211.46 13.5133 211.957 13.42 212.497 13.42C212.984 13.42 213.407 13.5 213.767 13.66C214.127 13.8133 214.404 14.0367 214.597 14.33C214.797 14.6233 214.897 14.97 214.897 15.37C214.897 15.5967 214.867 15.82 214.807 16.04C214.747 16.26 214.634 16.4933 214.467 16.74C214.3 16.9867 214.06 17.2633 213.747 17.57L211.207 20.02L210.967 19.63H215.197V20.5H210.167Z" fill="black"/>
<path d="M187.066 35.56C186.546 35.56 186.046 35.4767 185.566 35.31C185.093 35.1367 184.726 34.9167 184.466 34.65L184.756 34.08C185.003 34.32 185.333 34.5233 185.746 34.69C186.166 34.85 186.606 34.93 187.066 34.93C187.506 34.93 187.863 34.8767 188.136 34.77C188.416 34.6567 188.619 34.5067 188.746 34.32C188.879 34.1333 188.946 33.9267 188.946 33.7C188.946 33.4267 188.866 33.2067 188.706 33.04C188.553 32.8733 188.349 32.7433 188.096 32.65C187.843 32.55 187.563 32.4633 187.256 32.39C186.949 32.3167 186.643 32.24 186.336 32.16C186.029 32.0733 185.746 31.96 185.486 31.82C185.233 31.68 185.026 31.4967 184.866 31.27C184.713 31.0367 184.636 30.7333 184.636 30.36C184.636 30.0133 184.726 29.6967 184.906 29.41C185.093 29.1167 185.376 28.8833 185.756 28.71C186.136 28.53 186.623 28.44 187.216 28.44C187.609 28.44 187.999 28.4967 188.386 28.61C188.773 28.7167 189.106 28.8667 189.386 29.06L189.136 29.65C188.836 29.45 188.516 29.3033 188.176 29.21C187.843 29.1167 187.519 29.07 187.206 29.07C186.786 29.07 186.439 29.1267 186.166 29.24C185.893 29.3533 185.689 29.5067 185.556 29.7C185.429 29.8867 185.366 30.1 185.366 30.34C185.366 30.6133 185.443 30.8333 185.596 31C185.756 31.1667 185.963 31.2967 186.216 31.39C186.476 31.4833 186.759 31.5667 187.066 31.64C187.373 31.7133 187.676 31.7933 187.976 31.88C188.283 31.9667 188.563 32.08 188.816 32.22C189.076 32.3533 189.283 32.5333 189.436 32.76C189.596 32.9867 189.676 33.2833 189.676 33.65C189.676 33.99 189.583 34.3067 189.396 34.6C189.209 34.8867 188.923 35.12 188.536 35.3C188.156 35.4733 187.666 35.56 187.066 35.56ZM193.318 35.55C192.798 35.55 192.332 35.4367 191.918 35.21C191.512 34.9767 191.192 34.66 190.958 34.26C190.725 33.8533 190.608 33.39 190.608 32.87C190.608 32.3433 190.725 31.88 190.958 31.48C191.192 31.08 191.512 30.7667 191.918 30.54C192.332 30.3133 192.798 30.2 193.318 30.2C193.765 30.2 194.168 30.2867 194.528 30.46C194.888 30.6333 195.172 30.8933 195.378 31.24L194.848 31.6C194.668 31.3333 194.445 31.1367 194.178 31.01C193.912 30.8833 193.622 30.82 193.308 30.82C192.935 30.82 192.598 30.9067 192.298 31.08C191.998 31.2467 191.762 31.4833 191.588 31.79C191.415 32.0967 191.328 32.4567 191.328 32.87C191.328 33.2833 191.415 33.6433 191.588 33.95C191.762 34.2567 191.998 34.4967 192.298 34.67C192.598 34.8367 192.935 34.92 193.308 34.92C193.622 34.92 193.912 34.8567 194.178 34.73C194.445 34.6033 194.668 34.41 194.848 34.15L195.378 34.51C195.172 34.85 194.888 35.11 194.528 35.29C194.168 35.4633 193.765 35.55 193.318 35.55ZM199.375 30.2C199.802 30.2 200.175 30.2833 200.495 30.45C200.822 30.61 201.075 30.8567 201.255 31.19C201.442 31.5233 201.535 31.9433 201.535 32.45V35.5H200.825V32.52C200.825 31.9667 200.685 31.55 200.405 31.27C200.132 30.9833 199.745 30.84 199.245 30.84C198.872 30.84 198.545 30.9167 198.265 31.07C197.992 31.2167 197.778 31.4333 197.625 31.72C197.478 32 197.405 32.34 197.405 32.74V35.5H196.695V28.08H197.405V31.69L197.265 31.42C197.432 31.04 197.698 30.7433 198.065 30.53C198.432 30.31 198.868 30.2 199.375 30.2ZM205.683 35.55C205.136 35.55 204.656 35.4367 204.243 35.21C203.83 34.9767 203.506 34.66 203.273 34.26C203.04 33.8533 202.923 33.39 202.923 32.87C202.923 32.35 203.033 31.89 203.253 31.49C203.48 31.09 203.786 30.7767 204.173 30.55C204.566 30.3167 205.006 30.2 205.493 30.2C205.986 30.2 206.423 30.3133 206.803 30.54C207.19 30.76 207.493 31.0733 207.713 31.48C207.933 31.88 208.043 32.3433 208.043 32.87C208.043 32.9033 208.04 32.94 208.033 32.98C208.033 33.0133 208.033 33.05 208.033 33.09H203.463V32.56H207.653L207.373 32.77C207.373 32.39 207.29 32.0533 207.123 31.76C206.963 31.46 206.743 31.2267 206.463 31.06C206.183 30.8933 205.86 30.81 205.493 30.81C205.133 30.81 204.81 30.8933 204.523 31.06C204.236 31.2267 204.013 31.46 203.853 31.76C203.693 32.06 203.613 32.4033 203.613 32.79V32.9C203.613 33.3 203.7 33.6533 203.873 33.96C204.053 34.26 204.3 34.4967 204.613 34.67C204.933 34.8367 205.296 34.92 205.703 34.92C206.023 34.92 206.32 34.8633 206.593 34.75C206.873 34.6367 207.113 34.4633 207.313 34.23L207.713 34.69C207.48 34.97 207.186 35.1833 206.833 35.33C206.486 35.4767 206.103 35.55 205.683 35.55ZM211.578 35.55C211.078 35.55 210.628 35.4367 210.228 35.21C209.835 34.9833 209.525 34.67 209.298 34.27C209.071 33.8633 208.958 33.3967 208.958 32.87C208.958 32.3367 209.071 31.87 209.298 31.47C209.525 31.07 209.835 30.76 210.228 30.54C210.628 30.3133 211.078 30.2 211.578 30.2C212.038 30.2 212.448 30.3033 212.808 30.51C213.175 30.7167 213.465 31.02 213.678 31.42C213.898 31.8133 214.008 32.2967 214.008 32.87C214.008 33.4367 213.901 33.92 213.688 34.32C213.475 34.72 213.185 35.0267 212.818 35.24C212.458 35.4467 212.045 35.55 211.578 35.55ZM211.628 34.92C212.001 34.92 212.335 34.8367 212.628 34.67C212.928 34.4967 213.161 34.2567 213.328 33.95C213.501 33.6367 213.588 33.2767 213.588 32.87C213.588 32.4567 213.501 32.0967 213.328 31.79C213.161 31.4833 212.928 31.2467 212.628 31.08C212.335 30.9067 212.001 30.82 211.628 30.82C211.261 30.82 210.931 30.9067 210.638 31.08C210.345 31.2467 210.111 31.4833 209.938 31.79C209.765 32.0967 209.678 32.4567 209.678 32.87C209.678 33.2767 209.765 33.6367 209.938 33.95C210.111 34.2567 210.345 34.4967 210.638 34.67C210.931 34.8367 211.261 34.92 211.628 34.92ZM213.608 35.5V33.92L213.678 32.86L213.578 31.8V28.08H214.288V35.5H213.608ZM218.435 35.55C217.989 35.55 217.599 35.4667 217.265 35.3C216.932 35.1333 216.672 34.8833 216.485 34.55C216.305 34.2167 216.215 33.8 216.215 33.3V30.25H216.925V33.22C216.925 33.78 217.062 34.2033 217.335 34.49C217.615 34.77 218.005 34.91 218.505 34.91C218.872 34.91 219.189 34.8367 219.455 34.69C219.729 34.5367 219.935 34.3167 220.075 34.03C220.222 33.7433 220.295 33.4 220.295 33V30.25H221.005V35.5H220.325V34.06L220.435 34.32C220.269 34.7067 220.009 35.01 219.655 35.23C219.309 35.4433 218.902 35.55 218.435 35.55ZM222.984 35.5V28.08H223.694V35.5H222.984ZM227.9 35.55C227.353 35.55 226.873 35.4367 226.46 35.21C226.046 34.9767 225.723 34.66 225.49 34.26C225.256 33.8533 225.14 33.39 225.14 32.87C225.14 32.35 225.25 31.89 225.47 31.49C225.696 31.09 226.003 30.7767 226.39 30.55C226.783 30.3167 227.223 30.2 227.71 30.2C228.203 30.2 228.64 30.3133 229.02 30.54C229.406 30.76 229.71 31.0733 229.93 31.48C230.15 31.88 230.26 32.3433 230.26 32.87C230.26 32.9033 230.256 32.94 230.25 32.98C230.25 33.0133 230.25 33.05 230.25 33.09H225.68V32.56H229.87L229.59 32.77C229.59 32.39 229.506 32.0533 229.34 31.76C229.18 31.46 228.96 31.2267 228.68 31.06C228.4 30.8933 228.076 30.81 227.71 30.81C227.35 30.81 227.026 30.8933 226.74 31.06C226.453 31.2267 226.23 31.46 226.07 31.76C225.91 32.06 225.83 32.4033 225.83 32.79V32.9C225.83 33.3 225.916 33.6533 226.09 33.96C226.27 34.26 226.516 34.4967 226.83 34.67C227.15 34.8367 227.513 34.92 227.92 34.92C228.24 34.92 228.536 34.8633 228.81 34.75C229.09 34.6367 229.33 34.4633 229.53 34.23L229.93 34.69C229.696 34.97 229.403 35.1833 229.05 35.33C228.703 35.4767 228.32 35.55 227.9 35.55ZM234.362 37.49C234.115 37.49 233.879 37.45 233.652 37.37C233.432 37.29 233.242 37.17 233.082 37.01L233.412 36.48C233.545 36.6067 233.689 36.7033 233.842 36.77C234.002 36.8433 234.179 36.88 234.372 36.88C234.605 36.88 234.805 36.8133 234.972 36.68C235.145 36.5533 235.309 36.3267 235.462 36L235.802 35.23L235.882 35.12L238.042 30.25H238.742L236.112 36.13C235.965 36.47 235.802 36.74 235.622 36.94C235.449 37.14 235.259 37.28 235.052 37.36C234.845 37.4467 234.615 37.49 234.362 37.49ZM235.762 35.65L233.342 30.25H234.082L236.222 35.07L235.762 35.65ZM241.735 35.55C241.229 35.55 240.772 35.4367 240.365 35.21C239.965 34.9767 239.649 34.66 239.415 34.26C239.182 33.8533 239.065 33.39 239.065 32.87C239.065 32.3433 239.182 31.88 239.415 31.48C239.649 31.08 239.965 30.7667 240.365 30.54C240.765 30.3133 241.222 30.2 241.735 30.2C242.255 30.2 242.715 30.3133 243.115 30.54C243.522 30.7667 243.839 31.08 244.065 31.48C244.299 31.88 244.415 32.3433 244.415 32.87C244.415 33.39 244.299 33.8533 244.065 34.26C243.839 34.66 243.522 34.9767 243.115 35.21C242.709 35.4367 242.249 35.55 241.735 35.55ZM241.735 34.92C242.115 34.92 242.452 34.8367 242.745 34.67C243.039 34.4967 243.269 34.2567 243.435 33.95C243.609 33.6367 243.695 33.2767 243.695 32.87C243.695 32.4567 243.609 32.0967 243.435 31.79C243.269 31.4833 243.039 31.2467 242.745 31.08C242.452 30.9067 242.119 30.82 241.745 30.82C241.372 30.82 241.039 30.9067 240.745 31.08C240.452 31.2467 240.219 31.4833 240.045 31.79C239.872 32.0967 239.785 32.4567 239.785 32.87C239.785 33.2767 239.872 33.6367 240.045 33.95C240.219 34.2567 240.452 34.4967 240.745 34.67C241.039 34.8367 241.369 34.92 241.735 34.92ZM248.035 35.55C247.588 35.55 247.198 35.4667 246.865 35.3C246.532 35.1333 246.272 34.8833 246.085 34.55C245.905 34.2167 245.815 33.8 245.815 33.3V30.25H246.525V33.22C246.525 33.78 246.662 34.2033 246.935 34.49C247.215 34.77 247.605 34.91 248.105 34.91C248.472 34.91 248.788 34.8367 249.055 34.69C249.328 34.5367 249.535 34.3167 249.675 34.03C249.822 33.7433 249.895 33.4 249.895 33V30.25H250.605V35.5H249.925V34.06L250.035 34.32C249.868 34.7067 249.608 35.01 249.255 35.23C248.908 35.4433 248.502 35.55 248.035 35.55ZM252.584 35.5V30.25H253.264V31.68L253.194 31.43C253.34 31.03 253.587 30.7267 253.934 30.52C254.28 30.3067 254.71 30.2 255.224 30.2V30.89C255.197 30.89 255.17 30.89 255.144 30.89C255.117 30.8833 255.09 30.88 255.064 30.88C254.51 30.88 254.077 31.05 253.764 31.39C253.45 31.7233 253.294 32.2 253.294 32.82V35.5H252.584ZM260.565 35.5L258.235 30.25H258.975L261.115 35.12H260.765L262.935 30.25H263.635L261.295 35.5H260.565ZM264.635 35.5V30.25H265.345V35.5H264.635ZM264.995 29.09C264.848 29.09 264.725 29.04 264.625 28.94C264.525 28.84 264.475 28.72 264.475 28.58C264.475 28.44 264.525 28.3233 264.625 28.23C264.725 28.13 264.848 28.08 264.995 28.08C265.141 28.08 265.265 28.1267 265.365 28.22C265.465 28.3133 265.515 28.43 265.515 28.57C265.515 28.7167 265.465 28.84 265.365 28.94C265.271 29.04 265.148 29.09 264.995 29.09ZM268.73 35.55C268.297 35.55 267.887 35.49 267.5 35.37C267.113 35.2433 266.81 35.0867 266.59 34.9L266.91 34.34C267.123 34.5 267.397 34.64 267.73 34.76C268.063 34.8733 268.413 34.93 268.78 34.93C269.28 34.93 269.64 34.8533 269.86 34.7C270.08 34.54 270.19 34.33 270.19 34.07C270.19 33.8767 270.127 33.7267 270 33.62C269.88 33.5067 269.72 33.4233 269.52 33.37C269.32 33.31 269.097 33.26 268.85 33.22C268.603 33.18 268.357 33.1333 268.11 33.08C267.87 33.0267 267.65 32.95 267.45 32.85C267.25 32.7433 267.087 32.6 266.96 32.42C266.84 32.24 266.78 32 266.78 31.7C266.78 31.4133 266.86 31.1567 267.02 30.93C267.18 30.7033 267.413 30.5267 267.72 30.4C268.033 30.2667 268.413 30.2 268.86 30.2C269.2 30.2 269.54 30.2467 269.88 30.34C270.22 30.4267 270.5 30.5433 270.72 30.69L270.41 31.26C270.177 31.1 269.927 30.9867 269.66 30.92C269.393 30.8467 269.127 30.81 268.86 30.81C268.387 30.81 268.037 30.8933 267.81 31.06C267.59 31.22 267.48 31.4267 267.48 31.68C267.48 31.88 267.54 32.0367 267.66 32.15C267.787 32.2633 267.95 32.3533 268.15 32.42C268.357 32.48 268.58 32.53 268.82 32.57C269.067 32.61 269.31 32.66 269.55 32.72C269.797 32.7733 270.02 32.85 270.22 32.95C270.427 33.0433 270.59 33.18 270.71 33.36C270.837 33.5333 270.9 33.7633 270.9 34.05C270.9 34.3567 270.813 34.6233 270.64 34.85C270.473 35.07 270.227 35.2433 269.9 35.37C269.58 35.49 269.19 35.55 268.73 35.55ZM272.203 35.5V30.25H272.913V35.5H272.203ZM272.563 29.09C272.416 29.09 272.293 29.04 272.193 28.94C272.093 28.84 272.043 28.72 272.043 28.58C272.043 28.44 272.093 28.3233 272.193 28.23C272.293 28.13 272.416 28.08 272.563 28.08C272.71 28.08 272.833 28.1267 272.933 28.22C273.033 28.3133 273.083 28.43 273.083 28.57C273.083 28.7167 273.033 28.84 272.933 28.94C272.84 29.04 272.716 29.09 272.563 29.09ZM276.548 35.55C276.055 35.55 275.675 35.4167 275.408 35.15C275.142 34.8833 275.008 34.5067 275.008 34.02V29.09H275.718V33.98C275.718 34.2867 275.795 34.5233 275.948 34.69C276.108 34.8567 276.335 34.94 276.628 34.94C276.942 34.94 277.202 34.85 277.408 34.67L277.658 35.18C277.518 35.3067 277.348 35.4 277.148 35.46C276.955 35.52 276.755 35.55 276.548 35.55ZM274.068 30.84V30.25H277.318V30.84H274.068Z" fill="black"/>
<defs>
<filter id="filter0_d_300_206" x="0.937705" y="0.468852" width="151.224" height="46.2098" filterUnits="userSpaceOnUse" color-interpolation-filters="sRGB">
<feFlood flood-opacity="0" result="BackgroundImageFix"/>
<feColorMatrix in="SourceAlpha" type="matrix" values="0 0 0 0 0 0 0 0 0 0 0 0 0 0 0 0 0 0 127 0" result="hardAlpha"/>
<feOffset dy="0.531148"/>
<feGaussianBlur stdDeviation="0.531148"/>
<feColorMatrix type="matrix" values="0 0 0 0 0.215686 0 0 0 0 0.254902 0 0 0 0 0.317647 0 0 0 0.08 0"/>
<feBlend mode="normal" in2="BackgroundImageFix" result="effect1_dropShadow_300_206"/>
<feBlend mode="normal" in="SourceGraphic" in2="effect1_dropShadow_300_206" result="shape"/>
</filter>
<filter id="filter1_d_300_206" x="166.91" y="1.46885" width="150.498" height="46.1246" filterUnits="userSpaceOnUse" color-interpolation-filters="sRGB">
<feFlood flood-opacity="0" result="BackgroundImageFix"/>
<feColorMatrix in="SourceAlpha" type="matrix" values="0 0 0 0 0 0 0 0 0 0 0 0 0 0 0 0 0 0 127 0" result="hardAlpha"/>
<feOffset dy="0.531148"/>
<feGaussianBlur stdDeviation="0.531148"/>
<feColorMatrix type="matrix" values="0 0 0 0 0.215686 0 0 0 0 0.254902 0 0 0 0 0.317647 0 0 0 0.08 0"/>
<feBlend mode="normal" in2="BackgroundImageFix" result="effect1_dropShadow_300_206"/>
<feBlend mode="normal" in="SourceGraphic" in2="effect1_dropShadow_300_206" result="shape"/>
</filter>
</defs>
</svg>
