<svg width="37" height="37" viewBox="0 0 37 37" fill="none" xmlns="http://www.w3.org/2000/svg">
<rect width="37" height="37" rx="18.5" fill="#084237"/>
<path d="M21.3524 22.5854C21.6607 22.8938 21.6607 23.3563 21.3524 23.6646C21.1982 23.8188 21.0441 23.8958 20.8128 23.8958C20.5816 23.8958 20.4274 23.8188 20.2732 23.6646L15.6482 19.0396C15.3399 18.7313 15.3399 18.2688 15.6482 17.9604L20.2732 13.3354C20.5816 13.0271 21.0441 13.0271 21.3524 13.3354C21.6607 13.6438 21.6607 14.1063 21.3524 14.4146L17.267 18.5L21.3524 22.5854Z" fill="black"/>
<mask id="mask0_300_140" style="mask-type:luminance" maskUnits="userSpaceOnUse" x="15" y="13" width="7" height="11">
<path d="M21.3524 22.5854C21.6607 22.8938 21.6607 23.3563 21.3524 23.6646C21.1982 23.8188 21.0441 23.8958 20.8128 23.8958C20.5816 23.8958 20.4274 23.8188 20.2732 23.6646L15.6482 19.0396C15.3399 18.7313 15.3399 18.2688 15.6482 17.9604L20.2732 13.3354C20.5816 13.0271 21.0441 13.0271 21.3524 13.3354C21.6607 13.6438 21.6607 14.1063 21.3524 14.4146L17.267 18.5L21.3524 22.5854Z" fill="white"/>
</mask>
<g mask="url(#mask0_300_140)">
<rect x="9.25" y="9.25" width="18.5" height="18.5" fill="white"/>
</g>
</svg>
