<svg id="Layer_1" data-name="Layer 1" xmlns="http://www.w3.org/2000/svg" viewBox="0 0 180 180"><defs><style>.cls-1{fill:#014636;}.cls-2{fill:#fff;}</style></defs><circle class="cls-1" cx="88.53" cy="85.25" r="74.3"/><path class="cls-2" d="M105,113.87l-4.94-3a48.43,48.43,0,0,1,2.56-5.95c.33-.57,1.76-.58,2.71-.67,1.45-.14,3.11.27,4.35-.28,1.66-.73,2.26-2.33,1.33-4.24a17.28,17.28,0,0,1-.86-3.18l6.9-2.89c2.38,1.2,1.63,4.94,5.28,5s3.12-3.56,5.4-5l7,2.83c-.31,1.16-.55,2.23-.88,3.27-.45,1.39-.62,2.51.69,3.77s2.4,1.66,3.95.9c2.53-1.26,4-.46,4.69,2.24a30.37,30.37,0,0,0,1.51,3.82c-1.11,2.34-4.88,1.6-4.94,5.21s3.4,3.27,5,5.38c-.41,1-.88,2.23-1.37,3.43s-.94,2.24-1.37,3.25c-2.46.85-4.6-2.3-7.2.18s.1,4.7-.26,7.35l-6.65,2.83c-2.37-1.09-1.62-4.87-5.22-5-3.76-.13-3.22,3.44-5.51,5l-6.48-2.61c-1.13-2.48,2.24-4.64-.29-7.25s-4.72.06-7.41-.28c-.89-2.12-1.86-4.42-2.94-7L105,117.9l-.14-.62c-1,0-1.93-.12-2.9-.12-7.55,0-15.09.06-22.64,0-4.82-.06-8.18-2.48-9.59-6.55-1.3-3.76-.32-8.18,3-10.43a15.37,15.37,0,0,1,6.74-2.35c3.45-.39,7-.07,10.46-.12,4.84-.06,7.6-2.86,7.83-7.75a23.33,23.33,0,0,1,.58-5.3,11.2,11.2,0,0,1,10.8-8c5.37-.1,10.75,0,16.13-.06,3.15,0,5.16-2,5.23-4.78a4.78,4.78,0,0,0-5-5c-12.64-.07-25.28,0-37.92,0a7.39,7.39,0,0,0-1.28.26c.33,5,.65,9.94,1,15.06H34.43c.73-6.87,1.18-13.62,2.27-20.26.58-3.49,3.25-5.88,6.68-7.12,2.74-1,5.49-1.94,8.53-3,2.2,4.09,4.31,8.17,6.61,12.14a4,4,0,0,0,2.56,2c.72.07,1.81-1.07,2.29-1.93C65.61,60,67.69,56,70,51.75c6.64,2.52,14.47,3.11,15.89,12.48h4.89c11.5,0,23,0,34.52,0A7.46,7.46,0,0,1,133,70.38a7.32,7.32,0,0,1-4.68,8.12A10.54,10.54,0,0,1,125,79c-4.81.05-9.62,0-14.43,0-6.69.07-10.21,3.66-10.27,10.39-.06,7-4,10.88-10.88,10.92-3.39,0-6.79,0-10.18,0-4.46.08-7.45,3-7.4,7.2a7,7,0,0,0,7.3,7c8.56.07,17.12,0,25.68,0ZM46.56,79.46H75.34A28.45,28.45,0,0,1,75.05,75c.12-1.27-1.35-3.23,1.06-3.59.32,0,1.33,2.24,1.43,3.49C78,80,77.87,80,83,79.72a11.78,11.78,0,0,0,1.57-.38C84.13,74.08,84,68.87,83,63.83a10.86,10.86,0,0,0-4.19-6c-2.1-1.54-5-2-7.61-3-2.25,4.15-4.5,8-6.4,11.94-1,2.09-2.58,1.74-4.23,1.85a3.22,3.22,0,0,1-3.58-2c-2-3.94-4.16-7.76-6.34-11.77-2,.69-3.71,1.38-5.5,1.91a8.87,8.87,0,0,0-6.54,7.39,37.58,37.58,0,0,0-.49,4.49c-.27,3.62-.5,7.23-.74,10.81h6.64c.13-2.4.15-4.56.42-6.7.08-.58.9-1.07,1.39-1.6.38.61,1.1,1.21,1.1,1.82C47,75.08,46.72,77.13,46.56,79.46Zm93.67,26.89c-3.57,2.37-5.89.92-8.3-1.74-1.22-1.35-1.62-2.34-1-3.85,1.14-2.57.14-3.65-2.57-3.77-1.44,2.05-2,4.46-5.86,4.34-3.67-.12-4.76-2-6.15-4.59l-3.2,1.35c.61,2.77,1.75,4.83-1,7.48s-4.84,1.87-7.63,1l-1.27,3.37c2.64,1.29,4.5,2.3,4.58,5.93.08,3.81-2.2,4.66-4.61,6.1l1.35,3.1c2.71-.51,4.87-1.7,7.6,1.05s1.48,4.92,1,7.58l3,1.3c1.66-2.15,2.16-4.69,6.14-4.67s4.63,2.58,6.68,5.2c.94-1.24,2.41-2.49,2.18-3-1.5-3.25.17-5,2.29-7.14,1.37-1.38,2.41-1.83,4.06-1.07,2.62,1.19,3.53-.07,3.79-2.66-2.77-1.1-4.18-2.55-4.48-6.06-.35-4.13,2.88-4.26,4.62-6.08Z"/><path class="cls-2" d="M60.88,29A10.82,10.82,0,1,1,50.06,39.73,10.81,10.81,0,0,1,60.88,29Zm-8.2,10.76A8.28,8.28,0,0,0,69.23,40a8.28,8.28,0,1,0-16.55-.22Z"/><path class="cls-2" d="M122.41,105.5A10.38,10.38,0,1,1,112.13,116,10.37,10.37,0,0,1,122.41,105.5Zm7.91,9.89a7.76,7.76,0,0,0-8-7.38,8,8,0,0,0-7.7,7.85,7.91,7.91,0,0,0,8.28,7.78C127.18,123.53,130.38,120,130.32,115.39Z"/></svg>