<svg id="Layer_1" data-name="Layer 1" xmlns="http://www.w3.org/2000/svg" viewBox="0 0 180 180"><defs><style>.cls-1{fill:#014636;}.cls-2{fill:#fff;}</style></defs><circle class="cls-1" cx="88.53" cy="85.25" r="74.3"/><path class="cls-2" d="M112.91,94.27V86.54c-3.81,2.19-7.45,4.81-10.7.22-1.73-2.45-1.26-5,.87-7,3.31-3,6.3-1.11,9.63,1.58V67.66H99.58c3-3.94,4.75-7.61.7-10.33-1.58-1.07-5.31-.89-6.84.29-3.6,2.8-1.88,6.28,1,9.65H84.15A27.76,27.76,0,0,1,94.49,42.81,28.63,28.63,0,0,1,127.39,40C138,46.2,143.76,58.35,141.31,70.29c-.66,3.22-2.72,6.22-4.41,9.15-2.76,4.79-5.76,9.44-8.65,14.15l1.7.23c.44,2.28,1.94,5.22,1,6.67-1,1.63-4.16,2.58-6.43,2.66-8.15.31-16.32.08-24.49.14-3.31,0-5.83-1-5.78-4.68,0-3.54,2.67-4.34,5.69-4.34C104.23,94.28,108.48,94.27,112.91,94.27Z"/><path class="cls-2" d="M49.47,113.22c.42,7.7-4.41,13.16-8,19.05-.74,1.21-3.18,1.38-4.84,2-.46-1.61-1.83-3.77-1.24-4.75,7.81-12.85,6.83-27.49,8.85-41.51.88-6.05,2.41-7.23,8.54-6.24,6.41,1,8.45,0,11.31-5.84h9.11c-2.34-3.87-4.8-7.79,0-10.51,1.61-.9,5.07-.49,6.51.71C83,69,81.37,72.27,78.43,75.77h13V89.32c-3.38-2.46-7-4.63-9.86-.67a7.43,7.43,0,0,0,0,6.89c2.84,4,6.45,2,10-.8v7.75c-4.8,0-9.63.12-14.45-.11-.9,0-2-1.32-2.55-2.28-1.58-2.69-2.92-5.51-4.29-8.16l-14.48,5c-.65,3.66-1.6,8.57,2,12.89,5.82,7,3.16,14.58,1.26,22-.31,1.22-2.8,2.85-3.95,2.62s-2.75-2.44-2.84-3.87c-.19-2.8.92-5.67.78-8.48-.16-3-1.13-6.06-1.75-9.08Z"/><path class="cls-2" d="M112.74,114.65c-3.71,0-7.42,0-11.12,0-2.84,0-4.29-1.42-4.38-4.1s1.06-4.74,4.2-4.75c7.7,0,15.4,0,23.1,0,2.79,0,4.11,1.59,4.14,4.33,0,3-1.35,4.5-4.4,4.47-3.85,0-7.69,0-11.54,0Z"/><path class="cls-2" d="M52.05,80a7.59,7.59,0,1,1,7.28-7.93A7.5,7.5,0,0,1,52.05,80Z"/><path class="cls-2" d="M123.3,117.36c-5,6.45-16.27,6.37-20.52,0Z"/></svg>