<svg id="Layer_1" data-name="Layer 1" xmlns="http://www.w3.org/2000/svg" viewBox="0 0 180 180"><defs><style>.cls-1{fill:#014636;}.cls-2{fill:#fff;}</style></defs><circle class="cls-1" cx="89.8" cy="84.72" r="74.3"/><path class="cls-2" d="M59.72,93.19a13.8,13.8,0,0,0-5.2,15c1.41,4.84,3.29,6.25,8.33,6.25,6.72,0,13.44-.06,20.15.07.94,0,1.86.95,2.79,1.46-.92.4-1.84,1.12-2.77,1.14-5.11.11-10.22,0-14.57,0,.61,5.69,1.2,11.12,1.83,17,2.53,0,5.3-.11,8,.07.91.06,1.78.88,2.66,1.35-1,.49-2,1.39-3,1.4q-14.77.16-29.55,0c-1.06,0-2.11-1-3.17-1.48,1-.45,2-.92,3.08-1.33a14.52,14.52,0,0,1,1.76-.33c0-3.42.08-6.86-.06-10.29a4.24,4.24,0,0,0-1.31-2.21C40,111.6,40.85,97.89,50.94,89.61c1.52-1.25,2.35-2.37,2.19-4.42a6.28,6.28,0,0,1,1-3.45c1.54-2.56,3.32-5,4.92-7.52a3.06,3.06,0,0,0,.29-1.81,18.57,18.57,0,0,0-.6-2.61c-1.61-6.48-.36-8.2,6.45-8.3A4.13,4.13,0,0,1,68,63.58a17.21,17.21,0,0,1,1.21,4.52c.4,1.76.74,3.3,3,3.8,1,.2,2,1.82,2.27,3,1.33,4.74,2.41,9.54,3.54,14.33a3.68,3.68,0,0,1,.14,2.27c-1.31,2.27-2.9,4.36-1.69,7.24.1.23-.9,1.18-1.53,1.4-1.58.54-3.27.76-4.86,1.28-2.42.79-3.85.24-4.22-2.48A3.37,3.37,0,0,0,64.84,97C63.33,95.74,61.7,94.64,59.72,93.19Zm7,40.81c0-3.81.21-7.36-.06-10.88A6.76,6.76,0,0,0,60,117.2c-3.24-.07-6.57,2.42-6.85,5.67-.3,3.62-.07,7.28-.07,11.13ZM60.14,76.84c8.43,5.34,8.93,7.15,4.11,14.73a2,2,0,0,0-.12,1.78,1.92,1.92,0,0,0,1.67.53,83.1,83.1,0,0,0,8.12-2,2.58,2.58,0,0,0,1.36-2.1c-1-4.7-2.16-9.37-3.39-14-.15-.57-1.1-1.45-1.51-1.36C66.94,75.08,63.55,76,60.14,76.84Zm-4.93,38.55c-6-8.21-5-15.94,1.53-24-1.44-.12-2.54-.57-3.21-.21-9.38,4.95-10.76,21.29-2.32,28.1.58-.64,1.14-1.32,1.76-1.92S54.31,116.16,55.21,115.39Zm9.34-29.6a4.37,4.37,0,0,0-4.64-4.48,4.07,4.07,0,0,0-4.07,4.37,4.24,4.24,0,0,0,4.58,4.23A4.29,4.29,0,0,0,64.55,85.79Zm.84-21.58-4.75,1.31,2,7.76L67.31,72Zm4.79,34.91,3.17-2.54c-.53-.39-1.19-1.19-1.57-1.07a19.58,19.58,0,0,0-3.25,1.6Z"/><path class="cls-2" d="M112.47,40.09c-.37,4.18-2.62,5.56-6.2,5.47-3.91-.1-7.83,0-11.75,0-2.63,0-4.45-1-5.29-3.72A3.06,3.06,0,0,0,87,40.18c-3.58-.17-7.17,0-10.75-.08-2,0-2.81.95-2.8,2.89,0,3.47.08,6.94,0,10.41a7.33,7.33,0,0,1-1.16,2.44c-.51-.82-1.42-1.62-1.46-2.46-.17-3.58-.13-7.16-.06-10.75s1.7-5.26,5.41-5.32c4.23-.07,8.46,0,12.6,0,2.4-9,4.69-10.51,14.64-10,5.39.26,8.22,3.23,9.21,10,3.93,0,7.93,0,11.93,0,4.85,0,6.37,1.41,6.38,6.11q0,33.93,0,67.85c0,4.4-1.49,5.9-5.82,5.91-9.4,0-18.81,0-28.21,0-1,0-2-.81-3-1.25,1-.48,1.94-1.35,2.92-1.36,9.18-.11,18.36-.14,27.54,0,2.76,0,3.73-.88,3.72-3.68q-.12-33.58,0-67.17c0-2.62-.89-3.65-3.5-3.57C120.6,40.18,116.69,40.09,112.47,40.09Zm-11.75,2.57c2,0,4,.08,6,0a3.5,3.5,0,0,0,2.33-.86c1.82-2.32.22-10-2.64-10.64a25.59,25.59,0,0,0-11.32,0c-3.42.86-3,4.65-3.13,7.7-.12,2.83.71,4.21,3.75,3.88A49,49,0,0,1,100.72,42.66Z"/><path class="cls-2" d="M100.13,89.75A12.93,12.93,0,0,0,113.2,76.81a12.24,12.24,0,0,1,0-2.34c.12-.55.68-1,1-1.49.55.43,1.39.76,1.59,1.32a8,8,0,0,1,.29,3A15.94,15.94,0,0,1,98.41,92.5c-9.51-1.19-15.87-9.88-13.9-19A15.91,15.91,0,0,1,104.7,61.4a3.13,3.13,0,0,1,1.25.47c.91.79,1.74,1.67,2.6,2.52-1.17,0-2.44.42-3.47.07-5.42-1.85-10.83-.78-14.49,3.23a12.59,12.59,0,0,0-2.56,14A12.84,12.84,0,0,0,100.13,89.75Z"/><path class="cls-2" d="M100.43,79.28c4.6-5.37,8.83-10.43,13.22-15.35.7-.79,2.06-1,3.12-1.48-.32,1-.35,2.34-1,3.12-4.27,5.18-8.74,10.2-13,15.4-1.63,2-2.85,2-4.57.2s-3.83-3.44-5.62-5.28c-.46-.48-.36-1.5-.51-2.26.79.07,1.81-.15,2.33.27C96.41,75.49,98.24,77.29,100.43,79.28Z"/><path class="cls-2" d="M73.22,101.72l1.81,2a12,12,0,0,1-2.86,1.68c-.47.13-1.23-.79-1.86-1.24Z"/><path class="cls-2" d="M59.8,126.9c-1-1.77-2-2.72-2-3.62,0-.74,1.46-2.12,1.93-2A3.41,3.41,0,0,1,62,123.43C62.1,124.24,61,125.2,59.8,126.9Z"/><rect class="cls-2" x="85.44" y="81.7" width="8.74" height="6.05" rx="1.47"/></svg>