<svg id="Layer_1" data-name="Layer 1" xmlns="http://www.w3.org/2000/svg" viewBox="0 0 180 180"><defs><style>.cls-1{fill:#014636;}.cls-2{fill:#fff;}</style></defs><circle class="cls-1" cx="88.53" cy="85.25" r="74.3"/><path class="cls-2" d="M29.55,80.77c.08-.58.19-1.15.25-1.73a3.71,3.71,0,0,1,3.29-3.47c2.28-.38,4.57-.73,6.84-1.17a1.45,1.45,0,0,0,1-.84A50.92,50.92,0,0,1,47.39,58a1.48,1.48,0,0,0-.13-1.3C46,54.84,44.67,53,43.38,51.21S42,47.73,43.62,46c2.27-2.44,4.64-4.79,7.07-7.07,1.6-1.48,3.21-1.45,5-.17s3.67,2.57,5.45,3.92a1.23,1.23,0,0,0,1.65,0A46,46,0,0,1,78,36.45,1.2,1.2,0,0,0,79,35.31c.29-2.1.65-4.19,1-6.28.42-2.66,1.61-3.72,4.32-3.88.71,0,1.41-.12,2.12-.15a2.07,2.07,0,0,1,2.4,2.15q.06,8.07,0,16.13c0,1.39-.77,2.07-2.26,2.18-9.3.68-17.54,4-24.23,10.47-11.22,10.9-15.07,24.2-10.73,39.19,4.28,14.8,14.56,23.8,29.58,27.29,1.82.42,3.73.5,5.6.74a2,2,0,0,1,2,2.14q0,8.07,0,16.14a2,2,0,0,1-2.14,2.17,26.05,26.05,0,0,1-3.63-.33,3.36,3.36,0,0,1-2.89-2.87c-.42-2.31-.81-4.64-1.14-7a1.33,1.33,0,0,0-1.2-1.3,46,46,0,0,1-15-6.24,1.28,1.28,0,0,0-1.75.09c-1.75,1.32-3.55,2.59-5.35,3.85s-3.48,1.3-5.12-.24c-2.39-2.26-4.74-4.58-7-7-1.62-1.73-1.6-3.3-.24-5.22s2.52-3.59,3.84-5.35a1.23,1.23,0,0,0,.08-1.65A46.55,46.55,0,0,1,41,95.27a1.22,1.22,0,0,0-1.2-1.13c-2.18-.29-4.34-.7-6.5-1.08-2.32-.4-3.37-1.59-3.55-4,0-.49-.15-1-.23-1.48Z"/><path class="cls-2" d="M88.87,84.35v27.79c0,2.31-.74,2.93-3,2.7a30.67,30.67,0,0,1-.61-61l.82-.11c2-.23,2.8.47,2.81,2.45,0,3,0,6,0,9Z"/><path class="cls-2" d="M93,86.36V82.24h1.52q21.26,0,42.51,0a1.71,1.71,0,0,0,1.83-1,5.94,5.94,0,0,1,6.84-2.85,6.11,6.11,0,0,1,0,11.81,6,6,0,0,1-6.85-2.85,1.7,1.7,0,0,0-1.83-1q-21.27,0-42.52,0Z"/><path class="cls-2" d="M93,76.1V72h29.8c2.25,0,2.89-.63,2.89-2.85,0-2.9,0-5.81,0-8.71a1.44,1.44,0,0,0-.9-1.52,6.06,6.06,0,0,1-3-6.9,6.13,6.13,0,0,1,5.64-4.56A6.1,6.1,0,0,1,130.64,59a1.52,1.52,0,0,0-.92,1.63c0,3,0,6,0,9,0,4-2.51,6.56-6.51,6.56H93Z"/><path class="cls-2" d="M93,96.56v-4h1.29q14.37,0,28.74,0c4.27,0,6.71,2.45,6.72,6.71,0,3,0,6,0,9.07a1.21,1.21,0,0,0,.74,1.27,6.11,6.11,0,1,1-8.7,7,6.15,6.15,0,0,1,3.25-7l.66-.35c0-3.49,0-7,0-10.47,0-1.42-.93-2.11-2.56-2.11H93Z"/><path class="cls-2" d="M93,113v-4c.32,0,.62-.08.92-.08,3,0,6,0,9,0a6.12,6.12,0,0,1,6.41,6.35c0,3.76,0,7.53,0,11.3a1.45,1.45,0,0,0,.86,1.56,6,6,0,0,1,3,7,6.12,6.12,0,0,1-5.92,4.5A6.1,6.1,0,0,1,104.37,128a1.35,1.35,0,0,0,.85-1.43c0-3.65,0-7.29,0-10.94,0-2.08-.63-2.7-2.76-2.71H93Z"/><path class="cls-2" d="M93,59.78V55.69h2.47c2.44,0,4.87,0,7.31,0,1.72,0,2.42-.77,2.43-2.47,0-3.73,0-7.46,0-11.19a1.35,1.35,0,0,0-.84-1.44,6,6,0,0,1-3-7.22,6.13,6.13,0,0,1,12,1.4,5.85,5.85,0,0,1-3.24,5.82,1.41,1.41,0,0,0-.86,1.45c0,3.69,0,7.39,0,11.08,0,4.16-2.53,6.66-6.69,6.66Z"/><path class="cls-2" d="M93,67.91V63.83h19.68a4.37,4.37,0,0,1,1.49.21A1.82,1.82,0,0,1,115.39,66a1.85,1.85,0,0,1-1.4,1.82,3.31,3.31,0,0,1-1,.15H93.66C93.47,68,93.28,67.93,93,67.91Z"/><path class="cls-2" d="M93,104.72v-4c.36,0,.71-.07,1-.07q9.36,0,18.73,0c.47,0,1.09-.07,1.37.19.52.49,1.17,1.19,1.18,1.81s-.61,1.32-1.11,1.85c-.23.25-.81.24-1.23.24-6.44,0-12.88,0-19.32,0C93.46,104.77,93.27,104.74,93,104.72Z"/></svg>