<svg id="Layer_1" data-name="Layer 1" xmlns="http://www.w3.org/2000/svg" viewBox="0 0 180 180"><defs><style>.cls-1{fill:#014636;}.cls-2{fill:#fff;}</style></defs><circle class="cls-1" cx="87.4" cy="84.3" r="74.3"/><path class="cls-2" d="M87.41,90.19H68.67c-1.2,0-1.56-.37-1.54-1.55,0-1.57-.06-3.15.08-4.71A13.82,13.82,0,0,1,80.94,71.39a6.64,6.64,0,0,1,3,.84,7.27,7.27,0,0,0,5,.65,5.35,5.35,0,0,0,1.57-.56,8.27,8.27,0,0,1,6.11-.63,13.85,13.85,0,0,1,11,13.45c0,1.29,0,2.58,0,3.88a1.16,1.16,0,0,1-1.1,1.17c-.16,0-.32,0-.49,0Z"/><path class="cls-2" d="M110.68,83.93a16.75,16.75,0,0,0-6.41-12,14,14,0,0,1,3.2-3.68,13.77,13.77,0,0,1,8.66-3.13,5.78,5.78,0,0,1,2.79.7,7.43,7.43,0,0,0,4.75.88,5.92,5.92,0,0,0,2-.59,8.72,8.72,0,0,1,6.82-.54,13.83,13.83,0,0,1,10.43,13.3c0,1.3,0,2.59,0,3.89a1.13,1.13,0,0,1-1.1,1.15H110.68Z"/><path class="cls-2" d="M70.53,72a16.79,16.79,0,0,0-6.41,12H33.32c-1.06,0-1.45-.42-1.43-1.46,0-1.67-.05-3.35.11-5A13.8,13.8,0,0,1,45.18,65.14a6.56,6.56,0,0,1,3.32.72,7.51,7.51,0,0,0,5.72.64,5.16,5.16,0,0,0,1.15-.44,7.85,7.85,0,0,1,5.48-.74,13.9,13.9,0,0,1,9.53,6.36Z"/><path class="cls-2" d="M100,56A12.55,12.55,0,1,1,87.41,43.39,12.59,12.59,0,0,1,100,56Z"/><path class="cls-2" d="M135.2,49.49a12.57,12.57,0,1,1-12.57-12.35A12.59,12.59,0,0,1,135.2,49.49Z"/><path class="cls-2" d="M39.61,49.72A12.56,12.56,0,1,1,52.16,62.29,12.58,12.58,0,0,1,39.61,49.72Z"/><path class="cls-2" d="M78.26,113.64c1.56,0,3.12,0,4.67,0a.83.83,0,0,0,.9-.65q1.4-4.34,2.8-8.66c.14-.4.18-.93.78-.92s.63.54.77.94Q89.57,108.67,91,113a.86.86,0,0,0,.93.68c3,0,6.1,0,9.15,0a1,1,0,0,1,.39,0c.23.12.55.24.62.44a.87.87,0,0,1-.23.71,8.34,8.34,0,0,1-1.06.79c-2.22,1.61-4.43,3.23-6.65,4.83a.87.87,0,0,0-.37,1.13c1,2.92,1.92,5.85,2.87,8.78l.06.19a.63.63,0,0,1-.21.83.7.7,0,0,1-.86-.1l-5.17-3.75c-.81-.59-1.63-1.16-2.42-1.77a.88.88,0,0,0-1.23,0c-2.48,1.82-5,3.62-7.48,5.44-.3.22-.61.42-1,.16s-.26-.63-.15-1L81,121.62c.23-.72.2-.81-.39-1.24L73.2,115a.52.52,0,0,1-.16-.12c-.11-.25-.32-.51-.3-.75s.36-.47.7-.47Z"/><path class="cls-2" d="M55.86,106c1.44,0,2.88,0,4.32,0,.72,0,.85-.09,1.06-.76L63.94,97c.11-.35.23-.67.67-.68s.58.34.7.7c.86,2.68,1.74,5.36,2.61,8,.3.93.35,1,1.35,1h8.37a1.21,1.21,0,0,0,.19,0,.65.65,0,0,1,.41,1.22l-3.42,2.48c-.93.68-1.86,1.34-2.78,2a1.82,1.82,0,0,1-1.23.4c-.7,0-1.41,0-2.11,0-.32,0-.66.06-.68.41a1,1,0,0,0,.31.74c.85.66,1.75,1.27,2.61,1.92a1.43,1.43,0,0,1,.49.65c.67,2,1.32,4,2,6.07.12.36.18.69-.17.93s-.64.07-.94-.14c-2.37-1.73-4.75-3.44-7.12-5.18a.82.82,0,0,0-1.14,0q-3.48,2.57-7,5.09c-.09.07-.18.18-.28.19s-.59.12-.75,0a.76.76,0,0,1-.21-.71c.31-1.11.68-2.19,1-3.28.57-1.75,1.12-3.5,1.71-5.24a.88.88,0,0,0-.39-1.16c-2.33-1.67-4.65-3.37-7-5.06l-.2-.14a.64.64,0,0,1,.39-1.21C52.87,106,54.36,106,55.86,106Z"/><path class="cls-2" d="M101.43,106h4.28c.77,0,.89-.09,1.13-.83L109.51,97a1.28,1.28,0,0,1,.24-.48c.36-.38.89-.2,1.08.38.79,2.41,1.57,4.83,2.36,7.25.12.37.24.74.37,1.12.22.68.34.77,1,.77,2.8,0,5.6,0,8.41,0,.13,0,.26,0,.39,0,.34,0,.63.08.73.44a.66.66,0,0,1-.35.79l-1.43,1c-1.91,1.39-3.82,2.79-5.74,4.16a.88.88,0,0,0-.37,1.13c.88,2.66,1.75,5.33,2.61,8,.06.17.11.35.16.52s.07.64-.23.76a1,1,0,0,1-.76,0c-.64-.4-1.24-.87-1.85-1.32-1.8-1.31-3.61-2.61-5.4-3.93a.85.85,0,0,0-1.18,0c-2.33,1.71-4.67,3.39-7,5.09l-.2.14c-.28.21-.62.31-.84,0a1,1,0,0,1-.18-.78c.45-1.51,1.06-3,1.41-4.5a5,5,0,0,1,2.56-3.44,6,6,0,0,0,1.15-.84,1,1,0,0,0,.29-.7c0-.35-.34-.44-.67-.43-.78,0-1.57,0-2.36,0a1.66,1.66,0,0,1-.81-.27c-2.12-1.52-4.22-3.06-6.34-4.58-.28-.21-.51-.44-.39-.82s.43-.44.79-.44Z"/><path class="cls-2" d="M124.71,98.52c1.36,0,2.72,0,4.08,0a.86.86,0,0,0,1-.7c.83-2.61,1.69-5.21,2.54-7.81.11-.35.23-.66.66-.67s.59.33.71.68c.83,2.58,1.67,5.15,2.5,7.72.22.69.33.77,1.05.77h8.06c.39,0,.79,0,.93.45s-.17.66-.47.88q-2.28,1.64-4.54,3.29c-.69.5-1.37,1-2.07,1.5a.85.85,0,0,0-.36,1.13c.83,2.5,1.64,5,2.45,7.52.13.41.41.86-.08,1.21s-.82-.06-1.17-.31q-3.21-2.31-6.4-4.66a.86.86,0,0,0-1.18,0c-2.15,1.59-4.32,3.15-6.48,4.72-.11.08-.21.2-.33.22s-.6.14-.75,0a.85.85,0,0,1-.22-.75q1-3.24,2.09-6.46a1.3,1.3,0,0,1,.43-.56c.44-.36.92-.69,1.39-1,.27-.2.51-.46.32-.77a.88.88,0,0,0-.68-.41,3.83,3.83,0,0,1-3-1c-1.65-1.27-3.36-2.46-5-3.68-.29-.22-.54-.45-.41-.85s.47-.44.84-.44Z"/><path class="cls-2" d="M33.57,98.52h4c.71,0,.83-.08,1-.73.83-2.59,1.67-5.17,2.51-7.76.11-.34.23-.67.66-.68s.6.31.71.68q1.27,3.9,2.54,7.8a.87.87,0,0,0,1,.7c2.64,0,5.28,0,7.92,0h.4a.64.64,0,0,1,.73.45c.11.35-.07.58-.35.78l-4.17,3a10.16,10.16,0,0,0-.91.67,3.61,3.61,0,0,1-3,1.05.78.78,0,0,0-.66.41c-.07.19.16.49.27.74,0,0,.05,0,.08.06A4.61,4.61,0,0,1,48.71,109c.39,1.55,1,3.06,1.47,4.58.12.35.18.68-.17.93s-.65.07-.94-.14c-2.21-1.61-4.44-3.21-6.64-4.84a.88.88,0,0,0-1.19,0c-2.21,1.64-4.45,3.25-6.67,4.87-.29.21-.58.34-.9.11a.7.7,0,0,1-.18-.89c0-.14.09-.28.14-.42.8-2.48,1.59-5,2.42-7.43a.9.9,0,0,0-.4-1.16c-2.19-1.57-4.36-3.16-6.53-4.74L29,99.78c-.29-.19-.51-.42-.39-.81s.46-.45.83-.45Z"/></svg>