<svg width="70" height="70" viewBox="0 0 70 70" fill="none" xmlns="http://www.w3.org/2000/svg">
<path d="M34.75 0L35.2309 30.2557C35.2504 31.4728 36.7137 32.0789 37.588 31.232L59.3221 10.178L38.2681 31.9121C37.4212 32.7864 38.0273 34.2497 39.2442 34.2691L69.5 34.75L39.2442 35.2309C38.0273 35.2504 37.4212 36.7137 38.2681 37.588L59.3221 59.3221L37.588 38.2681C36.7137 37.4212 35.2504 38.0273 35.2309 39.2442L34.75 69.5L34.2691 39.2442C34.2497 38.0273 32.7864 37.4212 31.9121 38.2681L10.178 59.3221L31.232 37.588C32.0789 36.7137 31.4728 35.2504 30.2557 35.2309L0 34.75L30.2557 34.2691C31.4728 34.2497 32.0789 32.7864 31.232 31.9121L10.178 10.178L31.9121 31.232C32.7864 32.0789 34.2497 31.4728 34.2691 30.2557L34.75 0Z" fill="#3D3D3D" fill-opacity="0.26"/>
</svg>
