<svg width="40" height="40" viewBox="0 0 40 40" fill="none" xmlns="http://www.w3.org/2000/svg">
<rect x="-1" y="1" width="37.696" height="38" rx="18.848" transform="matrix(-1 0 0 1 37.696 0)" stroke="#084237" stroke-width="2"/>
<g clip-path="url(#clip0_93_2980)">
<g clip-path="url(#clip1_93_2980)">
<g clip-path="url(#clip2_93_2980)">
<path d="M9.97227 20.606L16.3294 26.5998C16.5006 26.7558 16.73 26.8421 16.9681 26.8401C17.2063 26.8381 17.434 26.7481 17.6024 26.5894C17.7708 26.4306 17.8663 26.2158 17.8684 25.9913C17.8704 25.7668 17.7789 25.5505 17.6135 25.389L12.8066 20.8569H28.7774C29.0182 20.8569 29.2492 20.7667 29.4196 20.6061C29.5899 20.4455 29.6855 20.2278 29.6855 20.0006C29.6855 19.7736 29.5899 19.5558 29.4196 19.3952C29.2492 19.2346 29.0182 19.1444 28.7774 19.1444H12.8066L17.6135 14.6123C17.7002 14.5333 17.7694 14.4388 17.817 14.3343C17.8646 14.2299 17.8896 14.1175 17.8907 14.0038C17.8917 13.8901 17.8688 13.7774 17.8231 13.6722C17.7775 13.5669 17.71 13.4713 17.6248 13.3909C17.5395 13.3105 17.4381 13.247 17.3264 13.2039C17.2148 13.1608 17.0952 13.1392 16.9747 13.1402C16.8541 13.1412 16.7349 13.1648 16.6241 13.2097C16.5133 13.2545 16.4131 13.3198 16.3294 13.4015L9.97227 19.3953C9.802 19.5558 9.70638 19.7736 9.70638 20.0006C9.70638 20.2277 9.802 20.4454 9.97227 20.606Z" fill="#084237"/>
</g>
</g>
</g>
<defs>
<clipPath id="clip0_93_2980">
<rect width="20" height="13.7" fill="white" transform="matrix(-1 0 0 1 29.696 13.1401)"/>
</clipPath>
<clipPath id="clip1_93_2980">
<rect width="20" height="13.7" fill="white" transform="matrix(-1 0 0 1 29.696 13.1401)"/>
</clipPath>
<clipPath id="clip2_93_2980">
<rect width="19.9792" height="13.7" fill="white" transform="matrix(-1 0 0 1 29.6855 13.1401)"/>
</clipPath>
</defs>
</svg>
