<svg width="40" height="40" viewBox="0 0 40 40" fill="none" xmlns="http://www.w3.org/2000/svg">
<rect x="1" y="1" width="37.696" height="38" rx="18.848" stroke="#084237" stroke-width="2"/>
<g clip-path="url(#clip0_93_2975)">
<g clip-path="url(#clip1_93_2975)">
<g clip-path="url(#clip2_93_2975)">
<path d="M29.7236 20.606L23.3666 26.5998C23.1953 26.7558 22.9659 26.8421 22.7278 26.8401C22.4896 26.8381 22.2619 26.7481 22.0935 26.5894C21.9252 26.4306 21.8297 26.2158 21.8275 25.9913C21.8255 25.7668 21.917 25.5505 22.0825 25.389L26.8893 20.8569H10.9185C10.6777 20.8569 10.4467 20.7667 10.2764 20.6061C10.1061 20.4455 10.0104 20.2278 10.0104 20.0006C10.0104 19.7736 10.1061 19.5558 10.2764 19.3952C10.4467 19.2346 10.6777 19.1444 10.9185 19.1444H26.8893L22.0825 14.6123C21.9957 14.5333 21.9265 14.4388 21.8789 14.3343C21.8314 14.2299 21.8063 14.1175 21.8052 14.0038C21.8042 13.8901 21.8271 13.7774 21.8728 13.6722C21.9185 13.5669 21.9859 13.4713 22.0712 13.3909C22.1565 13.3105 22.2578 13.247 22.3695 13.2039C22.4811 13.1608 22.6007 13.1392 22.7212 13.1402C22.8419 13.1412 22.961 13.1648 23.0718 13.2097C23.1826 13.2545 23.2828 13.3198 23.3666 13.4015L29.7236 19.3953C29.8939 19.5558 29.9895 19.7736 29.9895 20.0006C29.9895 20.2277 29.8939 20.4454 29.7236 20.606Z" fill="#084237"/>
</g>
</g>
</g>
<defs>
<clipPath id="clip0_93_2975">
<rect width="20" height="13.7" fill="white" transform="translate(10 13.1401)"/>
</clipPath>
<clipPath id="clip1_93_2975">
<rect width="20" height="13.7" fill="white" transform="translate(10 13.1401)"/>
</clipPath>
<clipPath id="clip2_93_2975">
<rect width="19.9792" height="13.7" fill="white" transform="translate(10.0104 13.1401)"/>
</clipPath>
</defs>
</svg>
