<svg width="13" height="14" viewBox="0 0 13 14" fill="none" xmlns="http://www.w3.org/2000/svg">
<path d="M2.55667 1.77573C2.6 2.43996 2.70833 3.08926 2.88167 3.70871L2.015 4.6043C1.71889 3.70871 1.53111 2.76088 1.46611 1.77573H2.55667ZM9.67778 10.7465C10.2917 10.9257 10.92 11.0376 11.5556 11.0824V12.1944C10.6022 12.1272 9.685 11.9332 8.81111 11.6347L9.67778 10.7465ZM3.25 0.283081H0.722222C0.325 0.283081 0 0.618927 0 1.0294C0 8.03739 5.49611 13.7169 12.2778 13.7169C12.675 13.7169 13 13.3811 13 12.9706V10.3659C13 9.95544 12.675 9.61959 12.2778 9.61959C11.3822 9.61959 10.5083 9.47033 9.69944 9.19419C9.62722 9.16433 9.54778 9.15687 9.47556 9.15687C9.28778 9.15687 9.10722 9.2315 8.96278 9.37331L7.37389 11.0152C5.33 9.93305 3.65444 8.20904 2.61444 6.09694L4.20333 4.45503C4.40556 4.24606 4.46333 3.95499 4.38389 3.69378C4.11667 2.8579 3.97222 1.96231 3.97222 1.0294C3.97222 0.618927 3.64722 0.283081 3.25 0.283081Z" fill="white"/>
</svg>
