<svg width="31" height="31" viewBox="0 0 31 31" fill="none" xmlns="http://www.w3.org/2000/svg">
<circle cx="15.5" cy="15.5" r="15.5" fill="#CD0000"/>
<path d="M22.295 11.115C22.6844 10.7256 22.6844 10.0944 22.295 9.705C21.9056 9.31564 21.2744 9.31564 20.885 9.705L16.7071 13.8829C16.3166 14.2734 15.6834 14.2734 15.2929 13.8829L11.115 9.705C10.7256 9.31564 10.0944 9.31564 9.705 9.705C9.31564 10.0944 9.31564 10.7256 9.705 11.115L13.8829 15.2929C14.2734 15.6834 14.2734 16.3166 13.8829 16.7071L9.705 20.885C9.31564 21.2744 9.31564 21.9056 9.705 22.295C10.0944 22.6844 10.7256 22.6844 11.115 22.295L15.2929 18.1171C15.6834 17.7266 16.3166 17.7266 16.7071 18.1171L20.885 22.295C21.2744 22.6844 21.9056 22.6844 22.295 22.295C22.6844 21.9056 22.6844 21.2744 22.295 20.885L18.1171 16.7071C17.7266 16.3166 17.7266 15.6834 18.1171 15.2929L22.295 11.115Z" fill="white"/>
</svg>
