<svg width="123" height="35" viewBox="0 0 123 35" fill="none" xmlns="http://www.w3.org/2000/svg">
<path fill-rule="evenodd" clip-rule="evenodd" d="M83.9515 0.0849609C84.0557 0.0849609 84.1606 0.0849609 84.2647 0.0849609C84.2389 7.68448 84.2647 15.2264 84.343 22.7105C86.5069 21.1063 88.6724 19.5014 90.841 17.8957C91.0109 17.7261 91.18 17.5565 91.3499 17.3869C91.4023 17.2563 91.4023 17.1259 91.3499 16.9954C90.43 15.2865 89.4905 13.5903 88.5314 11.9066C88.3694 11.6349 88.252 11.3478 88.1791 11.0454C92.4068 11.0194 96.6344 11.0454 100.862 11.1237C98.1313 13.2931 95.3653 15.42 92.5633 17.5043C92.3927 17.6215 92.2885 17.7781 92.2502 17.974C94.3726 22.4098 96.5255 26.8331 98.709 31.244C98.9509 31.6489 99.2116 32.0404 99.4919 32.4184C100.094 33.1115 100.681 33.8161 101.253 34.5322C97.4173 34.6105 93.5811 34.6365 89.7449 34.6105C88.1893 30.9504 86.6102 27.2968 85.0084 23.65C84.8331 23.3789 84.5849 23.2746 84.2647 23.3368C84.2514 26.051 84.2647 28.765 84.3038 31.4789C84.3602 31.6706 84.4385 31.8533 84.5387 32.0269C85.1948 32.8261 85.8344 33.6351 86.4568 34.4539C81.851 34.5321 77.232 34.5582 72.5996 34.5322C73.1735 33.6997 73.7865 32.8908 74.4394 32.1052C74.5733 31.9129 74.6774 31.7041 74.7526 31.4789C74.805 22.5279 74.805 13.5768 74.7526 4.62573C74.6633 4.34295 74.5326 4.08193 74.3611 3.84284C73.6949 3.08101 73.1077 2.27205 72.5996 1.41588C76.3841 0.976909 80.1678 0.533323 83.9515 0.0849609Z" fill="white"/>
<path fill-rule="evenodd" clip-rule="evenodd" d="M83.9515 0.0859638C84.0626 0.0115108 84.1934 -0.0145594 84.3429 0.00767468C84.3429 7.57565 84.3429 15.1435 84.3429 22.7115C84.2646 15.2274 84.2388 7.68549 84.2646 0.0859638C84.1605 0.0859638 84.0556 0.0859638 83.9515 0.0859638Z" fill="#CCD5D3"/>
<path fill-rule="evenodd" clip-rule="evenodd" d="M11.7689 10.6554C14.0911 10.5249 16.3354 10.8772 18.5018 11.7123C21.0167 12.8136 22.6739 14.6796 23.4731 17.3099C23.9468 18.9209 24.1034 20.565 23.9429 22.2422C19.2902 22.3203 14.632 22.3464 9.96827 22.3204C9.87848 24.122 10.3352 25.7661 11.3383 27.2527C13.1803 29.3027 15.4637 30.0465 18.1886 29.4839C20.5182 29.1214 22.3189 27.9602 23.5906 26C22.6561 31.1749 19.5768 34.1368 14.3525 34.8858C11.0553 35.2807 7.97597 34.6544 5.11435 33.0069C2.2593 31.0975 0.602194 28.4227 0.142989 24.9823C-0.232947 22.1638 0.132405 19.4498 1.23904 16.8402C2.97463 13.6279 5.64953 11.6837 9.26367 11.0077C10.1068 10.8625 10.9419 10.7451 11.7689 10.6554Z" fill="white"/>
<path fill-rule="evenodd" clip-rule="evenodd" d="M57.8029 10.6544C60.397 10.5642 62.9284 10.9165 65.397 11.7113C69.6928 13.4258 72.0545 16.5965 72.4821 21.2234C72.7773 24.0901 72.2817 26.8041 70.9946 29.3655C69.7736 31.3427 68.0904 32.7911 65.945 33.7106C63.0171 34.8192 59.9899 35.2107 56.8635 34.8849C54.1987 34.6752 51.7718 33.8141 49.5826 32.3014C47.1766 30.2691 45.8327 27.6725 45.5507 24.5116C45.2547 21.9038 45.6201 19.3985 46.6467 16.9958C48.0878 14.2508 50.293 12.411 53.2622 11.4764C54.7567 11.0405 56.2703 10.7664 57.8029 10.6544Z" fill="white"/>
<path fill-rule="evenodd" clip-rule="evenodd" d="M110.491 10.6556C112.918 10.5217 115.266 10.874 117.537 11.7125C120.257 12.9877 121.966 15.0884 122.665 18.0148C122.997 19.4368 123.088 20.8721 122.939 22.3207C118.268 22.3207 113.597 22.3207 108.926 22.3207C108.897 24.267 109.457 26.0154 110.609 27.5661C112.258 29.2294 114.255 29.8948 116.598 29.5624C119.153 29.3358 121.15 28.1745 122.587 26.0786C121.611 31.3343 118.467 34.2701 113.153 34.8861C109.355 35.3265 105.937 34.4131 102.897 32.146C100.667 30.1247 99.401 27.6064 99.1004 24.5911C98.7544 21.5792 99.2758 18.7347 100.666 16.0576C102.148 13.6765 104.249 12.0977 106.968 11.3211C108.136 11.0052 109.31 10.7833 110.491 10.6556Z" fill="white"/>
<path fill-rule="evenodd" clip-rule="evenodd" d="M23.0425 11.0469C27.4009 11.0208 31.759 11.0469 36.1168 11.1252C35.6371 12.2379 35.1804 13.36 34.7467 14.4916C34.6945 14.7265 34.6945 14.9613 34.7467 15.1962C36.177 19.7871 37.5992 24.3801 39.0135 28.9751C40.0399 25.9086 41.0447 22.8292 42.0276 19.737C42.0933 19.3126 42.0672 18.8951 41.9493 18.4844C40.949 16.0401 39.9704 13.5871 39.0135 11.1252C41.8575 11.0469 44.702 11.0208 47.547 11.0469C46.0228 14.0429 44.4962 17.044 42.9671 20.0501C41.396 24.8808 39.8172 29.7087 38.2306 34.5336C37.0432 34.5597 35.8558 34.5858 34.6684 34.6119C33.4507 34.6113 32.2503 34.5591 31.0671 34.4553C29.1985 28.719 27.3456 22.9778 25.5086 17.2317C24.7395 15.1455 23.9174 13.0839 23.0425 11.0469Z" fill="white"/>
<path fill-rule="evenodd" clip-rule="evenodd" d="M12.082 11.672C13.0335 11.4505 13.7772 11.7376 14.3133 12.5331C14.7442 13.3691 15.0051 14.2564 15.0962 15.195C15.2703 17.2523 15.3356 19.314 15.2919 21.3798C13.5173 21.3798 11.7428 21.3798 9.96822 21.3798C9.86863 19.0146 10.0121 16.6659 10.3988 14.3338C10.5453 13.4014 10.9497 12.6055 11.6123 11.946C11.7866 11.8723 11.9432 11.7809 12.082 11.672Z" fill="#084237"/>
<path fill-rule="evenodd" clip-rule="evenodd" d="M58.2727 11.6733C59.3683 11.4194 60.2164 11.7586 60.8171 12.6911C61.1617 13.3858 61.3966 14.1164 61.5217 14.8832C61.678 16.1596 61.8085 17.4383 61.9131 18.7194C61.9653 21.3551 61.9653 23.9908 61.9131 26.6266C61.8755 28.6237 61.5885 30.581 61.0519 32.4983C60.4068 33.9621 59.3499 34.3666 57.8812 33.7117C57.222 33.1113 56.8175 32.3676 56.6678 31.4805C56.3429 29.7474 56.1601 27.999 56.1197 26.2351C56.0675 23.9125 56.0675 21.59 56.1197 19.2674C56.1455 17.4183 56.3543 15.5916 56.746 13.7872C56.9523 12.8488 57.4611 12.1442 58.2727 11.6733Z" fill="#084237"/>
<path fill-rule="evenodd" clip-rule="evenodd" d="M111.118 11.6731C112.507 11.5084 113.382 12.1086 113.74 13.4737C113.985 14.398 114.141 15.3375 114.21 16.2921C114.306 17.987 114.345 19.6833 114.328 21.3809C112.527 21.3809 110.726 21.3809 108.926 21.3809C108.968 20.0242 109.007 18.6672 109.043 17.3099C109.08 15.8916 109.315 14.5085 109.748 13.1606C110.034 12.4961 110.491 12.0003 111.118 11.6731Z" fill="#084237"/>
<path fill-rule="evenodd" clip-rule="evenodd" d="M86.4568 34.4551C86.4991 34.4598 86.5257 34.4858 86.5351 34.5334C81.8769 34.6376 77.232 34.6376 72.5996 34.5334C77.232 34.5594 81.851 34.5333 86.4568 34.4551Z" fill="white"/>
</svg>
