<svg width="99" height="28" viewBox="0 0 99 28" fill="none" xmlns="http://www.w3.org/2000/svg">
<path fill-rule="evenodd" clip-rule="evenodd" d="M67.1612 0.0687714C67.2445 0.0687714 67.3284 0.0687714 67.4117 0.0687714C67.391 6.14839 67.4117 12.1819 67.4743 18.1692C69.2055 16.8858 70.9379 15.6019 72.6727 14.3174C72.8087 14.1817 72.9439 14.046 73.0798 13.9103C73.1218 13.8059 73.1218 13.7015 73.0798 13.5971C72.3439 12.23 71.5924 10.873 70.8251 9.5261C70.6955 9.3087 70.6015 9.07903 70.5433 8.83715C73.9254 8.8163 77.3075 8.83715 80.6895 8.89978C78.505 10.6353 76.2922 12.3368 74.0506 14.0042C73.9141 14.098 73.8308 14.2233 73.8001 14.38C75.498 17.9286 77.2204 21.4673 78.9672 24.996C79.1607 25.32 79.3693 25.6331 79.5935 25.9355C80.0751 26.49 80.5449 27.0537 81.0027 27.6265C77.9338 27.6892 74.8648 27.71 71.7959 27.6892C70.5514 24.7611 69.2881 21.8383 68.0067 18.9208C67.8664 18.704 67.6679 18.6205 67.4117 18.6703C67.4011 20.8416 67.4117 23.0128 67.443 25.1839C67.4881 25.3373 67.5508 25.4835 67.6309 25.6223C68.1558 26.2617 68.6675 26.9089 69.1654 27.5639C65.4808 27.6265 61.7855 27.6473 58.0797 27.6265C58.5387 26.9606 59.0291 26.3134 59.5515 25.685C59.6586 25.5311 59.7419 25.3641 59.802 25.1839C59.844 18.0231 59.844 10.8622 59.802 3.70139C59.7306 3.47516 59.626 3.26635 59.4889 3.07507C58.9559 2.46561 58.4861 1.81844 58.0797 1.1335C61.1072 0.78233 64.1342 0.427461 67.1612 0.0687714Z" fill="#1F4A3F"/>
<path fill-rule="evenodd" clip-rule="evenodd" d="M67.1612 0.068771C67.2501 0.00920868 67.3547 -0.0116475 67.4744 0.00613974C67.4744 6.06052 67.4744 12.1148 67.4744 18.1692C67.4117 12.1819 67.3911 6.14839 67.4117 0.068771C67.3284 0.068771 67.2445 0.068771 67.1612 0.068771Z" fill="#CCD5D3"/>
<path fill-rule="evenodd" clip-rule="evenodd" d="M9.41514 8.524C11.2728 8.4196 13.0683 8.70144 14.8014 9.36953C16.8134 10.2506 18.1391 11.7434 18.7785 13.8477C19.1574 15.1364 19.2827 16.4517 19.1543 17.7934C15.4322 17.8559 11.7056 17.8768 7.97462 17.8561C7.90278 19.2973 8.26817 20.6126 9.07067 21.8018C10.5443 23.4419 12.371 24.0369 14.5509 23.5868C16.4146 23.2968 17.8551 22.3678 18.8725 20.7997C18.1249 24.9396 15.6614 27.3091 11.482 27.9084C8.84425 28.2243 6.38078 27.7233 4.09148 26.4052C1.80744 24.8777 0.481755 22.7379 0.114391 19.9855C-0.186358 17.7307 0.105924 15.5596 0.99123 13.4719C2.3797 10.9021 4.51963 9.34667 7.41094 8.80585C8.08548 8.68973 8.7535 8.59578 9.41514 8.524Z" fill="#1F4A3F"/>
<path fill-rule="evenodd" clip-rule="evenodd" d="M46.2423 8.524C48.3176 8.45185 50.3427 8.73369 52.3176 9.36952C55.7543 10.7411 57.6436 13.2777 57.9857 16.9792C58.2218 19.2725 57.8254 21.4438 56.7957 23.4929C55.8189 25.0746 54.4723 26.2333 52.756 26.9689C50.4136 27.8558 47.9919 28.169 45.4908 27.9084C43.359 27.7407 41.4174 27.0517 39.6661 25.8416C37.7413 24.2158 36.6661 22.1385 36.4405 19.6097C36.2038 17.5235 36.4961 15.5193 37.3174 13.5971C38.4702 11.4011 40.2344 9.92926 42.6097 9.18163C43.8054 8.83283 45.0162 8.61362 46.2423 8.524Z" fill="#1F4A3F"/>
<path fill-rule="evenodd" clip-rule="evenodd" d="M88.3932 8.524C90.3341 8.41684 92.2131 8.69868 94.03 9.36952C96.2058 10.3897 97.573 12.0702 98.1323 14.4113C98.3979 15.549 98.4706 16.6972 98.3516 17.8561C94.6143 17.8561 90.8778 17.8561 87.1406 17.8561C87.1174 19.4131 87.5658 20.8118 88.4871 22.0524C89.8068 23.383 91.4039 23.9154 93.2784 23.6495C95.3227 23.4681 96.9198 22.5391 98.0697 20.8624C97.2887 25.0669 94.7734 27.4156 90.5226 27.9084C87.4844 28.2608 84.7493 27.53 82.3179 25.7163C80.5336 24.0993 79.5208 22.0846 79.2803 19.6724C79.0035 17.2629 79.4206 14.9873 80.5329 12.8456C81.7186 10.9407 83.3996 9.67767 85.5748 9.05637C86.5086 8.80365 87.4481 8.62615 88.3932 8.524Z" fill="#204A3F"/>
<path fill-rule="evenodd" clip-rule="evenodd" d="M18.434 8.83715C21.9208 8.81629 25.4072 8.83715 28.8934 8.89978C28.5097 9.78996 28.1444 10.6877 27.7974 11.5929C27.7556 11.7808 27.7556 11.9687 27.7974 12.1566C28.9416 15.8293 30.0794 19.5037 31.2108 23.1797C32.032 20.7265 32.8358 18.263 33.6221 15.7892C33.6747 15.4497 33.6538 15.1157 33.5595 14.7871C32.7592 12.8317 31.9763 10.8693 31.2108 8.89978C33.486 8.83715 35.7617 8.81629 38.0376 8.83715C36.8183 11.234 35.597 13.6348 34.3737 16.0397C33.1168 19.9043 31.8538 23.7666 30.5845 27.6265C29.6346 27.6474 28.6847 27.6683 27.7348 27.6892C26.7606 27.6887 25.8003 27.6469 24.8537 27.5639C23.3588 22.9748 21.8766 18.3818 20.4069 13.785C19.7916 12.116 19.134 10.4668 18.434 8.83715Z" fill="#1F4A3F"/>
<path fill-rule="evenodd" clip-rule="evenodd" d="M9.66566 9.33821C10.4268 9.16102 11.0218 9.39069 11.4506 10.0272C11.7954 10.6959 12.0041 11.4057 12.077 12.1566C12.2163 13.8025 12.2685 15.4518 12.2335 17.1045C10.8139 17.1045 9.39427 17.1045 7.97461 17.1045C7.89494 15.2123 8.00975 13.3334 8.31908 11.4677C8.43627 10.7218 8.75982 10.085 9.28987 9.55742C9.42935 9.49848 9.55461 9.42539 9.66566 9.33821Z" fill="#FDFDFD"/>
<path fill-rule="evenodd" clip-rule="evenodd" d="M46.6181 9.3382C47.4946 9.13503 48.1731 9.40641 48.6537 10.1524C48.9294 10.7081 49.1172 11.2927 49.2173 11.9061C49.3424 12.9272 49.4468 13.9502 49.5305 14.975C49.5723 17.0836 49.5723 19.1922 49.5305 21.3008C49.5004 22.8985 49.2708 24.4643 48.8415 25.9981C48.3255 27.1692 47.4799 27.4928 46.305 26.9689C45.7776 26.4886 45.454 25.8936 45.3342 25.1839C45.0743 23.7975 44.9281 22.3987 44.8958 20.9876C44.854 19.1295 44.854 17.2715 44.8958 15.4134C44.9164 13.9342 45.0834 12.4728 45.3968 11.0292C45.5618 10.2786 45.9689 9.71487 46.6181 9.3382Z" fill="#FEFEFE"/>
<path fill-rule="evenodd" clip-rule="evenodd" d="M88.8942 9.33821C90.0059 9.20643 90.7055 9.68662 90.9924 10.7787C91.1878 11.5182 91.3131 12.2697 91.3682 13.0335C91.4446 14.3894 91.4759 15.7464 91.4621 17.1045C90.0216 17.1045 88.5811 17.1045 87.1406 17.1045C87.1744 16.0191 87.2057 14.9335 87.2345 13.8477C87.2639 12.713 87.4518 11.6065 87.7982 10.5282C88.0274 9.99665 88.3926 9.60001 88.8942 9.33821Z" fill="#FDFDFD"/>
<path fill-rule="evenodd" clip-rule="evenodd" d="M69.1654 27.5639C69.1992 27.5677 69.2205 27.5885 69.228 27.6265C65.5015 27.7099 61.7855 27.7099 58.0797 27.6265C61.7855 27.6473 65.4808 27.6265 69.1654 27.5639Z" fill="#617C74"/>
</svg>
