<svg width="16" height="16" viewBox="0 0 16 16" fill="none" xmlns="http://www.w3.org/2000/svg">
<path fill-rule="evenodd" clip-rule="evenodd" d="M5.31225 0.144531H10.9777C13.5847 0.144531 15.6989 2.25868 15.6989 4.86572V10.5311C15.6989 13.1382 13.5847 15.2523 10.9777 15.2523H5.31225C2.70521 15.2523 0.591064 13.1382 0.591064 10.5311V4.86572C0.591064 2.25868 2.70521 0.144531 5.31225 0.144531ZM10.9777 13.836C12.8 13.836 14.2825 12.3535 14.2825 10.5311V4.86572C14.2825 3.04334 12.8 1.56089 10.9777 1.56089H5.31225C3.48987 1.56089 2.00742 3.04334 2.00742 4.86572V10.5311C2.00742 12.3535 3.48987 13.836 5.31225 13.836H10.9777Z" fill="white"/>
<path fill-rule="evenodd" clip-rule="evenodd" d="M4.36804 7.69882C4.36804 5.613 6.05917 3.92188 8.14499 3.92188C10.2308 3.92188 11.9219 5.613 11.9219 7.69882C11.9219 9.78464 10.2308 11.4758 8.14499 11.4758C6.05917 11.4758 4.36804 9.78464 4.36804 7.69882ZM5.78437 7.69904C5.78437 9.00019 6.8438 10.0596 8.14496 10.0596C9.44612 10.0596 10.5056 9.00019 10.5056 7.69904C10.5056 6.39693 9.44612 5.33844 8.14496 5.33844C6.8438 5.33844 5.78437 6.39693 5.78437 7.69904Z" fill="white"/>
<circle cx="12.2052" cy="3.63804" r="0.503278" fill="white"/>
</svg>
