<svg width="13" height="13" viewBox="0 0 13 13" fill="none" xmlns="http://www.w3.org/2000/svg">
<path d="M0.69519 4.28231H3.11155V12.4979H0.69519V4.28231ZM1.89612 3.31577H1.88259C1.16155 3.31577 0.69519 2.77837 0.69519 2.10711C0.69519 1.42135 1.17605 0.899414 1.91013 0.899414C2.64519 0.899414 3.09802 1.42135 3.11155 2.10711C3.11155 2.77789 2.64519 3.31577 1.89612 3.31577ZM12.2937 12.4979H9.87735V8.10064C9.87735 7.03841 9.28534 6.3135 8.33474 6.3135C7.60935 6.3135 7.21694 6.80257 7.02653 7.27521C6.95694 7.44436 6.97772 7.91216 6.97772 8.14848V12.4979H4.56136V4.28231H6.97772V5.54655C7.32616 5.00722 7.87177 4.28231 9.26746 4.28231C10.9966 4.28231 12.2932 5.36967 12.2932 7.79763L12.2937 12.4979Z" fill="white"/>
</svg>
