<svg width="15" height="21" viewBox="0 0 15 21" fill="none" xmlns="http://www.w3.org/2000/svg">
<path d="M7.96184 0.275162C4.09741 0.275162 0.971924 3.40065 0.971924 7.26508C0.971924 12.5075 7.96184 20.2463 7.96184 20.2463C7.96184 20.2463 14.9518 12.5075 14.9518 7.26508C14.9518 3.40065 11.8263 0.275162 7.96184 0.275162ZM2.96904 7.26508C2.96904 4.50905 5.20581 2.27228 7.96184 2.27228C10.7179 2.27228 12.9546 4.50905 12.9546 7.26508C12.9546 10.1409 10.0788 14.4447 7.96184 17.1308C5.88483 14.4647 2.96904 10.111 2.96904 7.26508Z" fill="#084237"/>
<path d="M7.96185 9.76149C9.34057 9.76149 10.4582 8.64381 10.4582 7.26509C10.4582 5.88637 9.34057 4.76869 7.96185 4.76869C6.58313 4.76869 5.46545 5.88637 5.46545 7.26509C5.46545 8.64381 6.58313 9.76149 7.96185 9.76149Z" fill="#084237"/>
</svg>
