<svg width="15" height="13" viewBox="0 0 15 13" fill="none" xmlns="http://www.w3.org/2000/svg">
<path d="M14.6826 0.922478C14.0918 1.20157 13.0864 1.72495 12.5811 1.82499C12.5616 1.83006 12.5456 1.83659 12.5268 1.84166C11.9374 1.26028 11.1299 0.900006 10.2361 0.900006C8.43467 0.900006 6.97398 2.36069 6.97398 4.16209C6.97398 4.25705 6.96601 4.43175 6.97398 4.52454C4.64123 4.52454 2.9377 3.30742 1.66259 1.74307C1.49224 1.53285 1.31101 1.64231 1.27331 1.79164C1.1885 2.12945 1.1595 2.69415 1.1595 3.0972C1.1595 4.11279 1.95328 5.11027 3.18924 5.72861C2.96162 5.78733 2.71081 5.82937 2.44984 5.82937C2.14248 5.82937 1.78872 5.74891 1.47919 5.58653C1.36465 5.52636 1.11746 5.54303 1.19068 5.8359C1.48426 7.00952 2.82389 7.83374 4.02071 8.07369C3.74887 8.23389 3.16895 8.20127 2.90218 8.20127C2.80359 8.20127 2.46071 8.17807 2.23889 8.15053C2.03664 8.12588 1.72566 8.17807 1.9859 8.57242C2.5448 9.41839 3.80904 9.94974 4.89712 9.97004C3.8953 10.7558 2.25701 11.0429 0.68759 11.0429C0.37008 11.0357 0.386028 11.3974 0.641921 11.5315C1.7996 12.139 3.69595 12.4985 5.05081 12.4985C10.4369 12.4985 13.4981 8.39337 13.4981 4.52382C13.4981 4.46147 13.4967 4.33099 13.4945 4.19978C13.4945 4.18673 13.4981 4.17441 13.4981 4.16136C13.4981 4.14179 13.4923 4.12294 13.4923 4.10337C13.4902 4.00478 13.488 3.91272 13.4858 3.86488C13.9128 3.55679 14.5667 3.02181 14.8972 2.61224C15.0096 2.47305 14.919 2.30415 14.766 2.35707C14.3724 2.49408 13.6917 2.75939 13.2655 2.81014C14.1187 2.24543 14.5406 1.75395 14.903 1.20809C15.027 1.02179 14.8718 0.832589 14.6826 0.922478Z" fill="white"/>
</svg>
