<svg width="25" height="18" viewBox="0 0 25 18" fill="none" xmlns="http://www.w3.org/2000/svg">
<path d="M24.0129 2.78072C23.8748 2.26105 23.6026 1.78677 23.2236 1.40534C22.8447 1.0239 22.3721 0.748701 21.8533 0.607273C19.9436 0.0937501 12.3101 0.09375 12.3101 0.09375C12.3101 0.09375 4.67669 0.0937501 2.76694 0.607273C2.24816 0.748701 1.77563 1.0239 1.39663 1.40534C1.01764 1.78677 0.745468 2.26105 0.607366 2.78072C0.0966187 4.6988 0.0966187 8.69873 0.0966187 8.69873C0.0966187 8.69873 0.0966187 12.6987 0.607366 14.6167C0.745468 15.1364 1.01764 15.6107 1.39663 15.9921C1.77563 16.3736 2.24816 16.6488 2.76694 16.7902C4.67669 17.3037 12.3101 17.3037 12.3101 17.3037C12.3101 17.3037 19.9436 17.3037 21.8533 16.7902C22.3721 16.6488 22.8447 16.3736 23.2236 15.9921C23.6026 15.6107 23.8748 15.1364 24.0129 14.6167C24.5237 12.6987 24.5237 8.69873 24.5237 8.69873C24.5237 8.69873 24.5237 4.6988 24.0129 2.78072Z" fill="white"/>
<path d="M9.81195 12.3307V5.06641L16.1963 8.69854L9.81195 12.3307Z" fill="#084237"/>
</svg>
