<svg width="99" height="28" viewBox="0 0 99 28" fill="none" xmlns="http://www.w3.org/2000/svg">
<path fill-rule="evenodd" clip-rule="evenodd" d="M67.1616 0.068779C67.2449 0.068779 67.3288 0.068779 67.4121 0.068779C67.3915 6.1484 67.4121 12.1819 67.4748 18.1692C69.2059 16.8858 70.9383 15.6019 72.6732 14.3174C72.8091 14.1817 72.9444 14.046 73.0803 13.9103C73.1222 13.8059 73.1222 13.7015 73.0803 13.5971C72.3444 12.23 71.5928 10.8731 70.8255 9.5261C70.6959 9.30871 70.602 9.07904 70.5437 8.83716C73.9258 8.8163 77.3079 8.83716 80.69 8.89979C78.5054 10.6353 76.2926 12.3368 74.0511 14.0042C73.9145 14.098 73.8312 14.2233 73.8005 14.38C75.4985 17.9287 77.2208 21.4673 78.9676 24.996C79.1611 25.32 79.3697 25.6331 79.5939 25.9355C80.0756 26.49 80.5453 27.0537 81.0031 27.6265C77.9342 27.6892 74.8653 27.71 71.7963 27.6892C70.5518 24.7611 69.2886 21.8383 68.0071 18.9208C67.8668 18.704 67.6683 18.6205 67.4121 18.6703C67.4015 20.8416 67.4121 23.0128 67.4435 25.1839C67.4886 25.3373 67.5512 25.4835 67.6314 25.6223C68.1562 26.2617 68.6679 26.9089 69.1658 27.5639C65.4812 27.6265 61.786 27.6473 58.0801 27.6265C58.5392 26.9606 59.0296 26.3134 59.5519 25.685C59.659 25.5312 59.7423 25.3641 59.8024 25.1839C59.8444 18.0231 59.8444 10.8622 59.8024 3.70139C59.731 3.47517 59.6264 3.26636 59.4893 3.07508C58.9563 2.46562 58.4866 1.81845 58.0801 1.13351C61.1077 0.782337 64.1346 0.427468 67.1616 0.068779Z" fill="#1F4A3F"/>
<path fill-rule="evenodd" clip-rule="evenodd" d="M67.1621 0.068771C67.251 0.00920868 67.3556 -0.0116475 67.4753 0.00613974C67.4753 6.06052 67.4753 12.1148 67.4753 18.1692C67.4126 12.1819 67.392 6.14839 67.4126 0.068771C67.3293 0.068771 67.2454 0.068771 67.1621 0.068771Z" fill="#CCD5D3"/>
<path fill-rule="evenodd" clip-rule="evenodd" d="M9.41514 8.524C11.2728 8.4196 13.0683 8.70144 14.8014 9.36953C16.8134 10.2506 18.1391 11.7434 18.7785 13.8477C19.1574 15.1364 19.2827 16.4517 19.1543 17.7934C15.4322 17.8559 11.7056 17.8768 7.97462 17.8561C7.90278 19.2973 8.26817 20.6126 9.07067 21.8018C10.5443 23.4419 12.371 24.0369 14.5509 23.5868C16.4146 23.2968 17.8551 22.3678 18.8725 20.7997C18.1249 24.9396 15.6614 27.3091 11.482 27.9084C8.84425 28.2243 6.38078 27.7233 4.09148 26.4052C1.80744 24.8777 0.481755 22.7379 0.114391 19.9855C-0.186358 17.7307 0.105924 15.5596 0.99123 13.4719C2.3797 10.9021 4.51963 9.34667 7.41094 8.80585C8.08548 8.68973 8.7535 8.59578 9.41514 8.524Z" fill="#1F4A3F"/>
<path fill-rule="evenodd" clip-rule="evenodd" d="M46.2426 8.524C48.3179 8.45185 50.3429 8.73369 52.3178 9.36952C55.7545 10.7411 57.6439 13.2777 57.986 16.9792C58.2221 19.2725 57.8256 21.4438 56.796 23.4929C55.8192 25.0746 54.4726 26.2333 52.7562 26.9689C50.4139 27.8558 47.9921 28.169 45.491 27.9084C43.3592 27.7407 41.4177 27.0517 39.6663 25.8416C37.7415 24.2158 36.6664 22.1385 36.4408 19.6097C36.204 17.5235 36.4963 15.5193 37.3176 13.5971C38.4705 11.4011 40.2346 9.92926 42.61 9.18163C43.8056 8.83283 45.0165 8.61362 46.2426 8.524Z" fill="#1F4A3F"/>
<path fill-rule="evenodd" clip-rule="evenodd" d="M88.3929 8.52399C90.3339 8.41683 92.2128 8.69867 94.0297 9.36952C96.2056 10.3897 97.5728 12.0702 98.1321 14.4113C98.3977 15.549 98.4703 16.6972 98.3513 17.8561C94.6141 17.8561 90.8775 17.8561 87.1403 17.8561C87.1171 19.4131 87.5656 20.8118 88.4869 22.0524C89.8065 23.383 91.4036 23.9154 93.2782 23.6495C95.3225 23.4681 96.9196 22.5391 98.0695 20.8624C97.2885 25.0669 94.7732 27.4156 90.5224 27.9084C87.4842 28.2607 84.749 27.53 82.3177 25.7163C80.5333 24.0993 79.5206 22.0846 79.2801 19.6724C79.0032 17.2629 79.4204 14.9873 80.5327 12.8456C81.7183 10.9407 83.3993 9.67766 85.5745 9.05636C86.5084 8.80364 87.4478 8.62615 88.3929 8.52399Z" fill="#204A3F"/>
<path fill-rule="evenodd" clip-rule="evenodd" d="M18.4336 8.83715C21.9203 8.81629 25.4068 8.83715 28.893 8.89978C28.5093 9.78996 28.1439 10.6877 27.797 11.5929C27.7552 11.7808 27.7552 11.9687 27.797 12.1566C28.9412 15.8293 30.079 19.5037 31.2104 23.1797C32.0315 20.7265 32.8353 18.263 33.6217 15.7892C33.6742 15.4497 33.6534 15.1157 33.5591 14.7871C32.7588 12.8317 31.9759 10.8693 31.2104 8.89978C33.4856 8.83715 35.7612 8.81629 38.0372 8.83715C36.8179 11.234 35.5966 13.6348 34.3733 16.0397C33.1164 19.9043 31.8534 23.7666 30.5841 27.6265C29.6341 27.6474 28.6843 27.6683 27.7343 27.6892C26.7602 27.6887 25.7998 27.6469 24.8533 27.5639C23.3584 22.9748 21.8761 18.3818 20.4065 13.785C19.7912 12.116 19.1336 10.4668 18.4336 8.83715Z" fill="#1F4A3F"/>
<path fill-rule="evenodd" clip-rule="evenodd" d="M9.66474 9.33821C10.4259 9.16102 11.0209 9.39069 11.4497 10.0272C11.7945 10.6959 12.0032 11.4057 12.076 12.1566C12.2154 13.8025 12.2676 15.4518 12.2326 17.1045C10.813 17.1045 9.39336 17.1045 7.9737 17.1045C7.89403 15.2123 8.00883 13.3334 8.31817 11.4677C8.43535 10.7218 8.7589 10.085 9.28895 9.55742C9.42843 9.49848 9.5537 9.42539 9.66474 9.33821Z" fill="#25AC8D"/>
<path fill-rule="evenodd" clip-rule="evenodd" d="M46.6189 9.3382C47.4954 9.13503 48.1739 9.40641 48.6544 10.1524C48.9301 10.7081 49.118 11.2927 49.2181 11.9061C49.3432 12.9272 49.4476 13.9502 49.5313 14.975C49.5731 17.0836 49.5731 19.1922 49.5313 21.3008C49.5012 22.8985 49.2716 24.4643 48.8423 25.9981C48.3263 27.1692 47.4807 27.4928 46.3058 26.9689C45.7784 26.4886 45.4548 25.8936 45.335 25.1839C45.0751 23.7975 44.9289 22.3987 44.8966 20.9876C44.8548 19.1295 44.8548 17.2715 44.8966 15.4134C44.9172 13.9342 45.0842 12.4728 45.3976 11.0292C45.5626 10.2786 45.9697 9.71487 46.6189 9.3382Z" fill="#25AC8D"/>
<path fill-rule="evenodd" clip-rule="evenodd" d="M88.8943 9.33821C90.006 9.20643 90.7056 9.68662 90.9924 10.7787C91.1879 11.5182 91.3131 12.2697 91.3682 13.0335C91.4446 14.3894 91.476 15.7464 91.4622 17.1045C90.0217 17.1045 88.5811 17.1045 87.1406 17.1045C87.1744 16.0191 87.2058 14.9335 87.2346 13.8477C87.264 12.713 87.4519 11.6065 87.7983 10.5282C88.0275 9.99665 88.3926 9.60001 88.8943 9.33821Z" fill="#26AD8E"/>
<path fill-rule="evenodd" clip-rule="evenodd" d="M69.1658 27.5639C69.1996 27.5677 69.2209 27.5885 69.2284 27.6265C65.5019 27.7099 61.786 27.7099 58.0801 27.6265C61.786 27.6473 65.4812 27.6265 69.1658 27.5639Z" fill="#617C74"/>
</svg>
