<svg width="359" height="359" viewBox="0 0 359 359" fill="none" xmlns="http://www.w3.org/2000/svg">
<path fill-rule="evenodd" clip-rule="evenodd" d="M179.474 233.197C149.803 233.197 125.75 209.144 125.75 179.473C125.75 149.802 149.803 125.749 179.474 125.749C209.145 125.749 233.198 149.802 233.198 179.473C233.198 209.144 209.145 233.197 179.474 233.197ZM134.015 179.473C134.015 204.579 154.368 224.932 179.474 224.932C204.58 224.932 224.933 204.579 224.933 179.473C224.933 154.367 204.58 134.014 179.474 134.014C154.368 134.014 134.015 154.367 134.015 179.473Z" fill="#24B34C"/>
<path fill-rule="evenodd" clip-rule="evenodd" d="M200.304 165.531C201.918 167.145 201.918 169.762 200.304 171.376L178.263 193.416C176.649 195.03 174.033 195.03 172.419 193.416L161.398 182.396C159.785 180.782 159.785 178.165 161.398 176.552C163.012 174.938 165.629 174.938 167.243 176.552L175.341 184.65L194.459 165.531C196.073 163.917 198.69 163.917 200.304 165.531Z" fill="#24B34C"/>
<circle cx="296.368" cy="133.424" r="12.9882" fill="#24B34C"/>
<circle cx="75.5679" cy="224.342" r="7.08449" fill="#24B34C"/>
<circle cx="255.041" cy="269.21" r="4.72299" fill="#24B34C"/>
<circle cx="240.872" cy="63.7606" r="4.72299" fill="#24B34C"/>
<circle cx="110.99" cy="89.7367" r="4.72299" fill="#24B34C"/>
<circle cx="2.3615" cy="2.3615" r="2.3615" transform="matrix(1 0 0 -1 340.055 238.511)" fill="#24B34C"/>
<circle cx="2.3615" cy="2.3615" r="2.3615" transform="matrix(1 0 0 -1 113.352 292.825)" fill="#24B34C"/>
<circle cx="2.3615" cy="2.3615" r="2.3615" transform="matrix(1 0 0 -1 21.2534 155.859)" fill="#24B34C"/>
</svg>
