<svg width="116" height="37" viewBox="0 0 116 37" fill="none" xmlns="http://www.w3.org/2000/svg">
<path d="M11.7608 12.1798C14.3876 12.1798 16.4472 12.9559 17.9397 14.5081C19.4322 16.0603 20.1785 18.6125 20.1785 22.1646H5.80577L5.76099 21.3139H14.0891C14.1488 19.8512 14.0891 18.508 13.91 17.2841C13.7309 16.0304 13.4324 15.0305 13.0145 14.2842C12.6265 13.538 12.1041 13.1649 11.4474 13.1649C10.5519 13.1649 9.79072 13.8066 9.16387 15.0902C8.53703 16.3737 8.14898 18.5528 7.99973 21.6273L8.17883 21.9407C8.11913 22.2691 8.08928 22.6123 8.08928 22.9705C8.08928 23.2989 8.08928 23.6571 8.08928 24.0451C8.08928 26.1048 8.35793 27.7465 8.89523 28.9704C9.46237 30.1942 10.1638 31.0598 10.9996 31.5673C11.8354 32.0747 12.7011 32.3285 13.5966 32.3285C14.104 32.3285 14.6712 32.2538 15.298 32.1046C15.9249 31.9553 16.5816 31.6419 17.2681 31.1643C17.9547 30.6867 18.6114 29.9853 19.2382 29.0599L19.9994 29.3286C19.671 30.4927 19.1039 31.6419 18.2979 32.7762C17.5218 33.8807 16.5219 34.806 15.298 35.5523C14.0742 36.2686 12.5966 36.6268 10.8653 36.6268C8.89523 36.6268 7.13408 36.2239 5.58189 35.4179C4.0297 34.5821 2.79093 33.2837 1.86559 31.5225C0.97009 29.7315 0.522342 27.4032 0.522342 24.5377C0.522342 21.7019 1.01487 19.3736 1.99991 17.5528C2.98496 15.732 4.3282 14.3887 6.02964 13.5231C7.73108 12.6276 9.64147 12.1798 11.7608 12.1798ZM44.0518 12.8067V13.7469C43.4847 13.926 42.9474 14.2992 42.4399 14.8663C41.9325 15.4335 41.425 16.4185 40.9176 17.8214L34.6043 36.0448C34.0073 35.9851 33.4104 35.9552 32.8134 35.9552C32.2164 35.9552 31.6044 35.9851 30.9776 36.0448L23.0972 16.2543C22.6495 15.12 22.1868 14.4186 21.7092 14.1499C21.2316 13.8813 20.8286 13.7469 20.5003 13.7469V12.8067C21.5749 12.8664 22.6943 12.9261 23.8584 12.9858C25.0225 13.0156 26.2912 13.0305 27.6643 13.0305C28.5896 13.0305 29.5597 13.0156 30.5746 12.9858C31.6194 12.9261 32.5895 12.8664 33.485 12.8067V13.7469C32.9178 13.7469 32.3955 13.7768 31.9179 13.8365C31.4701 13.8962 31.1418 14.0604 30.9328 14.329C30.7537 14.5977 30.7686 15.0902 30.9776 15.8066L36.0819 29.7315L35.5894 30.4927L38.5893 21.8512C39.2161 20.0303 39.4848 18.5378 39.3952 17.3737C39.3057 16.2095 38.9624 15.329 38.3654 14.732C37.7983 14.135 37.0371 13.8066 36.0819 13.7469V12.8067C36.5297 12.8365 37.0222 12.8664 37.5595 12.8962C38.1266 12.9261 38.6788 12.9559 39.2161 12.9858C39.7833 12.9858 40.246 12.9858 40.6042 12.9858C41.1713 12.9858 41.7982 12.9708 42.4847 12.941C43.1713 12.9111 43.6936 12.8664 44.0518 12.8067ZM56.0546 12.1798C58.2934 12.1798 60.2485 12.5828 61.9201 13.3887C63.6215 14.1648 64.9349 15.4484 65.8603 17.2394C66.8155 19.0304 67.2931 21.4183 67.2931 24.4033C67.2931 27.3883 66.8155 29.7763 65.8603 31.5673C64.9349 33.3583 63.6215 34.6568 61.9201 35.4627C60.2485 36.2388 58.2934 36.6268 56.0546 36.6268C53.8457 36.6268 51.8906 36.2388 50.1891 35.4627C48.5175 34.6568 47.2041 33.3583 46.2489 31.5673C45.2937 29.7763 44.8161 27.3883 44.8161 24.4033C44.8161 21.4183 45.2937 19.0304 46.2489 17.2394C47.2041 15.4484 48.5175 14.1648 50.1891 13.3887C51.8906 12.5828 53.8457 12.1798 56.0546 12.1798ZM56.0546 13.0753C55.0099 13.0753 54.1293 13.9708 53.4129 15.7618C52.7264 17.5229 52.3831 20.4035 52.3831 24.4033C52.3831 28.4032 52.7264 31.2986 53.4129 33.0896C54.1293 34.8508 55.0099 35.7314 56.0546 35.7314C57.1292 35.7314 58.0098 34.8508 58.6963 33.0896C59.3829 31.2986 59.7261 28.4032 59.7261 24.4033C59.7261 20.4035 59.3829 17.5229 58.6963 15.7618C58.0098 13.9708 57.1292 13.0753 56.0546 13.0753ZM79.1381 0.986122V31.8359C79.1381 33.0896 79.3321 33.9404 79.7202 34.3881C80.1082 34.8359 80.7798 35.0597 81.735 35.0597V36C81.1679 35.9702 80.3172 35.9403 79.1829 35.9105C78.0486 35.8508 76.8844 35.8209 75.6904 35.8209C74.4666 35.8209 73.2278 35.8508 71.9741 35.9105C70.7503 35.9403 69.825 35.9702 69.1981 36V35.0597C70.1831 35.0597 70.8697 34.8359 71.2577 34.3881C71.6756 33.9404 71.8846 33.0896 71.8846 31.8359V6.3591C71.8846 5.01585 71.6906 4.03081 71.3025 3.40396C70.9443 2.74726 70.2428 2.41891 69.1981 2.41891V1.47865C70.1533 1.5682 71.0786 1.61297 71.9741 1.61297C73.3472 1.61297 74.6308 1.5682 75.8248 1.47865C77.0188 1.35925 78.1232 1.19507 79.1381 0.986122ZM93.9138 12.8067V13.7022C92.8989 13.941 91.884 14.4036 90.8691 15.0902C89.8542 15.7469 88.8244 16.5976 87.7796 17.6423L85.2722 20.1945L85.6304 19.4781L93.0631 32.7314C93.3616 33.2389 93.6601 33.7016 93.9586 34.1195C94.2869 34.5374 94.675 34.8508 95.1227 35.0597V36C94.675 35.9702 93.9586 35.9403 92.9735 35.9105C92.0183 35.8508 91.0482 35.8209 90.0632 35.8209C88.9289 35.8209 87.7796 35.8508 86.6155 35.9105C85.4812 35.9403 84.6156 35.9702 84.0186 36V35.0597C84.6156 35.0597 85.0185 34.9254 85.2275 34.6568C85.4364 34.3881 85.4066 34.015 85.1379 33.5374L80.9739 25.3884C80.7052 24.8809 80.4067 24.5526 80.0784 24.4033C79.7799 24.2541 79.4068 24.1795 78.959 24.1795V23.3287C79.4665 23.2989 79.9142 23.2243 80.3022 23.1049C80.7201 22.9855 81.1082 22.7616 81.4664 22.4332L84.8693 19.1647C85.914 18.1796 86.4364 17.2991 86.4364 16.523C86.4662 15.717 86.1379 15.0603 85.4513 14.5529C84.7947 14.0454 83.9439 13.7619 82.8992 13.7022V12.8067C83.735 12.8365 84.6454 12.8664 85.6304 12.8962C86.6453 12.9261 87.511 12.941 88.2274 12.941C88.8244 12.941 89.4811 12.941 90.1975 12.941C90.9437 12.9111 91.6452 12.8962 92.3019 12.8962C92.9884 12.8664 93.5257 12.8365 93.9138 12.8067ZM106.907 12.1798C109.534 12.1798 111.594 12.9559 113.086 14.5081C114.579 16.0603 115.325 18.6125 115.325 22.1646H100.952L100.907 21.3139H109.236C109.295 19.8512 109.236 18.508 109.056 17.2841C108.877 16.0304 108.579 15.0305 108.161 14.2842C107.773 13.538 107.25 13.1649 106.594 13.1649C105.698 13.1649 104.937 13.8066 104.31 15.0902C103.683 16.3737 103.295 18.5528 103.146 21.6273L103.325 21.9407C103.266 22.2691 103.236 22.6123 103.236 22.9705C103.236 23.2989 103.236 23.6571 103.236 24.0451C103.236 26.1048 103.504 27.7465 104.042 28.9704C104.609 30.1942 105.31 31.0598 106.146 31.5673C106.982 32.0747 107.847 32.3285 108.743 32.3285C109.25 32.3285 109.818 32.2538 110.444 32.1046C111.071 31.9553 111.728 31.6419 112.415 31.1643C113.101 30.6867 113.758 29.9853 114.385 29.0599L115.146 29.3286C114.817 30.4927 114.25 31.6419 113.444 32.7762C112.668 33.8807 111.668 34.806 110.444 35.5523C109.221 36.2686 107.743 36.6268 106.012 36.6268C104.042 36.6268 102.28 36.2239 100.728 35.4179C99.1761 34.5821 97.9373 33.2837 97.012 31.5225C96.1165 29.7315 95.6687 27.4032 95.6687 24.5377C95.6687 21.7019 96.1613 19.3736 97.1463 17.5528C98.1314 15.732 99.4746 14.3887 101.176 13.5231C102.877 12.6276 104.788 12.1798 106.907 12.1798Z" fill="white"/>
</svg>
