<svg width="25" height="24" viewBox="0 0 25 24" fill="none" xmlns="http://www.w3.org/2000/svg">
<path d="M13.0853 10.7232C13.0679 10.7009 13.0455 10.6828 13.02 10.6704C12.9945 10.6579 12.9665 10.6515 12.9382 10.6515C12.9098 10.6515 12.8818 10.6579 12.8563 10.6704C12.8308 10.6828 12.8085 10.7009 12.791 10.7232L10.1744 14.0336C10.1528 14.0612 10.1395 14.0942 10.1358 14.129C10.1321 14.1638 10.1383 14.1989 10.1537 14.2304C10.169 14.2618 10.1929 14.2883 10.2226 14.3068C10.2523 14.3253 10.2866 14.3351 10.3216 14.335H12.0481V19.998C12.0481 20.1008 12.1322 20.1849 12.235 20.1849H13.6367C13.7395 20.1849 13.8236 20.1008 13.8236 19.998V14.3373H15.5547C15.7112 14.3373 15.7977 14.1574 15.7019 14.036L13.0853 10.7232Z" fill="black"/>
<path d="M19.9316 8.56687C18.8616 5.74472 16.1352 3.73792 12.9416 3.73792C9.74802 3.73792 7.02165 5.74239 5.95166 8.56454C3.94953 9.09019 2.4707 10.9148 2.4707 13.0828C2.4707 15.6643 4.56162 17.7552 7.1408 17.7552H8.07762C8.18042 17.7552 8.26452 17.6711 8.26452 17.5683V16.1666C8.26452 16.0638 8.18042 15.9797 8.07762 15.9797H7.1408C6.35349 15.9797 5.61291 15.6666 5.06157 15.0989C4.51256 14.5336 4.22053 13.772 4.24623 12.9823C4.26725 12.3656 4.47751 11.7862 4.85832 11.2979C5.24846 10.8003 5.79514 10.4382 6.40255 10.277L7.28798 10.0457L7.61271 9.19064C7.81363 8.65799 8.09397 8.16037 8.44674 7.70948C8.79501 7.26258 9.20754 6.86973 9.67092 6.54371C10.6311 5.86854 11.7618 5.5111 12.9416 5.5111C14.1214 5.5111 15.2521 5.86854 16.2123 6.54371C16.6772 6.87078 17.0884 7.26326 17.4365 7.70948C17.7893 8.16037 18.0696 8.66032 18.2705 9.19064L18.5929 10.0434L19.476 10.277C20.7422 10.6181 21.6277 11.7698 21.6277 13.0828C21.6277 13.8561 21.3263 14.585 20.7796 15.1316C20.5115 15.4013 20.1926 15.6151 19.8413 15.7607C19.49 15.9062 19.1134 15.9807 18.7331 15.9797H17.7963C17.6935 15.9797 17.6094 16.0638 17.6094 16.1666V17.5683C17.6094 17.6711 17.6935 17.7552 17.7963 17.7552H18.7331C21.3123 17.7552 23.4032 15.6643 23.4032 13.0828C23.4032 10.9171 21.929 9.09486 19.9316 8.56687Z" fill="black"/>
</svg>
